<svg width="61" height="60" viewBox="0 0 61 60" fill="none" xmlns="http://www.w3.org/2000/svg">
<g clip-path="url(#clip0_1565_12970)">
<path d="M51.7133 8.78672C46.047 3.12059 38.5133 0 30.5 0C22.4867 0 14.953 3.12059 9.28672 8.78672C3.62047 14.4529 0.5 21.9867 0.5 30C0.5 38.0133 3.62059 45.547 9.28672 51.2133C14.9529 56.8795 22.4867 60 30.5 60C38.5133 60 46.047 56.8794 51.7133 51.2133C57.3795 45.5471 60.5 38.0133 60.5 30C60.5 21.9867 57.3794 14.453 51.7133 8.78672ZM50.4703 10.0297C53.7361 13.2955 56.1016 17.2208 57.4466 21.5047C55.9783 19.5901 54.0027 17.8291 51.5599 16.2912C50.0586 15.3459 48.4258 14.515 46.6897 13.8027C46.6856 13.7913 46.6823 13.7798 46.6776 13.7686C44.7493 9.07676 42.0791 5.4143 38.9841 3.04992C43.2724 4.3943 47.2017 6.76113 50.4703 10.0297ZM10.5297 10.0297C13.7971 6.7623 17.725 4.39594 22.0115 3.05121C20.1631 4.46707 18.4573 6.35496 16.9584 8.67762C16.8345 8.87345 16.793 9.11027 16.8429 9.33655C16.8927 9.56283 17.0299 9.76028 17.2246 9.88591C17.4193 10.0116 17.6558 10.0552 17.8825 10.0074C18.1092 9.95964 18.3079 9.82424 18.4353 9.6307C21.7118 4.55379 25.9964 1.75781 30.5 1.75781C35.9744 1.75781 41.0904 5.91023 44.3987 12.9516C40.1615 11.5366 35.4199 10.7856 30.5 10.7856C22.558 10.7856 15.0786 12.7409 9.44 16.2911C6.99723 17.829 5.02156 19.5901 3.55332 21.5046C4.8984 17.2208 7.26395 13.2955 10.5297 10.0297ZM10.3766 17.7786C11.3491 17.1662 12.3812 16.6045 13.4633 16.0941C12.037 20.3645 11.2856 25.1259 11.2856 30C11.2856 34.9199 12.0366 39.6616 13.4517 43.8988C6.40637 40.5915 2.25781 35.4857 2.25781 30C2.25781 25.4153 5.14109 21.075 10.3766 17.7786ZM10.5297 49.9703C7.26453 46.7051 4.89922 42.7804 3.55402 38.4973C5.92344 41.5948 9.59621 44.2631 14.3033 46.1914C15.0154 47.927 15.8462 49.5593 16.7911 51.06C18.329 53.5028 20.0901 55.4784 22.0046 56.9467C17.7208 55.6016 13.7955 53.2361 10.5297 49.9703ZM18.2786 50.1234C14.9026 44.7616 13.0434 37.6151 13.0434 30C13.0434 24.7331 13.951 19.6114 15.6662 15.1536C20.0823 13.4532 25.1762 12.5434 30.5 12.5434C38.115 12.5434 45.2616 14.4026 50.6234 17.7786C55.8589 21.075 58.7422 25.4153 58.7422 30C58.7422 34.5847 55.8589 38.925 50.6234 42.2214C49.6542 42.8317 48.6259 43.3916 47.5477 43.9007C48.9631 39.663 49.7144 34.9206 49.7144 30C49.7144 28.8998 49.6761 27.7905 49.6003 26.703C49.5818 26.4723 49.473 26.2581 49.2975 26.1071C49.1221 25.9561 48.8941 25.8804 48.6632 25.8965C48.4322 25.9126 48.217 26.0191 48.0641 26.1929C47.9113 26.3668 47.8332 26.5939 47.8468 26.825C47.9199 27.8818 47.9566 28.9407 47.9566 30C47.9566 35.3275 47.0455 40.4246 45.3428 44.8428C40.9246 46.5456 35.8275 47.4566 30.5 47.4566C27.0646 47.4566 23.7072 47.077 20.5213 46.3284C20.4089 46.302 20.2924 46.298 20.1785 46.3166C20.0646 46.3352 19.9555 46.376 19.8573 46.4368C19.7592 46.4976 19.674 46.5771 19.6066 46.6708C19.5392 46.7645 19.491 46.8706 19.4646 46.9829C19.4112 47.2098 19.4502 47.4487 19.573 47.6468C19.6957 47.845 19.8921 47.9863 20.1191 48.0396C23.4369 48.8191 26.9294 49.2144 30.5 49.2144C35.4206 49.2144 40.163 48.4631 44.4007 47.0477C43.8916 48.1259 43.3316 49.1542 42.7214 50.1234C39.425 55.3589 35.0847 58.2422 30.5 58.2422C25.9153 58.2422 21.575 55.3589 18.2786 50.1234ZM50.4703 49.9703C47.2045 53.2361 43.2792 55.6016 38.9953 56.9466C40.9099 55.4783 42.6709 53.5027 44.2088 51.0599C45.1531 49.5602 45.9833 47.9292 46.6951 46.1951C48.4292 45.4833 50.0602 44.6531 51.5599 43.7088C54.0027 42.1709 55.9783 40.4098 57.4466 38.4953C56.1016 42.7792 53.7361 46.7045 50.4703 49.9703Z" fill="white"/>
<path d="M39.127 23.7277C36.8582 23.7277 35.0124 25.5735 35.0124 27.8423V32.1564C35.0124 34.4252 36.8582 36.271 39.127 36.271C41.3957 36.271 43.2415 34.4252 43.2415 32.1564V27.8423C43.2415 25.5735 41.3957 23.7277 39.127 23.7277ZM41.4837 32.1565C41.4837 33.4561 40.4266 34.5133 39.127 34.5133C37.8273 34.5133 36.7702 33.4561 36.7702 32.1565V27.8424C36.7702 26.5428 37.8273 25.4856 39.127 25.4856C40.4266 25.4856 41.4837 26.5428 41.4837 27.8424V32.1565ZM29.4198 28.042C28.5777 28.0412 27.7559 28.3005 27.0666 28.7843C27.1387 26.9533 28.65 25.4856 30.4984 25.4856C30.9839 25.4856 31.3773 25.0922 31.3773 24.6067C31.3773 24.1212 30.9839 23.7278 30.4984 23.7278C27.6348 23.7278 25.3054 26.0574 25.3054 28.9209V32.1565C25.3054 34.4253 27.1511 36.2711 29.4198 36.2711C31.6886 36.2711 33.5344 34.4253 33.5344 32.1565C33.5344 29.8878 31.6886 28.042 29.4198 28.042ZM29.4198 34.5134C28.1204 34.5134 27.0632 33.4562 27.0632 32.1566C27.0632 30.857 28.1204 29.7999 29.4198 29.7999C30.7195 29.7999 31.7766 30.857 31.7766 32.1566C31.7766 33.4562 30.7195 34.5134 29.4198 34.5134ZM22.4952 29.9995C23.3111 29.3434 23.8274 28.3779 23.8274 27.303C23.8274 25.3316 22.0901 23.7277 19.9547 23.7277C18.7429 23.7277 17.624 24.2358 16.8849 25.1218C16.7356 25.3007 16.6635 25.5317 16.6844 25.7638C16.7054 25.996 16.8177 26.2103 16.9967 26.3596C17.0853 26.4336 17.1876 26.4893 17.2978 26.5237C17.4079 26.5581 17.5238 26.5705 17.6388 26.5601C17.7537 26.5497 17.8655 26.5168 17.9677 26.4632C18.0699 26.4096 18.1606 26.3364 18.2345 26.2478C18.6327 25.7704 19.2759 25.4854 19.9547 25.4854C21.1209 25.4854 22.0696 26.3008 22.0696 27.303C22.0696 28.3052 21.1209 29.1204 19.9547 29.1204C19.4692 29.1204 19.0758 29.5138 19.0758 29.9993C19.0758 30.4848 19.4692 30.8782 19.9547 30.8782C21.1209 30.8782 22.0696 31.6936 22.0696 32.6958C22.0696 33.698 21.1209 34.5133 19.9547 34.5133C19.274 34.5133 18.6299 34.2271 18.232 33.7477C18.1582 33.6589 18.0677 33.5855 17.9656 33.5317C17.8635 33.4778 17.7518 33.4446 17.6368 33.434C17.4047 33.4125 17.1736 33.484 16.9942 33.633C16.8149 33.7819 16.702 33.996 16.6805 34.2281C16.659 34.4602 16.7306 34.6914 16.8795 34.8707C17.6186 35.7607 18.7394 36.2712 19.9547 36.2712C22.0901 36.2712 23.8274 34.6673 23.8274 32.6958C23.8274 31.621 23.3111 30.6555 22.4952 29.9995ZM45.5983 18.335C43.9243 18.335 42.5623 19.6969 42.5623 21.3709C42.5623 23.045 43.9243 24.4069 45.5983 24.4069C47.2723 24.4069 48.6343 23.045 48.6343 21.3709C48.6343 19.6969 47.2723 18.335 45.5983 18.335ZM45.5983 22.6491C44.8934 22.6491 44.3201 22.0757 44.3201 21.3709C44.3201 20.6662 44.8935 20.0928 45.5983 20.0928C46.303 20.0928 46.8764 20.6662 46.8764 21.3709C46.8764 22.0757 46.303 22.6491 45.5983 22.6491Z" fill="white"/>
</g>
<defs>
<clipPath id="clip0_1565_12970">
<rect width="60" height="60" fill="white" transform="translate(0.5)"/>
</clipPath>
</defs>
</svg>
