<svg width="125" height="47" viewBox="0 0 125 47" fill="none" xmlns="http://www.w3.org/2000/svg">
<rect x="0.5" y="0.5" width="124" height="46" rx="9.5" stroke="#1D4265"/>
<path d="M38.352 11.424C38.96 11.424 39.4853 11.5387 39.928 11.768C40.376 11.992 40.7173 12.3147 40.952 12.736C41.192 13.1573 41.312 13.6533 41.312 14.224C41.312 14.7947 41.192 15.2907 40.952 15.712C40.7173 16.128 40.376 16.448 39.928 16.672C39.4853 16.8907 38.96 17 38.352 17H36.616V11.424H38.352ZM38.352 16.4C39.072 16.4 39.6213 16.2107 40 15.832C40.3787 15.448 40.568 14.912 40.568 14.224C40.568 13.5307 40.376 12.9893 39.992 12.6C39.6133 12.2107 39.0667 12.016 38.352 12.016H37.344V16.4H38.352ZM44.1843 17.072C43.7736 17.072 43.4003 16.9787 43.0643 16.792C42.7336 16.6053 42.4723 16.3413 42.2803 16C42.0936 15.6533 42.0003 15.2533 42.0003 14.8C42.0003 14.352 42.0963 13.9573 42.2883 13.616C42.4856 13.2693 42.7523 13.0053 43.0883 12.824C43.4243 12.6373 43.8003 12.544 44.2163 12.544C44.6323 12.544 45.0083 12.6373 45.3443 12.824C45.6803 13.0053 45.9443 13.2667 46.1363 13.608C46.3336 13.9493 46.4323 14.3467 46.4323 14.8C46.4323 15.2533 46.3309 15.6533 46.1283 16C45.9309 16.3413 45.6616 16.6053 45.3203 16.792C44.9789 16.9787 44.6003 17.072 44.1843 17.072ZM44.1843 16.432C44.4456 16.432 44.6909 16.3707 44.9203 16.248C45.1496 16.1253 45.3336 15.9413 45.4723 15.696C45.6163 15.4507 45.6883 15.152 45.6883 14.8C45.6883 14.448 45.6189 14.1493 45.4803 13.904C45.3416 13.6587 45.1603 13.4773 44.9363 13.36C44.7123 13.2373 44.4696 13.176 44.2083 13.176C43.9416 13.176 43.6963 13.2373 43.4723 13.36C43.2536 13.4773 43.0776 13.6587 42.9443 13.904C42.8109 14.1493 42.7443 14.448 42.7443 14.8C42.7443 15.1573 42.8083 15.4587 42.9363 15.704C43.0696 15.9493 43.2456 16.1333 43.4643 16.256C43.6829 16.3733 43.9229 16.432 44.1843 16.432ZM53.2294 12.616L51.8614 17H51.1094L50.0534 13.52L48.9974 17H48.2454L46.8694 12.616H47.6134L48.6214 16.296L49.7094 12.616H50.4534L51.5174 16.304L52.5094 12.616H53.2294ZM56.0879 12.536C56.6213 12.536 57.0533 12.6987 57.3839 13.024C57.7146 13.344 57.8799 13.808 57.8799 14.416V17H57.1599V14.52C57.1599 14.0827 57.0506 13.7493 56.8319 13.52C56.6133 13.2853 56.3146 13.168 55.9359 13.168C55.5519 13.168 55.2453 13.288 55.0159 13.528C54.7919 13.768 54.6799 14.1173 54.6799 14.576V17H53.9519V12.616H54.6799V13.24C54.8239 13.016 55.0186 12.8427 55.2639 12.72C55.5146 12.5973 55.7893 12.536 56.0879 12.536ZM59.7971 11.08V17H59.0691V11.08H59.7971ZM62.9499 17.072C62.5392 17.072 62.1659 16.9787 61.8299 16.792C61.4992 16.6053 61.2379 16.3413 61.0459 16C60.8592 15.6533 60.7659 15.2533 60.7659 14.8C60.7659 14.352 60.8619 13.9573 61.0539 13.616C61.2512 13.2693 61.5179 13.0053 61.8539 12.824C62.1899 12.6373 62.5659 12.544 62.9819 12.544C63.3979 12.544 63.7739 12.6373 64.1099 12.824C64.4459 13.0053 64.7099 13.2667 64.9019 13.608C65.0992 13.9493 65.1979 14.3467 65.1979 14.8C65.1979 15.2533 65.0965 15.6533 64.8939 16C64.6965 16.3413 64.4272 16.6053 64.0859 16.792C63.7445 16.9787 63.3659 17.072 62.9499 17.072ZM62.9499 16.432C63.2112 16.432 63.4565 16.3707 63.6859 16.248C63.9152 16.1253 64.0992 15.9413 64.2379 15.696C64.3819 15.4507 64.4539 15.152 64.4539 14.8C64.4539 14.448 64.3845 14.1493 64.2459 13.904C64.1072 13.6587 63.9259 13.4773 63.7019 13.36C63.4779 13.2373 63.2352 13.176 62.9739 13.176C62.7072 13.176 62.4619 13.2373 62.2379 13.36C62.0192 13.4773 61.8432 13.6587 61.7099 13.904C61.5765 14.1493 61.5099 14.448 61.5099 14.8C61.5099 15.1573 61.5739 15.4587 61.7019 15.704C61.8352 15.9493 62.0112 16.1333 62.2299 16.256C62.4485 16.3733 62.6885 16.432 62.9499 16.432ZM65.8831 14.792C65.8831 14.344 65.9737 13.952 66.1551 13.616C66.3364 13.2747 66.5844 13.0107 66.8991 12.824C67.2191 12.6373 67.5737 12.544 67.9631 12.544C68.3471 12.544 68.6804 12.6267 68.9631 12.792C69.2457 12.9573 69.4564 13.1653 69.5951 13.416V12.616H70.3311V17H69.5951V16.184C69.4511 16.44 69.2351 16.6533 68.9471 16.824C68.6644 16.9893 68.3337 17.072 67.9551 17.072C67.5657 17.072 67.2137 16.976 66.8991 16.784C66.5844 16.592 66.3364 16.3227 66.1551 15.976C65.9737 15.6293 65.8831 15.2347 65.8831 14.792ZM69.5951 14.8C69.5951 14.4693 69.5284 14.1813 69.3951 13.936C69.2617 13.6907 69.0804 13.504 68.8511 13.376C68.6271 13.2427 68.3791 13.176 68.1071 13.176C67.8351 13.176 67.5871 13.24 67.3631 13.368C67.1391 13.496 66.9604 13.6827 66.8271 13.928C66.6937 14.1733 66.6271 14.4613 66.6271 14.792C66.6271 15.128 66.6937 15.4213 66.8271 15.672C66.9604 15.9173 67.1391 16.1067 67.3631 16.24C67.5871 16.368 67.8351 16.432 68.1071 16.432C68.3791 16.432 68.6271 16.368 68.8511 16.24C69.0804 16.1067 69.2617 15.9173 69.3951 15.672C69.5284 15.4213 69.5951 15.1307 69.5951 14.8ZM71.2893 14.792C71.2893 14.344 71.38 13.952 71.5613 13.616C71.7426 13.2747 71.9906 13.0107 72.3053 12.824C72.6253 12.6373 72.9826 12.544 73.3773 12.544C73.7186 12.544 74.036 12.624 74.3293 12.784C74.6226 12.9387 74.8466 13.144 75.0013 13.4V11.08H75.7373V17H75.0013V16.176C74.8573 16.4373 74.644 16.6533 74.3613 16.824C74.0786 16.9893 73.748 17.072 73.3693 17.072C72.98 17.072 72.6253 16.976 72.3053 16.784C71.9906 16.592 71.7426 16.3227 71.5613 15.976C71.38 15.6293 71.2893 15.2347 71.2893 14.792ZM75.0013 14.8C75.0013 14.4693 74.9346 14.1813 74.8013 13.936C74.668 13.6907 74.4866 13.504 74.2573 13.376C74.0333 13.2427 73.7853 13.176 73.5133 13.176C73.2413 13.176 72.9933 13.24 72.7693 13.368C72.5453 13.496 72.3666 13.6827 72.2333 13.928C72.1 14.1733 72.0333 14.4613 72.0333 14.792C72.0333 15.128 72.1 15.4213 72.2333 15.672C72.3666 15.9173 72.5453 16.1067 72.7693 16.24C72.9933 16.368 73.2413 16.432 73.5133 16.432C73.7853 16.432 74.0333 16.368 74.2573 16.24C74.4866 16.1067 74.668 15.9173 74.8013 15.672C74.9346 15.4213 75.0013 15.1307 75.0013 14.8ZM81.0124 17.072C80.6017 17.072 80.2284 16.9787 79.8924 16.792C79.5617 16.6053 79.3004 16.3413 79.1084 16C78.9217 15.6533 78.8284 15.2533 78.8284 14.8C78.8284 14.352 78.9244 13.9573 79.1164 13.616C79.3137 13.2693 79.5804 13.0053 79.9164 12.824C80.2524 12.6373 80.6284 12.544 81.0444 12.544C81.4604 12.544 81.8364 12.6373 82.1724 12.824C82.5084 13.0053 82.7724 13.2667 82.9644 13.608C83.1617 13.9493 83.2604 14.3467 83.2604 14.8C83.2604 15.2533 83.159 15.6533 82.9564 16C82.759 16.3413 82.4897 16.6053 82.1484 16.792C81.807 16.9787 81.4284 17.072 81.0124 17.072ZM81.0124 16.432C81.2737 16.432 81.519 16.3707 81.7484 16.248C81.9777 16.1253 82.1617 15.9413 82.3004 15.696C82.4444 15.4507 82.5164 15.152 82.5164 14.8C82.5164 14.448 82.447 14.1493 82.3084 13.904C82.1697 13.6587 81.9884 13.4773 81.7644 13.36C81.5404 13.2373 81.2977 13.176 81.0364 13.176C80.7697 13.176 80.5244 13.2373 80.3004 13.36C80.0817 13.4773 79.9057 13.6587 79.7724 13.904C79.639 14.1493 79.5724 14.448 79.5724 14.8C79.5724 15.1573 79.6364 15.4587 79.7644 15.704C79.8977 15.9493 80.0737 16.1333 80.2924 16.256C80.511 16.3733 80.751 16.432 81.0124 16.432ZM86.3536 12.536C86.8869 12.536 87.3189 12.6987 87.6496 13.024C87.9802 13.344 88.1456 13.808 88.1456 14.416V17H87.4256V14.52C87.4256 14.0827 87.3162 13.7493 87.0976 13.52C86.8789 13.2853 86.5802 13.168 86.2016 13.168C85.8176 13.168 85.5109 13.288 85.2816 13.528C85.0576 13.768 84.9456 14.1173 84.9456 14.576V17H84.2176V12.616H84.9456V13.24C85.0896 13.016 85.2842 12.8427 85.5296 12.72C85.7802 12.5973 86.0549 12.536 86.3536 12.536ZM92.3556 13.216V15.8C92.3556 16.0133 92.4009 16.1653 92.4916 16.256C92.5822 16.3413 92.7396 16.384 92.9636 16.384H93.4996V17H92.8436C92.4382 17 92.1342 16.9067 91.9316 16.72C91.7289 16.5333 91.6276 16.2267 91.6276 15.8V13.216H91.0596V12.616H91.6276V11.512H92.3556V12.616H93.4996V13.216H92.3556ZM96.5576 12.536C96.8883 12.536 97.187 12.608 97.4536 12.752C97.7203 12.8907 97.9283 13.1013 98.0776 13.384C98.2323 13.6667 98.3096 14.0107 98.3096 14.416V17H97.5896V14.52C97.5896 14.0827 97.4803 13.7493 97.2616 13.52C97.043 13.2853 96.7443 13.168 96.3656 13.168C95.9816 13.168 95.675 13.288 95.4456 13.528C95.2216 13.768 95.1096 14.1173 95.1096 14.576V17H94.3816V11.08H95.1096V13.24C95.2536 13.016 95.451 12.8427 95.7016 12.72C95.9576 12.5973 96.243 12.536 96.5576 12.536ZM103.499 14.64C103.499 14.7787 103.491 14.9253 103.475 15.08H99.9708C99.9975 15.512 100.144 15.8507 100.411 16.096C100.683 16.336 101.011 16.456 101.395 16.456C101.709 16.456 101.971 16.384 102.179 16.24C102.392 16.0907 102.541 15.8933 102.627 15.648H103.411C103.293 16.0693 103.059 16.4133 102.707 16.68C102.355 16.9413 101.917 17.072 101.395 17.072C100.979 17.072 100.605 16.9787 100.275 16.792C99.9495 16.6053 99.6935 16.3413 99.5068 16C99.3201 15.6533 99.2268 15.2533 99.2268 14.8C99.2268 14.3467 99.3175 13.9493 99.4988 13.608C99.6801 13.2667 99.9335 13.0053 100.259 12.824C100.589 12.6373 100.968 12.544 101.395 12.544C101.811 12.544 102.179 12.6347 102.499 12.816C102.819 12.9973 103.064 13.248 103.235 13.568C103.411 13.8827 103.499 14.24 103.499 14.64ZM102.747 14.488C102.747 14.2107 102.685 13.9733 102.563 13.776C102.44 13.5733 102.272 13.4213 102.059 13.32C101.851 13.2133 101.619 13.16 101.363 13.16C100.995 13.16 100.68 13.2773 100.419 13.512C100.163 13.7467 100.016 14.072 99.9788 14.488H102.747Z" fill="#1D4265"/>
<path d="M43.904 32.728H39.248L38.448 35H36.544L40.528 23.864H42.64L46.624 35H44.704L43.904 32.728ZM43.392 31.24L41.584 26.072L39.76 31.24H43.392ZM50.1803 27.48C50.4896 27.0747 50.9109 26.7333 51.4443 26.456C51.9776 26.1787 52.5803 26.04 53.2523 26.04C54.0203 26.04 54.7189 26.232 55.3483 26.616C55.9883 26.9893 56.4896 27.5173 56.8523 28.2C57.2149 28.8827 57.3963 29.6667 57.3963 30.552C57.3963 31.4373 57.2149 32.232 56.8523 32.936C56.4896 33.6293 55.9883 34.1733 55.3483 34.568C54.7189 34.952 54.0203 35.144 53.2523 35.144C52.5803 35.144 51.9829 35.0107 51.4603 34.744C50.9376 34.4667 50.5109 34.1253 50.1803 33.72V39.192H48.3563V26.184H50.1803V27.48ZM55.5403 30.552C55.5403 29.944 55.4123 29.4213 55.1562 28.984C54.9109 28.536 54.5803 28.2 54.1643 27.976C53.7589 27.7413 53.3216 27.624 52.8523 27.624C52.3936 27.624 51.9563 27.7413 51.5403 27.976C51.1349 28.2107 50.8043 28.552 50.5483 29C50.3029 29.448 50.1803 29.976 50.1803 30.584C50.1803 31.192 50.3029 31.7253 50.5483 32.184C50.8043 32.632 51.1349 32.9733 51.5403 33.208C51.9563 33.4427 52.3936 33.56 52.8523 33.56C53.3216 33.56 53.7589 33.4427 54.1643 33.208C54.5803 32.9627 54.9109 32.6107 55.1562 32.152C55.4123 31.6933 55.5403 31.16 55.5403 30.552ZM61.024 27.48C61.3333 27.0747 61.7547 26.7333 62.288 26.456C62.8213 26.1787 63.424 26.04 64.096 26.04C64.864 26.04 65.5627 26.232 66.192 26.616C66.832 26.9893 67.3333 27.5173 67.696 28.2C68.0587 28.8827 68.24 29.6667 68.24 30.552C68.24 31.4373 68.0587 32.232 67.696 32.936C67.3333 33.6293 66.832 34.1733 66.192 34.568C65.5627 34.952 64.864 35.144 64.096 35.144C63.424 35.144 62.8267 35.0107 62.304 34.744C61.7813 34.4667 61.3547 34.1253 61.024 33.72V39.192H59.2V26.184H61.024V27.48ZM66.384 30.552C66.384 29.944 66.256 29.4213 66 28.984C65.7547 28.536 65.424 28.2 65.008 27.976C64.6027 27.7413 64.1653 27.624 63.696 27.624C63.2373 27.624 62.8 27.7413 62.384 27.976C61.9787 28.2107 61.648 28.552 61.392 29C61.1467 29.448 61.024 29.976 61.024 30.584C61.024 31.192 61.1467 31.7253 61.392 32.184C61.648 32.632 61.9787 32.9733 62.384 33.208C62.8 33.4427 63.2373 33.56 63.696 33.56C64.1653 33.56 64.6027 33.4427 65.008 33.208C65.424 32.9627 65.7547 32.6107 66 32.152C66.256 31.6933 66.384 31.16 66.384 30.552ZM77.864 35.112C77.1173 35.112 76.4453 34.984 75.848 34.728C75.2507 34.4613 74.7813 34.088 74.44 33.608C74.0987 33.128 73.928 32.568 73.928 31.928H75.88C75.9227 32.408 76.1093 32.8027 76.44 33.112C76.7813 33.4213 77.256 33.576 77.864 33.576C78.4933 33.576 78.984 33.4267 79.336 33.128C79.688 32.8187 79.864 32.424 79.864 31.944C79.864 31.5707 79.752 31.2667 79.528 31.032C79.3147 30.7973 79.0427 30.616 78.712 30.488C78.392 30.36 77.944 30.2213 77.368 30.072C76.6427 29.88 76.0507 29.688 75.592 29.496C75.144 29.2933 74.76 28.984 74.44 28.568C74.12 28.152 73.96 27.5973 73.96 26.904C73.96 26.264 74.12 25.704 74.44 25.224C74.76 24.744 75.208 24.376 75.784 24.12C76.36 23.864 77.0267 23.736 77.784 23.736C78.8613 23.736 79.7413 24.008 80.424 24.552C81.1173 25.0853 81.5013 25.8213 81.576 26.76H79.56C79.528 26.3547 79.336 26.008 78.984 25.72C78.632 25.432 78.168 25.288 77.592 25.288C77.0693 25.288 76.6427 25.4213 76.312 25.688C75.9813 25.9547 75.816 26.3387 75.816 26.84C75.816 27.1813 75.9173 27.464 76.12 27.688C76.3333 27.9013 76.6 28.072 76.92 28.2C77.24 28.328 77.6773 28.4667 78.232 28.616C78.968 28.8187 79.5653 29.0213 80.024 29.224C80.4933 29.4267 80.888 29.7413 81.208 30.168C81.5387 30.584 81.704 31.144 81.704 31.848C81.704 32.4133 81.5493 32.9467 81.24 33.448C80.9413 33.9493 80.4987 34.3547 79.912 34.664C79.336 34.9627 78.6533 35.112 77.864 35.112ZM85.9843 27.672V32.552C85.9843 32.8827 86.0589 33.1227 86.2083 33.272C86.3683 33.4107 86.6349 33.48 87.0083 33.48H88.1283V35H86.6883C85.8669 35 85.2376 34.808 84.8003 34.424C84.3629 34.04 84.1443 33.416 84.1443 32.552V27.672H83.1043V26.184H84.1443V23.992H85.9843V26.184H88.1283V27.672H85.9843ZM93.6334 35.144C92.8014 35.144 92.0494 34.9573 91.3774 34.584C90.7054 34.2 90.1774 33.6667 89.7934 32.984C89.4094 32.2907 89.2174 31.4907 89.2174 30.584C89.2174 29.688 89.4147 28.8933 89.8094 28.2C90.204 27.5067 90.7427 26.9733 91.4254 26.6C92.108 26.2267 92.8707 26.04 93.7134 26.04C94.556 26.04 95.3187 26.2267 96.0014 26.6C96.684 26.9733 97.2227 27.5067 97.6174 28.2C98.012 28.8933 98.2094 29.688 98.2094 30.584C98.2094 31.48 98.0067 32.2747 97.6014 32.968C97.196 33.6613 96.6414 34.2 95.9374 34.584C95.244 34.9573 94.476 35.144 93.6334 35.144ZM93.6334 33.56C94.1027 33.56 94.54 33.448 94.9454 33.224C95.3614 33 95.6974 32.664 95.9534 32.216C96.2094 31.768 96.3374 31.224 96.3374 30.584C96.3374 29.944 96.2147 29.4053 95.9694 28.968C95.724 28.52 95.3987 28.184 94.9934 27.96C94.588 27.736 94.1507 27.624 93.6814 27.624C93.212 27.624 92.7747 27.736 92.3694 27.96C91.9747 28.184 91.66 28.52 91.4254 28.968C91.1907 29.4053 91.0734 29.944 91.0734 30.584C91.0734 31.5333 91.3134 32.2693 91.7934 32.792C92.284 33.304 92.8974 33.56 93.6334 33.56ZM101.837 27.464C102.103 27.016 102.455 26.6693 102.893 26.424C103.341 26.168 103.869 26.04 104.477 26.04V27.928H104.013C103.298 27.928 102.754 28.1093 102.381 28.472C102.018 28.8347 101.837 29.464 101.837 30.36V35H100.013V26.184H101.837V27.464ZM114.233 30.376C114.233 30.7067 114.212 31.0053 114.169 31.272H107.433C107.486 31.976 107.748 32.5413 108.217 32.968C108.686 33.3947 109.262 33.608 109.945 33.608C110.926 33.608 111.62 33.1973 112.025 32.376H113.993C113.726 33.1867 113.241 33.8533 112.537 34.376C111.844 34.888 110.98 35.144 109.945 35.144C109.102 35.144 108.345 34.9573 107.673 34.584C107.012 34.2 106.489 33.6667 106.105 32.984C105.732 32.2907 105.545 31.4907 105.545 30.584C105.545 29.6773 105.726 28.8827 106.089 28.2C106.462 27.5067 106.98 26.9733 107.641 26.6C108.313 26.2267 109.081 26.04 109.945 26.04C110.777 26.04 111.518 26.2213 112.169 26.584C112.82 26.9467 113.326 27.4587 113.689 28.12C114.052 28.7707 114.233 29.5227 114.233 30.376ZM112.329 29.8C112.318 29.128 112.078 28.5893 111.609 28.184C111.14 27.7787 110.558 27.576 109.865 27.576C109.236 27.576 108.697 27.7787 108.249 28.184C107.801 28.5787 107.534 29.1173 107.449 29.8H112.329Z" fill="#1D4265"/>
<path d="M26.996 37.11C25.4443 38.6142 23.7502 38.3767 22.1193 37.6642C20.3935 36.9358 18.8102 36.9042 16.9893 37.6642C14.7093 38.6458 13.506 38.3608 12.1443 37.11C4.41768 29.1458 5.55768 17.0175 14.3293 16.5742C16.4668 16.685 17.9552 17.7458 19.206 17.8408C21.0743 17.4608 22.8635 16.3683 24.8585 16.5108C27.2493 16.7008 29.0543 17.6508 30.2418 19.3608C25.3018 22.3217 26.4735 28.8292 31.0018 30.65C30.0993 33.025 28.9277 35.3842 26.9802 37.1258L26.996 37.11ZM19.0477 16.4792C18.8102 12.9483 21.676 10.035 24.9693 9.75C25.4285 13.835 21.2643 16.875 19.0477 16.4792Z" fill="#1D4265"/>
</svg>
