<svg width="16" height="18" viewBox="0 0 16 18" fill="none" xmlns="http://www.w3.org/2000/svg">
<path d="M12.8685 17.28C11.8885 18.23 10.8185 18.08 9.78852 17.63C8.69852 17.17 7.69852 17.15 6.54852 17.63C5.10852 18.25 4.34852 18.07 3.48852 17.28C-1.39148 12.25 -0.671476 4.59 4.86852 4.31C6.21852 4.38 7.15852 5.05 7.94852 5.11C9.12852 4.87 10.2585 4.18 11.5185 4.27C13.0285 4.39 14.1685 4.99 14.9185 6.07C11.7985 7.94 12.5385 12.05 15.3985 13.2C14.8285 14.7 14.0885 16.19 12.8585 17.29L12.8685 17.28ZM7.84852 4.25C7.69852 2.02 9.50852 0.18 11.5885 0C11.8785 2.58 9.24852 4.5 7.84852 4.25Z" fill="black"/>
</svg>
