<svg width="35" height="35" viewBox="0 0 35 35" fill="none" xmlns="http://www.w3.org/2000/svg">
<path d="M9.45875 24.876H23.0154M9.56083 28.3424H23.1168M6.07031 6.66797H26.3382V30.9893H6.07031V6.66797Z" stroke="#1D4265" stroke-width="1.5" stroke-linecap="round" stroke-linejoin="round"/>
<path d="M9.19336 4.01074H28.929V28.5319" stroke="#1D4265" stroke-width="1.5" stroke-linecap="round" stroke-linejoin="round"/>
<path d="M16.1066 13.7562C17.6562 13.7562 18.9124 12.5 18.9124 10.9504C18.9124 9.40075 17.6562 8.14453 16.1066 8.14453C14.557 8.14453 13.3008 9.40075 13.3008 10.9504C13.3008 12.5 14.557 13.7562 16.1066 13.7562Z" stroke="#1D4265" stroke-width="1.5" stroke-linecap="round" stroke-linejoin="round"/>
<path d="M11.7478 21.5688H20.8638C21.2481 21.4762 21.7177 21.3625 21.827 20.5283C21.9364 19.6941 21.7286 18.1293 20.7223 16.8788C19.7161 15.6283 17.9107 14.6913 16.0776 14.7307C14.2452 14.7701 12.3858 15.7851 11.3963 17.064C10.4068 18.343 10.2909 19.8859 10.4943 20.6807C10.6985 21.4755 11.2228 21.5221 11.747 21.5688" stroke="#1D4265" stroke-width="1.5" stroke-linecap="round" stroke-linejoin="round"/>
</svg>
