<svg width="36" height="36" viewBox="0 0 36 36" fill="none" xmlns="http://www.w3.org/2000/svg">
<path fill-rule="evenodd" clip-rule="evenodd" d="M19.4994 4.5C19.4994 4.10218 19.3414 3.72064 19.0601 3.43934C18.7788 3.15804 18.3972 3 17.9994 3C17.6016 3 17.2201 3.15804 16.9388 3.43934C16.6575 3.72064 16.4994 4.10218 16.4994 4.5V5.625H15.6639C14.056 5.62489 12.5084 6.23759 11.3363 7.33836C10.1642 8.43912 9.45566 9.9452 9.35492 11.55L9.02342 16.851C8.89527 18.8718 8.21679 20.8191 7.06142 22.482C6.82237 22.8256 6.67631 23.2252 6.63744 23.642C6.59856 24.0587 6.66821 24.4785 6.83959 24.8603C7.01098 25.2422 7.27827 25.5732 7.61547 25.8212C7.95268 26.0692 8.34832 26.2257 8.76392 26.2755L13.8744 26.8875V28.5C13.8744 29.594 14.309 30.6432 15.0826 31.4168C15.8562 32.1904 16.9054 32.625 17.9994 32.625C19.0934 32.625 20.1427 32.1904 20.9162 31.4168C21.6898 30.6432 22.1244 29.594 22.1244 28.5V26.8875L27.2349 26.274C27.6503 26.2241 28.0457 26.0676 28.3827 25.8197C28.7197 25.5718 28.9868 25.2409 29.1581 24.8593C29.3295 24.4776 29.3992 24.0582 29.3605 23.6416C29.3219 23.225 29.1761 22.8256 28.9374 22.482C27.7821 20.8191 27.1036 18.8718 26.9754 16.851L26.6439 11.5515C26.5436 9.94644 25.8352 8.43998 24.663 7.3389C23.4909 6.23782 21.9431 5.62492 20.3349 5.625H19.4994V4.5ZM15.6639 7.875C14.6283 7.87487 13.6315 8.26946 12.8766 8.97841C12.1217 9.68737 11.6653 10.6574 11.6004 11.691L11.2704 16.992C11.1162 19.4231 10.2997 21.7657 8.90942 23.766C8.89212 23.7908 8.88155 23.8197 8.87873 23.8499C8.8759 23.88 8.88092 23.9104 8.8933 23.938C8.90568 23.9657 8.925 23.9896 8.94938 24.0076C8.97376 24.0255 9.00236 24.0369 9.03242 24.0405L14.6379 24.714C16.8714 24.981 19.1274 24.981 21.3609 24.714L26.9664 24.0405C26.9965 24.0369 27.0251 24.0255 27.0495 24.0076C27.0738 23.9896 27.0932 23.9657 27.1055 23.938C27.1179 23.9104 27.1229 23.88 27.1201 23.8499C27.1173 23.8197 27.1067 23.7908 27.0894 23.766C25.6997 21.7655 24.8837 19.423 24.7299 16.992L24.3984 11.691C24.3336 10.6574 23.8772 9.68737 23.1223 8.97841C22.3673 8.26946 21.3706 7.87487 20.3349 7.875H15.6639ZM17.9994 30.375C16.9644 30.375 16.1244 29.535 16.1244 28.5V27.375H19.8744V28.5C19.8744 29.535 19.0344 30.375 17.9994 30.375Z" fill="#1D4265"/>
<circle cx="10.5" cy="9.5" r="3.5" fill="#F32C2C"/>
</svg>
