<svg width="12" height="12" viewBox="0 0 12 12" fill="none" xmlns="http://www.w3.org/2000/svg">
<g clip-path="url(#clip0_1060_13643)">
<path d="M1.48878 11.4534C1.38106 11.6149 1.42473 11.8332 1.58628 11.9409C1.6439 11.9795 1.71166 12 1.78098 12C1.89458 12 2.00607 11.945 2.07381 11.8434L2.34174 11.4415C2.12592 11.3468 1.91921 11.2326 1.72419 11.1003L1.48878 11.4534ZM10.2759 11.1003C10.0809 11.2326 9.87417 11.3468 9.65834 11.4415L9.92628 11.8434C9.99404 11.945 10.1055 12 10.2191 12C10.2861 12 10.3539 11.9809 10.4138 11.9409C10.5754 11.8332 10.619 11.6149 10.5113 11.4534L10.2759 11.1003ZM0.726618 6.8002V7.89844C0.726618 9.6431 2.14602 11.0625 3.89068 11.0625H8.10943C9.85409 11.0625 11.2735 9.6431 11.2735 7.89844V7.69373H5.46432C3.82995 7.69373 2.23906 7.39322 0.726618 6.8002ZM1.89835 4.14349V1.28906C1.89835 0.965977 2.1612 0.703125 2.48429 0.703125H2.95304C3.27613 0.703125 3.53898 0.965977 3.53898 1.28906V1.45587C2.99551 1.61245 2.60148 2.1225 2.60148 2.71488V2.8125C2.60148 3.00666 2.75888 3.16406 2.95304 3.16406H4.82804C5.0222 3.16406 5.1796 3.00666 5.1796 2.8125V2.69531C5.1796 2.1064 4.7825 1.60875 4.2421 1.4553V1.28906C4.2421 0.578273 3.66383 0 2.95304 0H2.48429C1.7735 0 1.19523 0.578273 1.19523 1.28906V3.86119C1.25094 3.87818 1.30559 3.89848 1.35889 3.92198C1.53658 4.00091 1.71647 4.07477 1.89835 4.14349ZM11.2295 5.49649H5.46432C3.94175 5.49649 2.46488 5.18302 1.07413 4.56485C0.696454 4.39755 0.255571 4.56705 0.0880165 4.94398C-0.0795382 5.32092 0.0901961 5.76253 0.467141 5.93009C2.05027 6.63387 3.7314 6.99061 5.46434 6.99061H11.2295C11.6422 6.99061 11.9766 6.65623 11.9766 6.24354C11.9765 5.83085 11.6422 5.49649 11.2295 5.49649Z" fill="white"/>
</g>
<defs>
<clipPath id="clip0_1060_13643">
<rect width="12" height="12" fill="white"/>
</clipPath>
</defs>
</svg>
