<svg width="16" height="16" viewBox="0 0 16 16" fill="none" xmlns="http://www.w3.org/2000/svg">
<g clip-path="url(#clip0_853_10634)">
<path d="M1.98504 15.2712C1.84142 15.4866 1.89964 15.7776 2.11504 15.9212C2.19186 15.9726 2.28221 16 2.37464 16C2.52611 16 2.67476 15.9267 2.76507 15.7912L3.12232 15.2553C2.83456 15.1291 2.55894 14.9768 2.29892 14.8003L1.98504 15.2712ZM13.7012 14.8003C13.4412 14.9768 13.1656 15.1291 12.8778 15.2553L13.235 15.7912C13.3254 15.9267 13.474 16 13.6255 16C13.7148 16 13.8052 15.9745 13.8851 15.9212C14.1005 15.7776 14.1587 15.4866 14.0151 15.2712L13.7012 14.8003ZM0.968824 9.06694V10.5312C0.968824 12.8575 2.86136 14.75 5.18757 14.75H10.8126C13.1388 14.75 15.0313 12.8575 15.0313 10.5312V10.2583H7.28576C5.10661 10.2583 2.98542 9.85763 0.968824 9.06694ZM2.53114 5.52466V1.71875C2.53114 1.28797 2.88161 0.9375 3.31239 0.9375H3.93739C4.36817 0.9375 4.71864 1.28797 4.71864 1.71875V1.94116C3.99401 2.14994 3.46864 2.83 3.46864 3.61984V3.75C3.46864 4.00887 3.67851 4.21875 3.93739 4.21875H6.43739C6.69626 4.21875 6.90614 4.00887 6.90614 3.75V3.59375C6.90614 2.80853 6.37667 2.145 5.65614 1.94041V1.71875C5.65614 0.771031 4.88511 0 3.93739 0H3.31239C2.36467 0 1.59364 0.771031 1.59364 1.71875V5.14825C1.66792 5.17091 1.74079 5.19798 1.81186 5.22931C2.04877 5.33455 2.28863 5.43303 2.53114 5.52466ZM14.9726 7.32866H7.28576C5.25567 7.32866 3.28651 6.91069 1.43217 6.08647C0.928605 5.86341 0.340762 6.08941 0.117355 6.59197C-0.106051 7.09456 0.120261 7.68337 0.622855 7.90678C2.7337 8.84516 4.9752 9.32081 7.28579 9.32081H14.9727C15.5229 9.32081 15.9688 8.87497 15.9688 8.32472C15.9687 7.77447 15.5229 7.32866 14.9726 7.32866Z" fill="#A3ABB0"/>
</g>
<defs>
<clipPath id="clip0_853_10634">
<rect width="16" height="16" fill="white"/>
</clipPath>
</defs>
</svg>
