<svg width="12" height="12" viewBox="0 0 12 12" fill="none" xmlns="http://www.w3.org/2000/svg">
<path d="M10.4997 5.35312C10.2418 5.23991 9.96321 5.18157 9.68155 5.18182H2.31792C2.03628 5.18155 1.75767 5.23979 1.49973 5.35287C1.13518 5.51229 0.824973 5.77446 0.607019 6.10734C0.389065 6.44022 0.272809 6.82939 0.272461 7.22727V10.0909C0.272461 10.1994 0.315561 10.3035 0.392281 10.3802C0.469 10.4569 0.573054 10.5 0.681552 10.5C0.79005 10.5 0.894103 10.4569 0.970823 10.3802C1.04754 10.3035 1.09064 10.1994 1.09064 10.0909V9.88636C1.09131 9.83232 1.11307 9.78068 1.15129 9.74246C1.1895 9.70424 1.24115 9.68248 1.29519 9.68182H10.7043C10.7583 9.68248 10.81 9.70424 10.8482 9.74246C10.8864 9.78068 10.9082 9.83232 10.9088 9.88636V10.0909C10.9088 10.1994 10.9519 10.3035 11.0286 10.3802C11.1054 10.4569 11.2094 10.5 11.3179 10.5C11.4264 10.5 11.5305 10.4569 11.6072 10.3802C11.6839 10.3035 11.727 10.1994 11.727 10.0909V7.22727C11.7266 6.82943 11.6103 6.44032 11.3924 6.10749C11.1744 5.77466 10.8642 5.51253 10.4997 5.35312ZM9.06792 1.5H2.93155C2.55181 1.5 2.18762 1.65085 1.9191 1.91937C1.65059 2.18789 1.49973 2.55208 1.49973 2.93182V4.77273C1.49975 4.78858 1.50344 4.8042 1.51053 4.81838C1.51761 4.83256 1.5279 4.84489 1.54057 4.85441C1.55324 4.86393 1.56795 4.87038 1.58353 4.87324C1.59912 4.87611 1.61516 4.87531 1.63039 4.87091C1.85371 4.80559 2.08523 4.77253 2.31792 4.77273H2.42607C2.45131 4.77289 2.47572 4.76371 2.4946 4.74695C2.51349 4.73019 2.5255 4.70704 2.52834 4.68196C2.55066 4.48207 2.64582 4.29739 2.79566 4.16321C2.94549 4.02903 3.13951 3.95475 3.34064 3.95455H4.77246C4.97373 3.95456 5.16793 4.02876 5.31793 4.16296C5.46793 4.29716 5.5632 4.48193 5.58553 4.68196C5.58837 4.70704 5.60039 4.73019 5.61927 4.74695C5.63815 4.76371 5.66256 4.77289 5.6878 4.77273H6.3132C6.33844 4.77289 6.36285 4.76371 6.38174 4.74695C6.40062 4.73019 6.41263 4.70704 6.41547 4.68196C6.43777 4.4822 6.53282 4.29763 6.6825 4.16347C6.83218 4.02931 7.026 3.95494 7.22701 3.95455H8.65882C8.86009 3.95456 9.05429 4.02876 9.20429 4.16296C9.35429 4.29716 9.44956 4.48193 9.47189 4.68196C9.47473 4.70704 9.48675 4.73019 9.50563 4.74695C9.52451 4.76371 9.54892 4.77289 9.57417 4.77273H9.68155C9.91425 4.77262 10.1458 4.80576 10.3691 4.87116C10.3843 4.87557 10.4004 4.87636 10.416 4.87349C10.4316 4.87061 10.4463 4.86414 10.459 4.85459C10.4717 4.84504 10.482 4.83267 10.489 4.81847C10.4961 4.80426 10.4998 4.7886 10.4997 4.77273V2.93182C10.4997 2.55208 10.3489 2.18789 10.0804 1.91937C9.81185 1.65085 9.44766 1.5 9.06792 1.5Z" fill="white"/>
</svg>
