<svg width="16" height="16" viewBox="0 0 16 16" fill="none" xmlns="http://www.w3.org/2000/svg">
<path d="M14 7.1375C13.6561 6.98655 13.2846 6.90877 12.9091 6.90909H3.09092C2.71541 6.90873 2.34392 6.98639 2.00001 7.13716C1.51394 7.34972 1.10033 7.69929 0.809725 8.14313C0.51912 8.58696 0.364112 9.10585 0.363647 9.63636V13.4545C0.363647 13.5992 0.421115 13.7379 0.523407 13.8402C0.6257 13.9425 0.764438 14 0.909102 14C1.05377 14 1.1925 13.9425 1.2948 13.8402C1.39709 13.7379 1.45456 13.5992 1.45456 13.4545V13.1818C1.45544 13.1098 1.48446 13.0409 1.53541 12.9899C1.58637 12.939 1.65523 12.91 1.72728 12.9091H14.2727C14.3448 12.91 14.4137 12.939 14.4646 12.9899C14.5156 13.0409 14.5446 13.1098 14.5455 13.1818V13.4545C14.5455 13.5992 14.6029 13.7379 14.7052 13.8402C14.8075 13.9425 14.9463 14 15.0909 14C15.2356 14 15.3743 13.9425 15.4766 13.8402C15.5789 13.7379 15.6364 13.5992 15.6364 13.4545V9.63636C15.6358 9.10591 15.4808 8.5871 15.1902 8.14332C14.8996 7.69955 14.486 7.35004 14 7.1375ZM12.0909 2H3.9091C3.40278 2 2.9172 2.20114 2.55917 2.55916C2.20115 2.91718 2.00001 3.40277 2.00001 3.90909V6.36364C2.00003 6.38477 2.00495 6.40561 2.0144 6.42451C2.02385 6.44341 2.03756 6.45986 2.05445 6.47255C2.07135 6.48525 2.09096 6.49384 2.11174 6.49766C2.13253 6.50148 2.15391 6.50041 2.17422 6.49455C2.47199 6.40745 2.78068 6.36337 3.09092 6.36364H3.23512C3.26878 6.36385 3.30133 6.35161 3.32651 6.32927C3.35168 6.30692 3.3677 6.27606 3.37149 6.24261C3.40124 5.97609 3.52812 5.72986 3.72791 5.55095C3.92769 5.37205 4.18638 5.273 4.45456 5.27273H6.36365C6.63201 5.27275 6.89094 5.37168 7.09094 5.55061C7.29094 5.72954 7.41797 5.97591 7.44774 6.24261C7.45152 6.27606 7.46755 6.30692 7.49272 6.32927C7.5179 6.35161 7.55044 6.36385 7.5841 6.36364H8.41797C8.45162 6.36385 8.48417 6.35161 8.50935 6.32927C8.53452 6.30692 8.55054 6.27606 8.55433 6.24261C8.58406 5.97626 8.7108 5.73018 8.91037 5.55129C9.10994 5.37241 9.36837 5.27325 9.63638 5.27273H11.5455C11.8138 5.27275 12.0728 5.37168 12.2728 5.55061C12.4728 5.72954 12.5998 5.97591 12.6296 6.24261C12.6333 6.27606 12.6494 6.30692 12.6745 6.32927C12.6997 6.35161 12.7323 6.36385 12.7659 6.36364H12.9091C13.2194 6.36349 13.5281 6.40768 13.8258 6.49489C13.8461 6.50076 13.8676 6.50182 13.8884 6.49798C13.9092 6.49415 13.9288 6.48552 13.9457 6.47279C13.9626 6.46006 13.9763 6.44357 13.9857 6.42462C13.9952 6.40568 14 6.3848 14 6.36364V3.90909C14 3.40277 13.7989 2.91718 13.4409 2.55916C13.0828 2.20114 12.5972 2 12.0909 2Z" fill="#A3ABB0"/>
</svg>
