<svg width="55" height="51" viewBox="0 0 55 51" fill="none" xmlns="http://www.w3.org/2000/svg">
<path d="M45.7758 32.975C46.7237 30.6729 47.2383 28.2083 47.2383 25.5C47.2383 23.55 46.9404 21.6812 46.4258 19.9479C44.6654 20.3541 42.8237 20.5708 40.9008 20.5708C36.9628 20.575 33.0815 19.6324 29.5841 17.8224C26.0867 16.0125 23.0757 13.3882 20.8049 10.1708C18.3782 16.0499 13.795 20.7784 7.99452 23.3875C7.88618 24.0646 7.88618 24.7958 7.88618 25.5C7.88618 28.0856 8.39547 30.646 9.38496 33.0348C10.3745 35.4237 11.8248 37.5943 13.6531 39.4226C17.3456 43.1151 22.3538 45.1896 27.5758 45.1896C30.4195 45.1896 33.1549 44.5666 35.6195 43.4562C37.1633 46.4083 37.8674 47.8708 37.8133 47.8708C33.3716 49.3604 29.932 50.0916 27.5758 50.0916C21.0216 50.0916 14.7654 47.5187 10.1612 42.8875C7.35819 40.0977 5.27608 36.6678 4.09452 32.8937H0.492432V20.5708H3.44451C4.33892 16.2172 6.39523 12.1869 9.39524 8.90761C12.3953 5.62831 16.2271 3.22232 20.4841 1.94494C24.7411 0.667556 29.2645 0.566432 33.5744 1.6523C37.8842 2.73816 41.8197 4.97051 44.9633 8.11247C48.3752 11.513 50.703 15.8482 51.6529 20.5708H54.6591V32.8937H54.4966L44.8549 41.75L30.5008 40.125V35.6021H43.582L45.7758 32.975ZM20.182 24.8771C20.9945 24.8771 21.7799 25.2021 22.3487 25.7979C22.9203 26.3741 23.241 27.1529 23.241 27.9646C23.241 28.7762 22.9203 29.555 22.3487 30.1312C21.7799 30.7 20.9945 31.025 20.182 31.025C18.4758 31.025 17.0945 29.6708 17.0945 27.9646C17.0945 26.2583 18.4758 24.8771 20.182 24.8771ZM34.9424 24.8771C36.6487 24.8771 38.0029 26.2583 38.0029 27.9646C38.0029 29.6708 36.6487 31.025 34.9424 31.025C33.2362 31.025 31.8549 29.6708 31.8549 27.9646C31.8549 27.1457 32.1802 26.3604 32.7592 25.7814C33.3383 25.2023 34.1236 24.8771 34.9424 24.8771Z" fill="#1D4265"/>
</svg>
