<svg width="29" height="29" viewBox="0 0 29 29" fill="none" xmlns="http://www.w3.org/2000/svg">
<path d="M3.625 21.75H12.6875V23.5625H3.625V21.75ZM3.625 16.3125H12.6875V18.125H3.625V16.3125ZM23.5625 12.6875H5.4375C4.9568 12.6875 4.49578 12.4965 4.15587 12.1566C3.81596 11.8167 3.625 11.3557 3.625 10.875V5.4375C3.625 4.9568 3.81596 4.49578 4.15587 4.15587C4.49578 3.81596 4.9568 3.625 5.4375 3.625H23.5625C24.0432 3.625 24.5042 3.81596 24.8441 4.15587C25.184 4.49578 25.375 4.9568 25.375 5.4375V10.875C25.375 11.3557 25.184 11.8167 24.8441 12.1566C24.5042 12.4965 24.0432 12.6875 23.5625 12.6875ZM5.4375 5.4375V10.875H23.5625V5.4375H5.4375ZM23.5625 25.375H18.125C17.6443 25.375 17.1833 25.184 16.8434 24.8441C16.5035 24.5042 16.3125 24.0432 16.3125 23.5625V18.125C16.3125 17.6443 16.5035 17.1833 16.8434 16.8434C17.1833 16.5035 17.6443 16.3125 18.125 16.3125H23.5625C24.0432 16.3125 24.5042 16.5035 24.8441 16.8434C25.184 17.1833 25.375 17.6443 25.375 18.125V23.5625C25.375 24.0432 25.184 24.5042 24.8441 24.8441C24.5042 25.184 24.0432 25.375 23.5625 25.375ZM18.125 18.125V23.5625H23.5625V18.125H18.125Z" fill="#1D4265"/>
</svg>
