<svg width="32" height="32" viewBox="0 0 32 32" fill="none" xmlns="http://www.w3.org/2000/svg">
<path d="M28.8197 12.7998C28.8197 12.3754 28.6511 11.9685 28.351 11.6684C28.051 11.3684 27.644 11.1998 27.2197 11.1998C26.7953 11.1998 26.3883 11.3684 26.0883 11.6684C25.7882 11.9685 25.6197 12.3754 25.6197 12.7998H28.8197ZM6.41966 12.7998C6.41966 12.3754 6.25109 11.9685 5.95103 11.6684C5.65097 11.3684 5.24401 11.1998 4.81966 11.1998C4.39531 11.1998 3.98835 11.3684 3.68829 11.6684C3.38823 11.9685 3.21966 12.3754 3.21966 12.7998H6.41966ZM29.2885 17.131C29.5902 17.4225 29.9944 17.5838 30.4139 17.5801C30.8334 17.5765 31.2347 17.4082 31.5314 17.1116C31.828 16.8149 31.9963 16.4136 31.9999 15.9941C32.0036 15.5746 31.8423 15.1704 31.5509 14.8686L29.2885 17.131ZM16.0197 1.59968L17.1509 0.468463C16.8508 0.168506 16.4439 0 16.0197 0C15.5954 0 15.1885 0.168506 14.8885 0.468463L16.0197 1.59968ZM0.488461 14.8686C0.335645 15.0162 0.213753 15.1928 0.129899 15.388C0.0460446 15.5832 0.00190652 15.7931 6.04107e-05 16.0056C-0.0017857 16.218 0.0386971 16.4287 0.119146 16.6254C0.199596 16.822 0.318401 17.0006 0.468629 17.1509C0.618857 17.3011 0.7975 17.4199 0.994134 17.5004C1.19077 17.5808 1.40146 17.6213 1.6139 17.6194C1.82635 17.6176 2.0363 17.5735 2.23151 17.4896C2.42671 17.4058 2.60327 17.2839 2.75086 17.131L0.488461 14.8686ZM8.01966 32H24.0197V28.8H8.01966V32ZM28.8197 27.1999V12.7998H25.6197V27.1999H28.8197ZM6.41966 27.1999V12.7998H3.21966V27.1999H6.41966ZM31.5509 14.8686L17.1509 0.468463L14.8885 2.73089L29.2885 17.131L31.5509 14.8686ZM14.8885 0.468463L0.488461 14.8686L2.75086 17.131L17.1509 2.73089L14.8885 0.468463ZM24.0197 32C25.2927 32 26.5136 31.4943 27.4138 30.5941C28.3139 29.6939 28.8197 28.473 28.8197 27.1999H25.6197C25.6197 27.6243 25.4511 28.0313 25.151 28.3313C24.851 28.6314 24.444 28.8 24.0197 28.8V32ZM8.01966 28.8C7.59531 28.8 7.18835 28.6314 6.88829 28.3313C6.58823 28.0313 6.41966 27.6243 6.41966 27.1999H3.21966C3.21966 28.473 3.72537 29.6939 4.62555 30.5941C5.52572 31.4943 6.74662 32 8.01966 32V28.8Z" fill="white"/>
</svg>
