<svg width="50" height="50" viewBox="0 0 50 50" fill="none" xmlns="http://www.w3.org/2000/svg">
<path d="M0 19.5312H50V30.4688H0V19.5312Z" fill="#E6E7E8"/>
<path d="M42.1875 7.8125H7.8125C2.63516 7.8125 0 11.6602 0 16.4062V19.5312H50V16.4062C50 11.6602 47.3648 7.8125 42.1875 7.8125Z" fill="#EC1C24"/>
<path d="M0 33.5938C0 38.3398 2.63516 42.1875 7.8125 42.1875H42.1875C47.3648 42.1875 50 38.3398 50 33.5938V30.4688H0V33.5938Z" fill="#25333A"/>
<path fill-rule="evenodd" clip-rule="evenodd" d="M28.6282 22.194C28.7047 22.894 28.7032 23.5956 28.7368 24.2987C28.8008 25.6424 28.8508 26.9925 28.9055 28.3401V28.5839C28.4938 28.1964 28.1165 27.8448 27.743 27.4893C27.7329 27.4542 27.7501 27.4299 27.7751 27.4057C27.843 27.3292 27.8188 27.2385 27.8133 27.1557C27.7751 26.5737 27.7641 25.9893 27.7336 25.405C27.693 24.5612 27.668 23.719 27.618 22.8753C27.6047 22.6167 27.6883 22.4307 27.911 22.301C28.0508 22.2182 28.1446 22.2518 28.1493 22.4143C28.1618 22.7307 28.1727 23.0464 28.1899 23.3628C28.2391 24.2729 28.2672 25.1846 28.311 26.094C28.3313 26.5167 28.3719 26.9378 28.3586 27.3589C28.354 27.4854 28.3618 27.6089 28.3813 27.6839C28.3165 27.4198 28.3688 27.1034 28.3438 26.7878C28.2977 26.251 28.2876 25.712 28.2649 25.1729C28.2313 24.2534 28.1782 23.3378 28.1516 22.4182C28.1454 22.1245 28.2071 22.0854 28.4946 22.1885C28.5383 22.1964 28.5844 22.1682 28.6282 22.194ZM22.511 27.6456C22.1868 27.9471 21.861 28.2479 21.5141 28.5667C21.5141 28.2776 21.5047 28.0284 21.5157 27.7745C21.5844 26.0893 21.6586 24.4026 21.7297 22.7143C21.7376 22.5401 21.7571 22.3674 21.7727 22.1932C21.8188 22.1745 21.8508 22.2432 21.8993 22.2081C21.9446 22.1747 21.9965 22.1515 22.0516 22.1401C22.1797 22.1182 22.2524 22.1792 22.2524 22.3096C22.2524 22.7104 22.2258 23.1065 22.2063 23.5018C22.193 23.8112 22.1704 24.1206 22.1626 24.43C22.143 25.1268 22.1032 25.8221 22.0774 26.5151C22.061 26.9026 22.0532 27.2917 22.0305 27.676C22.0602 27.3143 22.0602 26.9456 22.0751 26.5815C22.1251 25.4096 22.1764 24.2378 22.229 23.0659C22.2368 22.8565 22.2594 22.6448 22.2516 22.4331C22.2485 22.362 22.2594 22.2909 22.3344 22.262C22.4001 22.2331 22.4508 22.2792 22.5055 22.3096C22.7133 22.4331 22.7922 22.6104 22.7821 22.8542C22.7362 23.8468 22.6929 24.8395 22.6524 25.8323C22.6336 26.2784 22.6368 26.7276 22.5844 27.1745C22.5696 27.33 22.5282 27.4862 22.511 27.6456Z" fill="#BF9200"/>
<path fill-rule="evenodd" clip-rule="evenodd" d="M22.511 27.6456C22.4579 27.5007 22.4557 27.342 22.5048 27.1956C22.5314 27.1909 22.5735 27.262 22.5845 27.1839C22.5907 27.1136 22.611 27.048 22.611 26.9808C22.611 26.5261 22.6431 26.0722 22.665 25.6214C22.6962 24.9769 22.711 24.3308 22.7564 23.6886C22.7728 23.4722 22.7704 23.2534 22.7751 23.0378C22.7782 22.9214 22.7728 22.7776 22.9134 22.7433C23.0532 22.7097 23.136 22.8245 23.2126 22.9276C23.2587 22.9901 23.2618 23.0659 23.2571 23.1425C23.2157 23.7558 23.2071 24.3683 23.1767 24.9823C23.1501 25.5776 23.129 26.1722 23.1009 26.7698C23.1426 25.8901 23.1806 25.0097 23.215 24.1284C23.2235 23.8511 23.2446 23.5737 23.2525 23.2925C23.2587 23.0698 23.3181 23.0269 23.5439 23.048C23.6493 23.0597 23.7509 23.08 23.8587 23.087C23.9079 23.1058 23.9618 23.1237 23.9767 23.1831C23.9548 23.2628 23.8837 23.2542 23.8267 23.2558C23.7025 23.2644 23.6603 23.337 23.6946 23.4433C23.7345 23.5565 23.7196 23.6729 23.7251 23.7862C23.7196 23.8894 23.7173 23.9925 23.7087 24.0956C23.683 24.3218 23.6697 24.5492 23.6689 24.7769C23.6642 25.1894 23.6251 25.6042 23.6142 26.0159C23.5759 26.168 23.5666 26.326 23.5868 26.4815C23.597 26.5315 23.6118 26.5815 23.6243 26.6315C23.636 26.7058 23.6056 26.7729 23.565 26.8308C23.5452 26.8525 23.5209 26.8698 23.4937 26.8812C23.4666 26.8927 23.4373 26.8981 23.4079 26.8972C23.3321 26.8855 23.2993 26.9472 23.2564 26.9847L22.511 27.6456ZM27.7798 27.4612C27.7663 27.4716 27.7538 27.4823 27.7423 27.4933C27.5814 27.3433 27.4173 27.1948 27.2587 27.0417C27.247 27.0081 27.2618 26.9815 27.2806 26.955C27.2962 26.9261 27.2923 26.8956 27.2923 26.8636C27.2806 25.9433 27.2306 25.0284 27.1845 24.1112C27.1681 23.7776 27.1806 23.4409 27.1439 23.1081C27.1354 23.0508 27.1485 22.9923 27.1806 22.944C27.2556 22.8378 27.3392 22.712 27.4884 22.748C27.6275 22.7823 27.6235 22.9269 27.6251 23.0425C27.6509 24.0597 27.7134 25.0769 27.7579 26.094C27.7735 26.4581 27.7579 26.8269 27.8118 27.1901C27.8235 27.2769 27.8368 27.3753 27.7798 27.4612ZM27.286 28.0206C27.3017 28.1675 27.3618 28.2026 27.5157 28.1589C27.754 28.0901 28.0884 28.2534 28.04 28.5565C28.029 28.6394 28.0501 28.694 28.1337 28.7331C28.2564 28.7901 28.3001 28.9495 28.4501 28.9769C28.472 28.9823 28.4837 29.0269 28.4642 29.0417C28.3235 29.1237 28.365 29.3214 28.2321 29.4097C28.2142 29.4237 28.1884 29.4472 28.186 29.4675C28.1767 29.7378 27.9767 29.7862 27.7689 29.8308C26.7829 30.0456 25.7837 30.0659 24.7814 30.0456C24.0423 30.0331 23.3048 29.9925 22.5814 29.8151C22.3907 29.7714 22.2696 29.6995 22.204 29.487C22.1523 29.3392 22.0748 29.2016 21.9751 29.0808C21.9173 29.0097 21.9329 29.0026 21.9978 28.9495C22.161 28.8167 22.3853 28.7362 22.372 28.4448C22.3618 28.2362 22.6564 28.0808 22.8868 28.1573C23.0368 28.2065 23.1001 28.1698 23.1165 28.0206C23.1665 28.0105 23.186 28.0456 23.204 28.0808C23.2306 28.137 23.2243 28.194 23.2173 28.2534C23.2081 28.2797 23.1898 28.3019 23.1657 28.3159C23.0931 28.3503 23.0212 28.33 22.9517 28.3097C22.9017 28.2933 22.84 28.2698 22.7954 28.3229C22.74 28.3925 22.8243 28.4128 22.8478 28.4565C22.8601 28.4775 22.8655 28.5018 22.8634 28.5261C22.8517 28.5667 22.8181 28.5878 22.7853 28.6073C22.672 28.6331 22.5782 28.6839 22.5282 28.7995C22.5056 28.8558 22.4462 28.8862 22.3915 28.923C22.2384 29.03 22.2235 29.1144 22.3376 29.2581C22.3587 29.287 22.3931 29.3151 22.4001 29.3495C22.4462 29.5792 22.6243 29.6183 22.8142 29.6558C23.454 29.7792 24.104 29.8339 24.7571 29.8378C25.3423 29.8433 25.9251 29.8542 26.5087 29.8003C26.922 29.762 27.336 29.7206 27.7392 29.6183C27.8579 29.5886 27.9462 29.5425 27.9751 29.412C27.9884 29.3519 28.0321 29.3019 28.0704 29.2526C28.1728 29.1261 28.1665 29.03 28.0392 28.9386C27.9515 28.8894 27.879 28.8169 27.8298 28.7292C27.779 28.6284 27.6821 28.6425 27.5853 28.6558C27.322 28.7003 27.0681 28.7761 26.8064 28.8269C26.772 28.8222 26.7493 28.8034 26.7298 28.7729C26.7118 28.7451 26.7013 28.7131 26.6991 28.68C26.6969 28.647 26.7032 28.6139 26.7173 28.5839C26.7311 28.5564 26.754 28.5346 26.7821 28.5222C27.0649 28.6378 27.3064 28.4534 27.5712 28.4214C27.6079 28.4159 27.6282 28.3878 27.6243 28.3542C27.611 28.3034 27.5704 28.2894 27.5204 28.2964C27.4306 28.3065 27.3423 28.3604 27.247 28.3222C27.222 28.308 27.2022 28.286 27.1907 28.2597C27.177 28.2011 27.1806 28.1398 27.2009 28.0831C27.2173 28.0472 27.236 28.0112 27.2892 28.0206" fill="#BF9200"/>
<path fill-rule="evenodd" clip-rule="evenodd" d="M27.2953 27.008L27.2578 27.0369C27.1438 26.9885 27.0883 26.8541 26.9602 26.8237C26.9475 26.8338 26.9325 26.8406 26.9164 26.8432C26.9004 26.8458 26.884 26.8442 26.8688 26.8385C26.7961 26.7908 26.7703 26.7252 26.7742 26.6424C26.7813 26.5908 26.8032 26.5432 26.811 26.4893C26.8349 26.3388 26.8272 26.185 26.7883 26.0377C26.7727 25.5877 26.7305 25.1416 26.7289 24.6901C26.7289 24.5408 26.7508 24.3822 26.6617 24.2455C26.6307 24.2238 26.6063 24.1937 26.5914 24.1588C26.6242 23.9346 26.6696 23.7127 26.6969 23.4862C26.7188 23.2994 26.725 23.2901 26.5414 23.2565C26.4938 23.2479 26.4422 23.2479 26.4235 23.1869C26.4375 23.1244 26.4946 23.1088 26.5453 23.0877C26.6617 23.0776 26.7781 23.0541 26.8946 23.0432C27.0711 23.026 27.1367 23.0768 27.1469 23.2549C27.1641 23.6104 27.1758 23.9635 27.1907 24.3174C27.2367 25.1947 27.2571 26.0776 27.3102 26.9565C27.3102 26.9752 27.3008 26.9924 27.2953 27.008Z" fill="#BF9200"/>
<path fill-rule="evenodd" clip-rule="evenodd" d="M26.8884 26.8203L26.961 26.8227L27.1079 27.4149C27.129 27.45 27.1267 27.4805 27.0876 27.5031C27.0587 27.518 27.0196 27.4633 26.9931 27.518C26.8665 27.7641 26.915 27.993 27.1415 28.1672C27.172 28.1883 27.204 28.2055 27.2181 28.2453L27.2618 28.2805C27.2603 28.3672 27.1876 28.3734 27.1353 28.3875C26.9985 28.4156 26.8665 28.4594 26.7259 28.45C26.6766 28.45 26.6279 28.4604 26.5829 28.4805C26.3032 28.5352 26.0204 28.532 25.7392 28.5219C25.69 28.5188 25.6321 28.5141 25.6165 28.5797C25.6032 28.6422 25.654 28.6625 25.7032 28.6766C25.8282 28.7188 25.9587 28.7031 26.0853 28.7102C26.1556 28.7141 26.2337 28.6899 26.2884 28.7609C26.297 28.8586 26.2196 28.8633 26.1548 28.8742C26.0751 28.8861 25.9942 28.8877 25.9142 28.8789C25.7532 28.8695 25.6064 28.8992 25.4868 29.0195C25.471 29.0376 25.4512 29.0518 25.429 29.061C25.3025 29.1039 25.1962 28.9617 25.0345 29.057C24.9384 29.1156 24.7876 28.9391 24.7142 28.807C24.7058 28.7805 24.7048 28.7521 24.711 28.725C24.7228 28.6641 24.8235 28.6406 24.7853 28.5672C24.7439 28.4914 24.661 28.5289 24.5985 28.5219C24.4603 28.5078 24.3126 28.5844 24.1884 28.4766C24.1814 28.3524 24.3079 28.3688 24.365 28.3078C24.3995 28.2787 24.4425 28.2615 24.4876 28.2586C24.5152 28.2591 24.5402 28.2682 24.5626 28.286C24.5837 28.3063 24.6064 28.3336 24.6384 28.3305C24.8321 28.3109 24.9907 28.3781 25.136 28.4953C25.172 28.5242 25.215 28.5367 25.254 28.5031C25.4095 28.3836 25.5821 28.3125 25.7876 28.3274C25.8087 28.3274 25.8259 28.3 25.8446 28.2844C25.8659 28.2682 25.8909 28.2577 25.9173 28.2539C26.054 28.3078 26.1509 28.3031 26.2212 28.1383C26.2829 27.9906 26.365 28.0039 26.5431 28.1633C26.6681 27.9899 26.6673 27.9531 26.5165 27.732C26.4306 27.8031 26.4314 27.9703 26.2876 27.9688C26.154 27.9688 26.1251 27.8305 26.047 27.7563C25.9743 27.8391 26.0314 28.007 25.8681 28.0289C25.7915 27.9789 25.7853 27.9047 25.7985 27.8258C25.8571 27.6578 25.8478 27.4867 25.8306 27.3164C25.8372 27.2888 25.8489 27.2626 25.865 27.2391C25.947 27.1422 25.9275 27.0172 25.9571 26.9055C25.9837 26.8094 25.9806 26.6742 26.1157 26.6625C26.236 26.6547 26.2892 26.7703 26.3478 26.8563C26.3639 26.8785 26.3739 26.9047 26.3767 26.932C26.3681 26.8563 26.4017 26.7602 26.4548 26.6742C26.5243 26.5633 26.654 26.5735 26.7493 26.6914C26.7884 26.7406 26.8056 26.8172 26.8884 26.8203Z" fill="#BF9200"/>
<path fill-rule="evenodd" clip-rule="evenodd" d="M24.4531 28.3909C24.3766 28.4597 24.2696 28.3995 24.1899 28.4589C24.0813 28.5886 23.9539 28.4722 23.8367 28.4839C23.7836 28.4737 23.7367 28.4464 23.6828 28.4503C23.5406 28.4597 23.4055 28.4159 23.2688 28.3878C23.2149 28.3737 23.1414 28.3683 23.1383 28.2808L23.1821 28.2456C23.1953 28.2058 23.2281 28.1893 23.2586 28.1675C23.4828 27.9933 23.5352 27.7643 23.4094 27.5206C23.3805 27.4675 23.343 27.5183 23.3125 27.5042C23.2719 27.4815 23.2719 27.4511 23.2922 27.4159C23.3094 27.2378 23.4071 27.0784 23.4071 26.8979C23.4165 26.8773 23.4311 26.8594 23.4494 26.846C23.4677 26.8326 23.4892 26.8241 23.5117 26.8214C23.568 26.8214 23.6008 26.7862 23.6258 26.7386C23.6727 26.6534 23.7391 26.5854 23.8461 26.5987C23.9508 26.612 23.9672 26.7097 23.9992 26.7909C24.0078 26.8112 24.0078 26.8386 24.0281 26.8558C24.0414 26.8589 24.0485 26.8518 24.0578 26.8401C24.1258 26.7651 24.1742 26.637 24.2985 26.6659C24.4391 26.6979 24.425 26.8448 24.45 26.9558C24.4703 27.044 24.4656 27.1417 24.55 27.2042C24.5694 27.2234 24.5834 27.2474 24.5906 27.2737C24.5563 27.4667 24.5313 27.6558 24.6219 27.8433C24.6274 27.9151 24.6102 27.9761 24.55 28.0198C24.3633 28.0268 24.4336 27.8362 24.3531 27.7589C24.1297 28.0495 24.0946 28.0495 23.8938 27.7425C23.7422 27.9097 23.7375 27.9487 23.8422 28.1597C23.8992 28.162 23.9172 28.1018 23.9555 28.0761C24.0352 28.0206 24.1227 28.0167 24.1625 28.1018C24.2196 28.244 24.3375 28.3128 24.4531 28.3909ZM24.6711 21.4667C24.7055 21.2448 24.7656 21.0276 24.7524 20.8018C24.7498 20.7272 24.7291 20.6542 24.6921 20.5893C24.6551 20.5244 24.6028 20.4694 24.5399 20.4292C24.5018 20.4092 24.4594 20.399 24.4164 20.3995C24.3508 20.3925 24.2664 20.5409 24.2242 20.3925C24.2062 20.3354 24.205 20.2744 24.2206 20.2166C24.2363 20.1589 24.2682 20.1068 24.3125 20.0667C24.3352 20.0456 24.3688 20.0261 24.3946 20.0276C24.7664 20.0534 25.1414 19.9081 25.5125 20.0698C25.7071 20.1573 25.8266 20.2831 25.8399 20.4995C25.8563 20.537 25.8617 20.5722 25.8203 20.5956C25.761 20.5956 25.7289 20.5534 25.7102 20.5089C25.6446 20.3456 25.5071 20.3331 25.3891 20.4026C25.1485 20.5495 24.9641 20.4534 24.7875 20.2995C24.7141 20.2411 24.6307 20.1963 24.5414 20.1675C24.7039 20.2065 24.8375 20.3198 24.9571 20.4417C25.043 20.5261 25.0719 20.619 24.968 20.7323C24.8446 20.8643 24.9172 21.0518 24.8664 21.2089C24.8274 21.3253 24.8571 21.4761 24.6985 21.5315C24.668 21.519 24.6563 21.4987 24.6711 21.4667ZM26.0914 22.194C26.1281 22.2847 26.2078 22.2683 26.2805 22.2643C26.6188 22.2518 26.9156 22.1175 27.2078 21.9651C27.2406 21.9448 27.2578 21.9612 27.2703 21.9901C27.2672 22.0933 27.1844 22.137 27.111 22.1808C26.9873 22.2516 26.8546 22.3052 26.7164 22.3401C26.5516 22.3878 26.3922 22.4565 26.2352 22.5026C26.0203 22.5683 25.7727 22.6972 25.5289 22.5401C25.4641 22.4995 25.4 22.4893 25.3219 22.537C25.143 22.6511 25.0367 22.5948 24.9875 22.3745C24.991 22.3617 24.9973 22.3498 25.0057 22.3395C25.0142 22.3293 25.0248 22.321 25.0367 22.3151C25.2672 22.3104 25.2735 22.3065 25.2703 22.0612C25.2703 21.9972 25.2594 21.9362 25.2664 21.8745C25.2899 21.7558 25.2961 21.6354 25.2946 21.5159C25.2938 21.4479 25.2813 21.3792 25.3453 21.3315C25.4696 21.3268 25.4563 21.4229 25.4617 21.4987C25.475 21.7089 25.4563 21.9183 25.5016 22.1276C25.5188 22.2128 25.5469 22.28 25.6602 22.3253C25.5673 22.0757 25.5051 21.8157 25.475 21.5511C25.4696 21.4948 25.4602 21.4409 25.4633 21.3847C25.4656 21.3089 25.4696 21.2175 25.5688 21.2175C25.6453 21.2159 25.6805 21.2925 25.6852 21.3651C25.6922 21.4628 25.7188 21.5581 25.7289 21.6573C25.7453 21.8245 25.7828 21.987 25.8524 22.1409C25.8828 22.2042 25.9164 22.2933 26.0164 22.2128C26.0391 22.194 26.0625 22.1831 26.0914 22.194Z" fill="#BF9200"/>
<path fill-rule="evenodd" clip-rule="evenodd" d="M24.6711 21.4671C24.6821 21.4848 24.6943 21.5022 24.7078 21.5194C24.7867 21.5991 24.7352 21.6835 24.711 21.7608C24.6547 21.9413 24.5406 22.0929 24.4485 22.2585C24.5735 22.228 24.6227 22.1296 24.6602 22.0265C24.7313 21.8351 24.8 21.6421 24.8266 21.4343C24.8305 21.4194 24.8266 21.3976 24.8336 21.3827C24.8727 21.3022 24.8531 21.1608 24.9774 21.1726C25.118 21.1858 25.0555 21.3163 25.0508 21.3991C25.0284 21.7278 24.932 22.0473 24.7688 22.3335C24.7461 22.371 24.7227 22.4046 24.7196 22.4507C24.6781 22.489 24.6781 22.5366 24.6891 22.5874C24.6211 22.6718 24.5485 22.7007 24.4914 22.5858C24.4539 22.5093 24.4086 22.5304 24.3524 22.5452C24.2422 22.5741 24.1446 22.5593 24.0703 22.464C24.018 22.3999 23.943 22.3913 23.8672 22.3812C23.6703 22.3525 23.4807 22.2864 23.3086 22.1866C23.2274 22.146 23.1375 22.1022 23.1305 21.9905C23.143 21.9616 23.1602 21.9444 23.1938 21.9655C23.4781 22.1147 23.768 22.2421 24.0985 22.2687C24.2086 22.2749 24.2781 22.246 24.3399 22.1483C24.4742 21.9319 24.5774 21.7022 24.6711 21.4671Z" fill="#BF9200"/>
<path fill-rule="evenodd" clip-rule="evenodd" d="M23.1938 21.9609C23.1782 21.9714 23.162 21.9831 23.1454 21.9961C23.0657 22.0586 22.9938 22.0125 22.9204 21.9797C22.757 21.9053 22.5835 21.8558 22.4055 21.8328C22.1938 21.8039 22.0368 21.9039 21.9516 22.1031C21.9204 22.1828 21.8813 22.2641 21.8383 22.3375C21.7524 22.3164 21.8266 22.2242 21.7727 22.1898C21.8524 21.7992 22.0821 21.6352 22.4727 21.6891C22.7331 21.7245 22.9735 21.8151 23.1938 21.9609ZM27.2555 22C27.2412 21.9863 27.2252 21.9745 27.2079 21.9648C27.4506 21.8044 27.7149 21.7104 28.0008 21.6828C28.336 21.6492 28.5555 21.8328 28.6282 22.1938L28.5915 22.3141C28.4969 22.2797 28.4821 22.1836 28.45 22.107C28.3602 21.9039 28.1985 21.8039 27.9774 21.8383C27.8055 21.8637 27.6381 21.9129 27.4797 21.9844C27.4071 22.0164 27.3344 22.0617 27.2555 22ZM26.0915 22.1938L26.0547 22.2391C25.9633 22.2375 25.9266 22.1742 25.9016 22.1023C25.8184 21.9034 25.7733 21.6906 25.7688 21.475C25.7852 21.4016 25.8071 21.3273 25.8805 21.2852C25.9266 21.593 25.9657 21.9023 26.0915 22.1938Z" fill="#BF9200"/>
<path fill-rule="evenodd" clip-rule="evenodd" d="M25.8828 21.2889C25.8664 21.3514 25.8891 21.4256 25.843 21.485C25.7312 21.3545 25.7047 20.7256 25.8078 20.5889C25.8182 20.5602 25.8294 20.5316 25.8414 20.5029C25.918 20.7631 25.8859 21.0248 25.8828 21.292M23.2922 27.4139C23.3047 27.4389 23.3154 27.4646 23.3242 27.4912C23.4297 27.6342 23.3617 27.7396 23.2523 27.8365C23.1898 27.8428 23.2109 27.7803 23.1875 27.7553C23.2164 27.6396 23.2359 27.5193 23.2922 27.4139ZM27.0758 27.492C27.0857 27.466 27.0964 27.4402 27.1078 27.4146C27.1641 27.5201 27.1844 27.6404 27.2125 27.7568C27.1906 27.7811 27.2125 27.8436 27.1477 27.8381C27.0383 27.7412 26.9703 27.635 27.0758 27.492Z" fill="#BF9200"/>
<path fill-rule="evenodd" clip-rule="evenodd" d="M23.1884 27.7578C23.2024 27.7836 23.2134 27.8109 23.2274 27.8398C23.3001 27.9539 23.2931 28.0461 23.1493 28.0961C23.1368 28.0711 23.1282 28.0461 23.1157 28.0203L23.1884 27.7578ZM27.1759 27.8406C27.1868 27.8114 27.1991 27.7841 27.2126 27.7586C27.236 27.8461 27.2605 27.9338 27.286 28.0218C27.2728 28.0468 27.2642 28.0718 27.2517 28.0976C27.1079 28.0461 27.1009 27.9546 27.1759 27.8406ZM23.7392 24.3289C23.6931 24.2476 23.6845 24.1578 23.6665 24.0695C23.6095 23.9757 23.661 23.8851 23.672 23.7921C23.7079 23.9557 23.7428 24.12 23.7767 24.2851C23.7649 24.3 23.7649 24.3273 23.7392 24.3289ZM23.586 26.3328L23.6306 26.2211C23.6618 26.2367 23.6438 26.2757 23.6618 26.2961C23.6399 26.4117 23.6181 26.5328 23.5603 26.639C23.5485 26.5984 23.5399 26.5562 23.5267 26.5125C23.5563 26.4562 23.5165 26.3757 23.586 26.3328ZM24.1915 23.1562C24.1155 23.1671 24.0405 23.1796 23.9665 23.1937L23.8478 23.1586C23.929 23.1257 24.0157 23.125 24.1032 23.1211C24.1399 23.1132 24.1837 23.0828 24.1915 23.1562ZM22.8438 28.5093C22.9884 28.5398 23.1368 28.5554 23.2735 28.6078C23.4985 28.6898 23.6103 28.582 23.6899 28.3968C23.7368 28.3906 23.7782 28.3945 23.8157 28.4257C23.8665 28.4656 23.9415 28.4757 23.9587 28.5562C23.9782 28.6593 24.0556 28.682 24.1478 28.6711C24.3321 28.6961 24.5149 28.7218 24.7032 28.7015C24.7221 28.7055 24.7388 28.7164 24.7501 28.732V28.7961C24.5406 28.8232 24.3285 28.8238 24.1188 28.7976C23.9235 28.7726 23.7931 28.8296 23.7134 29.0445C23.6532 28.7093 23.4048 28.6859 23.1571 28.6445C23.0228 28.625 22.8876 28.6062 22.7642 28.5414L22.8438 28.5093ZM26.711 28.3992C26.6978 28.4765 26.8009 28.4781 26.8063 28.5421L26.7704 28.5828C26.7313 28.6164 26.6493 28.6132 26.6524 28.6867C26.6595 28.7445 26.7321 28.7328 26.7681 28.7632L26.8048 28.8031C26.7673 28.8765 26.7274 28.9492 26.6774 29.0484C26.6103 28.8398 26.4767 28.7664 26.286 28.8C26.1485 28.739 26.0063 28.7843 25.8665 28.7711C25.7931 28.7648 25.7173 28.782 25.6517 28.7359C25.7728 28.614 25.9298 28.6765 26.0688 28.6734C26.2368 28.6664 26.3993 28.7039 26.4767 28.4976C26.4907 28.4617 26.5509 28.4562 26.5853 28.4304C26.6196 28.3968 26.6642 28.3914 26.711 28.3992ZM26.7423 26.2961L26.6931 26.1304C26.661 26.1054 26.6251 26.089 26.6056 26.0515C26.4795 25.7604 26.3964 25.4525 26.3587 25.1375C26.3548 25.1007 26.3626 25.0656 26.3524 25.0273C26.4548 24.7453 26.5985 24.4757 26.6345 24.1718L26.6915 24.2086C26.754 24.3711 26.7251 24.5437 26.7321 24.7125C26.7509 25.2101 26.754 25.7101 26.822 26.2023C26.8134 26.2507 26.8056 26.2976 26.7423 26.2961ZM26.4368 23.1945C26.2923 23.1961 26.1595 23.1523 26.0228 23.1203C26.0282 23.0461 26.0751 23.0765 26.1118 23.0828C26.2587 23.1078 26.4087 23.1336 26.5532 23.1554C26.5149 23.17 26.4761 23.183 26.4368 23.1945Z" fill="#BF9200"/>
<path fill-rule="evenodd" clip-rule="evenodd" d="M26.7735 26.2213L26.818 26.333C26.8876 26.376 26.8477 26.4564 26.8766 26.5143C26.8652 26.5564 26.8545 26.5986 26.8446 26.6408C26.786 26.5322 26.7672 26.4143 26.7415 26.2963L26.7735 26.2213ZM25.8751 26.3361C25.768 26.5463 25.6454 26.7518 25.7251 27.0033C25.7446 27.0361 25.7235 27.0721 25.7305 27.1057C25.7922 27.3408 25.8587 27.5775 25.8712 27.8244C25.8553 27.8915 25.8574 27.9616 25.8774 28.0275C25.9719 28.0963 26.0024 28.1791 25.9102 28.2744L25.8774 28.3158C25.8149 28.3229 25.761 28.3588 25.6969 28.3518C25.5719 28.3361 25.4602 28.2893 25.4493 28.1502C25.4329 27.9572 25.4047 27.7635 25.3868 27.5705C25.3883 27.4525 25.3641 27.3377 25.361 27.2205C25.3469 27.1783 25.354 27.1307 25.3376 27.0924C25.3426 27.1047 25.346 27.1175 25.3477 27.1307C25.3477 27.1791 25.3641 27.2221 25.368 27.2721C25.3899 27.4361 25.3641 27.6088 25.4204 27.7705C25.4188 27.8939 25.4469 28.0158 25.4415 28.1416C25.4391 28.3072 25.3258 28.4338 25.1915 28.4268C25.0649 28.4221 24.9602 28.2986 24.9587 28.1416C24.9563 28.0072 24.9766 27.8705 24.9876 27.7369C25.0305 27.5846 25.0172 27.4275 25.0337 27.2721C25.0399 27.1893 25.0766 27.1096 25.068 27.026C25.0735 27.1033 25.0508 27.1752 25.0344 27.2486C25.043 27.3557 25.0094 27.4611 25.0141 27.5674C24.9891 27.7549 24.9696 27.9434 24.9555 28.133C24.9454 28.2689 24.8274 28.3549 24.6852 28.3525C24.6282 28.351 24.5797 28.3205 24.5243 28.3166L24.4907 28.2752C24.4008 28.1799 24.4282 28.0979 24.5227 28.0283C24.5376 27.9643 24.5508 27.8955 24.5665 27.8314C24.5524 27.6643 24.5454 27.4986 24.6118 27.3385C24.6284 27.2916 24.6115 27.2687 24.561 27.2697L24.529 27.2291C24.592 27.1301 24.6555 27.0322 24.7196 26.9354C24.7506 26.8634 24.7678 26.7863 24.7704 26.708C24.7727 26.5752 24.7876 26.4432 24.8391 26.3166C24.8602 26.2706 24.8971 26.2338 24.943 26.2127C25.2008 26.4002 25.2008 26.4002 25.4594 26.2088C25.5023 26.231 25.5372 26.266 25.5594 26.3088C25.5967 26.403 25.6196 26.5023 25.6274 26.6033C25.6286 26.4619 25.6725 26.3241 25.7532 26.208C25.7624 26.1969 25.7737 26.1878 25.7864 26.1811C25.7991 26.1744 25.8131 26.1703 25.8274 26.1689C25.8951 26.1794 25.9305 26.2187 25.9337 26.2869C25.9251 26.3174 25.911 26.3416 25.8751 26.3361Z" fill="#BF9200"/>
<path fill-rule="evenodd" clip-rule="evenodd" d="M25.8673 27.3115L25.6837 27.0764C25.6967 27.0508 25.7102 27.0264 25.7243 27.0029C25.7985 27.0842 25.854 27.174 25.9032 27.2709L25.8673 27.3115ZM24.8993 22.3326C25.0501 22.1654 25.0501 21.9475 25.0837 21.7428C25.1173 21.5482 25.1298 21.3521 25.1508 21.1475C25.2298 21.1748 25.2087 21.2217 25.2063 21.2576C25.1844 21.574 25.154 21.8904 25.0626 22.1959C25.0493 22.2436 25.0298 22.2896 25.0493 22.3404L25.0126 22.3787H24.9407C24.8993 22.3904 24.8891 22.3717 24.8993 22.3326ZM25.3469 21.9529C25.2938 21.6998 25.3219 21.4467 25.3102 21.1717C25.4126 21.2271 25.3774 21.2881 25.379 21.3373C25.3149 21.5396 25.368 21.749 25.3469 21.9529Z" fill="#BF9200"/>
<path fill-rule="evenodd" clip-rule="evenodd" d="M24.8992 22.333L24.9422 22.3791C24.8641 22.4572 24.7774 22.5182 24.6758 22.5596C24.6274 22.526 24.6305 22.4908 24.6758 22.4572C24.7696 22.451 24.8266 22.3775 24.8992 22.333ZM24.1914 23.1557C24.1623 23.1447 24.1328 23.133 24.1031 23.1205C24.3271 23.057 24.5516 22.9945 24.7766 22.933C24.8149 22.9174 24.8266 22.9314 24.8266 22.9689C24.623 23.056 24.4098 23.1186 24.1914 23.1557ZM25.7094 23.0197C25.5623 22.9885 25.4248 22.9223 25.3086 22.8268C25.3125 22.8033 25.3321 22.8018 25.3492 22.7947L25.7594 22.9783C25.7633 23.0166 25.7532 23.0369 25.7094 23.0197Z" fill="#BF9200"/>
<path fill-rule="evenodd" clip-rule="evenodd" d="M24.8266 22.968L24.7766 22.932L25.1274 22.7539C25.1358 22.7568 25.1435 22.7614 25.1499 22.7675C25.1564 22.7735 25.1615 22.7809 25.1649 22.7891C25.068 22.8828 24.9469 22.9273 24.8266 22.968ZM25.7094 23.0195L25.7594 22.9789C25.8758 23.0133 25.9954 23.0492 26.111 23.082C26.0821 23.0961 26.0516 23.1063 26.0219 23.1195C25.9157 23.0961 25.8055 23.0758 25.7094 23.0195Z" fill="#BF9200"/>
<path fill-rule="evenodd" clip-rule="evenodd" d="M25.1641 22.7893C25.15 22.7776 25.1406 22.7659 25.1266 22.7542C25.2289 22.612 25.2781 22.7495 25.3484 22.7948L25.3078 22.8268C25.2617 22.8136 25.2266 22.7503 25.1641 22.7893ZM25.6859 25.8362C25.7219 25.7182 25.7297 25.6003 25.7297 25.4768C25.7266 24.7721 25.7297 24.0698 25.7266 23.3651C25.7266 23.2956 25.7602 23.2167 25.6859 23.1565C25.6755 23.1524 25.6721 23.1469 25.6758 23.1401C25.6789 23.1333 25.6823 23.13 25.6859 23.13C25.9828 23.1893 26.2719 23.2893 26.5805 23.2893C26.6617 23.2909 26.6656 23.3432 26.6633 23.4034C26.6242 24.3307 26.3211 25.1503 25.6859 25.8362ZM24.7109 23.1557C24.6227 23.1721 24.6367 23.244 24.6367 23.3011C24.6367 24.062 24.6406 24.8245 24.6336 25.5854C24.6336 25.6628 24.6875 25.7229 24.6797 25.7979C24.1805 25.2573 23.9055 24.6104 23.7836 23.8956C23.7555 23.7315 23.7516 23.5628 23.7383 23.3948C23.7297 23.3182 23.7578 23.2846 23.8391 23.2846C24.1266 23.2784 24.4008 23.1917 24.6758 23.1221C24.7148 23.1034 24.7187 23.1253 24.7109 23.1557ZM23.6641 26.2956C23.655 26.2701 23.6445 26.245 23.6328 26.2206C23.7578 25.5956 23.7445 24.9612 23.7422 24.3276L23.7797 24.2846L24.0508 25.0221C24.0711 25.0612 24.0492 25.0964 24.0547 25.1339C24.0094 25.4495 23.9297 25.7565 23.8016 26.0511C23.7844 26.0886 23.7469 26.105 23.7164 26.1284L23.6641 26.2956ZM25.875 26.3362L25.9094 26.2956C26.0609 26.2464 26.0117 26.1229 26.0117 26.0198C26.0086 25.9128 25.9281 25.9167 25.8531 25.9112C25.8398 25.9079 25.8278 25.9004 25.8192 25.8896C25.8106 25.8789 25.8058 25.8656 25.8055 25.8518C26.0016 25.5901 26.1867 25.3159 26.3469 25.0268L26.3945 25.0995C26.3415 25.2962 26.3065 25.4973 26.2898 25.7003C26.2703 25.969 26.393 26.0753 26.6477 26.0268C26.6617 26.0591 26.6753 26.0935 26.6883 26.13C26.55 26.3581 26.55 26.3581 26.3445 26.1581C26.3008 26.1159 26.2539 26.0745 26.1852 26.0104L26.1008 26.6471L25.875 26.3362Z" fill="#BF9200"/>
<path fill-rule="evenodd" clip-rule="evenodd" d="M23.7125 26.1278L23.7516 26.027C23.925 26.0989 24.0289 26.0059 24.118 25.8763C24.1594 25.8239 24.1782 25.7528 24.2422 25.7208C24.2899 25.7122 24.3414 25.7145 24.3789 25.6716C24.3894 25.6644 24.4016 25.6602 24.4142 25.6593C24.4269 25.6585 24.4395 25.6611 24.4508 25.6669C24.4891 25.7145 24.543 25.7497 24.5555 25.8169C24.5549 25.8337 24.5488 25.8499 24.5383 25.863C24.4836 25.9028 24.3985 25.9044 24.3727 25.9833C24.3289 26.0294 24.3274 26.1169 24.2375 26.1114C24.2172 26.0864 24.2477 25.9817 24.1617 26.0599C24.0949 26.1148 24.0327 26.1751 23.9758 26.2403C23.8797 26.3528 23.8063 26.3739 23.7594 26.2028C23.7508 26.1755 23.7297 26.1528 23.7125 26.1278Z" fill="#BF9200"/>
<path fill-rule="evenodd" clip-rule="evenodd" d="M24.2579 25.7391C24.2371 25.8006 24.2173 25.8628 24.1985 25.9258C24.1399 25.9032 24.1204 25.8508 24.1165 25.793C24.094 25.5609 24.0567 25.3305 24.0048 25.1032C24.018 25.0751 24.0337 25.0501 24.0469 25.0212C24.1329 25.1719 24.2212 25.3188 24.3071 25.4696C24.3164 25.4829 24.3213 25.4987 24.3212 25.5149C24.3009 25.5688 24.3032 25.6251 24.3048 25.6821C24.2985 25.7087 24.2868 25.729 24.2579 25.7391ZM24.529 25.8282C24.5368 25.8212 24.5454 25.8188 24.554 25.8141C24.6844 25.9469 24.8141 26.0766 24.9415 26.2102C24.9448 26.2545 24.9336 26.2987 24.9094 26.336C24.8141 26.2977 24.754 26.1837 24.6305 26.2102C24.6062 26.2016 24.5861 26.184 24.5743 26.161C24.5977 26.0446 24.4579 25.9501 24.529 25.8282ZM25.8048 25.8516C25.8147 25.8575 25.8233 25.8655 25.8298 25.8751C25.8782 25.9805 25.8516 26.0837 25.8266 26.1876L25.7907 26.229C25.6696 26.1977 25.5829 26.2805 25.4899 26.3376C25.4594 26.2977 25.4579 26.2524 25.4555 26.2079C25.5712 26.0899 25.6907 25.9712 25.8048 25.8516ZM24.7149 25.8516C24.8774 25.8922 24.9634 26.0126 25.0344 26.1516C24.9048 26.0782 24.8102 25.9649 24.7149 25.8516ZM25.3055 22.9727C25.193 22.8899 25.1134 23.0305 25.0102 23.0133C25.104 22.9618 25.1735 22.7462 25.3055 22.9727ZM25.0704 26.1485C25.168 26.2532 25.2626 26.1922 25.3563 26.1399C25.3298 26.2219 25.2735 26.2876 25.193 26.2876C25.1337 26.2852 25.0735 26.2282 25.0704 26.1485Z" fill="#BF9200"/>
<path fill-rule="evenodd" clip-rule="evenodd" d="M24.2969 25.5318C24.299 25.511 24.3019 25.4907 24.3055 25.4709C24.3532 25.5365 24.3985 25.6014 24.4485 25.667L24.411 25.7092C24.3165 25.7154 24.3024 25.6397 24.2766 25.5787C24.2779 25.5613 24.2851 25.5447 24.2969 25.5318ZM25.461 26.0397C25.5047 25.9678 25.5305 25.8717 25.6469 25.892C25.5946 25.9553 25.5493 26.0256 25.461 26.0397ZM25.686 23.1271V23.1545C25.6196 23.135 25.5391 23.1381 25.5047 23.0537C25.5715 23.0582 25.635 23.0839 25.686 23.1271ZM24.711 23.1561L24.6758 23.124C24.7305 23.0764 24.793 23.0537 24.8625 23.0936C24.8227 23.1404 24.7641 23.1443 24.711 23.1561ZM24.6016 26.1451L24.6368 26.1865C24.7399 26.2967 24.7477 26.4396 24.7719 26.5756C24.7852 26.6326 24.7797 26.6928 24.8227 26.7428C24.8211 26.8256 24.7641 26.8764 24.718 26.9357C24.675 26.7287 24.643 26.5193 24.525 26.3365C24.4899 26.3467 24.4743 26.3232 24.4633 26.292C24.4633 26.199 24.4946 26.1373 24.6016 26.1451Z" fill="#BF9200"/>
<path fill-rule="evenodd" clip-rule="evenodd" d="M24.4883 26.2916L24.5258 26.3361C24.4657 26.4252 24.4008 26.5885 24.3211 26.5721C24.2086 26.5447 24.2821 26.3768 24.2516 26.276C24.236 26.2229 24.2415 26.165 24.236 26.1111L24.2985 25.9268C24.3899 25.9666 24.3813 26.0518 24.3813 26.1307C24.3813 26.2096 24.4032 26.2682 24.4883 26.2916ZM26.5704 29.515C26.5165 29.526 26.4516 29.551 26.4422 29.4627C26.4368 29.3814 26.4891 29.3354 26.5485 29.2986C26.6571 29.233 26.643 29.3783 26.7172 29.4127C26.729 29.2822 26.8743 29.2197 26.8313 29.0775C26.8282 29.0689 26.8594 29.0424 26.8805 29.033C26.886 29.0299 26.9165 29.0486 26.918 29.0588C26.9266 29.1994 27.0946 29.1854 27.136 29.2916C27.1454 29.3189 27.1883 29.3291 27.1961 29.3103C27.2735 29.1643 27.3891 29.2252 27.5094 29.2604C27.4891 29.158 27.4704 29.076 27.454 28.9947C27.4376 28.9135 27.4102 28.8439 27.3055 28.8861C27.261 28.9041 27.2282 28.8846 27.2235 28.8447C27.2118 28.7932 27.2657 28.7955 27.2977 28.7861C27.4493 28.7471 27.5133 28.8268 27.543 28.9635C27.5649 29.0877 27.5407 29.265 27.768 29.1783C27.7797 29.1729 27.8133 29.2002 27.8227 29.2189C27.8383 29.2525 27.7985 29.2682 27.7836 29.2666C27.5821 29.2541 27.454 29.4955 27.236 29.4221C27.1985 29.4119 27.1821 29.4361 27.1696 29.4697C27.1157 29.601 27.0516 29.6182 26.9352 29.5189C26.829 29.4299 26.7297 29.4814 26.6579 29.5846C26.5868 29.608 26.6141 29.5182 26.5704 29.515ZM24.2969 29.7111C24.4469 29.6588 24.5438 29.5955 24.4602 29.4455C24.4336 29.3971 24.4508 29.3525 24.4985 29.3385C24.5422 29.3221 24.5508 29.3705 24.5665 29.4041C24.5821 29.4377 24.593 29.4807 24.6407 29.4666C24.6899 29.4549 24.6727 29.408 24.6704 29.3736C24.6665 29.3314 24.6477 29.2807 24.7001 29.2572C24.761 29.2322 24.761 29.3018 24.7907 29.3252C24.8805 29.3861 24.9844 29.3479 25.0805 29.3572C25.1665 29.3713 25.2696 29.3478 25.2376 29.4947C25.3188 29.4838 25.3133 29.415 25.3571 29.3908C25.4071 29.3643 25.4711 29.3221 25.5086 29.3643C25.543 29.4049 25.5399 29.4807 25.5399 29.5424C25.5415 29.6111 25.4829 29.6111 25.4329 29.6135C25.343 29.615 25.2524 29.5971 25.1922 29.7049C25.1633 29.7549 25.0993 29.7518 25.0454 29.7072C24.8555 29.558 24.6969 29.5525 24.5149 29.6877C24.4626 29.7283 24.4055 29.7377 24.2969 29.7111ZM24.0641 29.5744C24.0985 29.3846 24.1321 29.2393 24.1227 29.0885C24.1196 29.0361 24.1376 28.9963 24.1836 28.9963C24.2618 28.9963 24.2251 29.0588 24.2196 29.0924C24.2003 29.2455 24.1777 29.3989 24.1516 29.5525C24.1415 29.6049 24.1024 29.64 24.0524 29.6557C24.0032 29.6697 23.9711 29.6416 23.9415 29.6057C23.8243 29.4463 23.6461 29.4018 23.4774 29.5018C23.4211 29.5354 23.368 29.5611 23.2844 29.5322C23.3985 29.4697 23.4813 29.3986 23.4282 29.2604C23.418 29.2346 23.4399 29.1924 23.4727 29.1869C23.5126 29.1783 23.5188 29.2189 23.5227 29.2494C23.5313 29.3049 23.5391 29.3611 23.6086 29.3744C23.6422 29.3807 23.6719 29.3807 23.6946 29.3564C23.7133 29.333 23.686 29.315 23.6719 29.2955C23.568 29.1338 23.7829 29.1807 23.8149 29.0939C23.8407 29.0299 23.9243 29.0924 23.9258 29.1478C23.929 29.2189 24.1399 29.2916 23.9321 29.3635C23.968 29.4236 24.0055 29.4807 24.0641 29.5744ZM22.711 28.8033C22.7961 28.7479 22.8915 28.7338 22.9516 28.7658C23.0001 28.7932 22.9407 28.876 22.9258 28.9354C22.9227 28.9471 22.9172 28.9588 22.9165 28.9721C22.9047 29.0486 22.8102 29.158 22.9001 29.1994C23.0336 29.2557 22.9633 29.0885 23.0141 29.0455C23.036 29.0299 23.0657 29.0244 23.1071 29.0072C23.1032 29.0486 23.1047 29.0721 23.1016 29.0955C23.0876 29.1611 23.0204 29.2439 23.1422 29.2713C23.2563 29.2986 23.236 29.2252 23.236 29.1525C23.2368 29.0979 23.3032 29.0916 23.3516 29.0893C23.3555 29.0979 23.3618 29.1041 23.3602 29.1096C23.2805 29.4393 23.3321 29.4072 23.0071 29.3291C22.9172 29.3096 22.829 29.2814 22.7399 29.2541C22.6938 29.2432 22.6282 29.2494 22.6227 29.1838C22.6196 29.115 22.6657 29.0713 22.7297 29.0447C22.7649 29.0359 22.7975 29.0191 22.8251 28.9955C22.9024 28.9064 22.8618 28.8283 22.711 28.8033ZM25.7532 29.6166C25.6032 29.5775 25.6633 29.4697 25.7157 29.4236C25.818 29.34 25.8196 29.2494 25.7782 29.1447C25.7555 29.0861 25.7805 29.0557 25.8243 29.0486C25.8782 29.0424 25.8688 29.0963 25.8735 29.1299C25.886 29.2236 25.8938 29.3143 25.9063 29.4064C25.9102 29.4564 25.9118 29.5166 25.9868 29.4963C26.0415 29.4814 26.0532 29.4439 26.0297 29.3955C26.0118 29.3525 25.9899 29.3064 26.0501 29.2908C26.1313 29.2713 26.1126 29.3463 26.1266 29.3877C26.1758 29.5479 26.0993 29.601 25.9501 29.5916C25.8922 29.6627 25.818 29.6057 25.7532 29.6166ZM26.1422 29.7111C26.2586 29.5971 26.3407 29.5127 26.2172 29.3979C26.1813 29.3682 26.2133 29.3104 26.2547 29.2916C26.2985 29.2752 26.3094 29.3252 26.3297 29.3557C26.4329 29.5252 26.3922 29.6377 26.1422 29.7111ZM24.3126 29.0002C24.3696 29.0307 24.4204 29.0463 24.3954 29.1104C24.3493 29.2213 24.3493 29.3393 24.3391 29.4533C24.336 29.4932 24.3391 29.5533 24.2766 29.5408C24.2126 29.5291 24.2446 29.4736 24.2501 29.4361C24.2568 29.3617 24.2657 29.2885 24.2766 29.2166C24.2876 29.1494 24.2969 29.083 24.3126 29.0002Z" fill="#BF9200"/>
<path fill-rule="evenodd" clip-rule="evenodd" d="M25.9453 29.6285C25.9828 29.6426 26.0211 29.673 25.993 29.709C25.9453 29.7629 25.8703 29.7191 25.8078 29.7285C25.7672 29.7371 25.7602 29.6848 25.7914 29.6488C25.8375 29.6145 25.8922 29.6238 25.9453 29.6285ZM26.5703 29.5152C26.5993 29.5387 26.625 29.5629 26.6563 29.584C26.6219 29.6629 26.5618 29.6707 26.4852 29.6574C26.5024 29.5988 26.6118 29.6012 26.5703 29.5152ZM25.7071 29.1332C25.6985 29.1684 25.6789 29.1762 25.6555 29.1684C25.6414 29.1645 25.625 29.1441 25.625 29.1363C25.6266 29.1059 25.6493 29.0934 25.6774 29.1027C25.6899 29.1074 25.6993 29.1223 25.7071 29.1332ZM25.7172 29.2809C25.7024 29.2988 25.686 29.3199 25.661 29.3059C25.6391 29.2918 25.6211 29.273 25.6368 29.2473C25.6493 29.2238 25.6672 29.2059 25.693 29.2238C25.7141 29.2332 25.7297 29.2527 25.7172 29.2809ZM27.7 29.402C27.6891 29.4363 27.6664 29.4434 27.6407 29.441C27.6172 29.4379 27.5883 29.427 27.6047 29.3949C27.6133 29.3785 27.6383 29.3645 27.6586 29.3613C27.6868 29.3582 27.6977 29.3809 27.7 29.402ZM22.7891 29.3566C22.775 29.3848 22.7571 29.402 22.7297 29.3887C22.7172 29.3809 22.7039 29.3598 22.7078 29.3457C22.7133 29.323 22.7368 29.309 22.7618 29.323C22.775 29.3277 22.7821 29.3465 22.7891 29.3566ZM23.1547 29.4598C23.1368 29.4715 23.1243 29.4879 23.1125 29.4895C23.0828 29.4957 23.0657 29.4738 23.075 29.4496C23.0797 29.4371 23.1016 29.4262 23.1157 29.4262C23.1258 29.427 23.1368 29.4457 23.1547 29.4598ZM23.2102 28.4301C23.2635 28.4166 23.3194 28.4168 23.3726 28.4306C23.4259 28.4444 23.4748 28.4714 23.5149 28.509C23.4024 28.527 23.3047 28.4879 23.2102 28.4301ZM22.7657 28.2973C22.8152 28.2825 22.868 28.2826 22.9176 28.2974C22.9671 28.3123 23.0113 28.3413 23.0446 28.3809C22.9469 28.3988 22.8641 28.3613 22.7657 28.2973ZM26.8868 28.498C26.9735 28.4301 27.0789 28.4145 27.1844 28.4098L27.1977 28.4559L26.9024 28.5426L26.8868 28.498ZM27.3328 28.391C27.4203 28.2996 27.5086 28.2793 27.6352 28.2871C27.5956 28.3256 27.5479 28.3549 27.4956 28.3729C27.4434 28.3909 27.3878 28.397 27.3328 28.391ZM24.1172 28.7324H24.7149C24.5193 28.7863 24.3128 28.7863 24.1172 28.7324ZM25.0469 27.2324L25.0164 27.2379L25.0641 26.9043C25.0899 27.0512 25.1024 27.1449 25.0469 27.2324ZM25.3188 27.1184V26.948C25.3641 26.9941 25.3453 27.0395 25.3532 27.0816C25.3711 27.1207 25.35 27.1246 25.3188 27.1184Z" fill="#BF9200"/>
<path fill-rule="evenodd" clip-rule="evenodd" d="M25.3188 27.1178L25.3531 27.0811C25.3668 27.0975 25.3763 27.1171 25.3808 27.138C25.3853 27.159 25.3847 27.1807 25.3789 27.2014C25.3685 27.2129 25.3573 27.2236 25.3453 27.2334C25.3149 27.2014 25.3125 27.1592 25.3188 27.1178ZM24.2891 28.5998C24.1792 28.624 24.0656 28.6264 23.9547 28.6068C24.0719 28.5154 24.168 28.5123 24.2891 28.5998ZM24.6883 28.6186C24.6086 28.6561 24.5227 28.6506 24.4321 28.6561C24.4453 28.5834 24.4906 28.5873 24.5321 28.5873C24.5797 28.6115 24.643 28.5693 24.6883 28.6186Z" fill="#BF9200"/>
<path fill-rule="evenodd" clip-rule="evenodd" d="M24.6884 28.6186C24.6344 28.61 24.5774 28.6186 24.5321 28.5874C24.5946 28.5827 24.6555 28.5801 24.7149 28.5796C24.7313 28.5796 24.7516 28.596 24.7227 28.6116C24.7141 28.6186 24.7001 28.6147 24.6884 28.6186ZM26.4188 28.5882C26.3209 28.6224 26.2152 28.6281 26.1141 28.6046C26.2227 28.5014 26.3188 28.5421 26.4188 28.5882ZM25.8751 28.5874C25.9126 28.5796 25.9438 28.5952 25.9884 28.6405C25.8973 28.6605 25.8024 28.6529 25.7157 28.6186C25.7618 28.5694 25.8243 28.6116 25.8751 28.5874Z" fill="#BF9200"/>
<path fill-rule="evenodd" clip-rule="evenodd" d="M25.875 28.5878C25.8258 28.619 25.7696 28.6104 25.7157 28.619C25.7 28.6104 25.6321 28.6151 25.6852 28.5878C25.7329 28.5589 25.8086 28.5839 25.875 28.5878ZM24.2969 25.5565C24.2563 25.587 24.2735 25.6323 24.2594 25.6698C24.2329 25.6198 24.2149 25.5674 24.2399 25.5159C24.25 25.4909 24.2789 25.519 24.2969 25.5315V25.5565ZM23.8274 29.2034C23.843 29.2206 23.8594 29.2307 23.8625 29.2448C23.8789 29.2831 23.8461 29.2831 23.8243 29.2799C23.8118 29.2799 23.7922 29.2589 23.7938 29.2479C23.7954 29.2339 23.8118 29.2206 23.8274 29.2034Z" fill="#BF9200"/>
</svg>
