<svg width="21" height="20" viewBox="0 0 21 20" fill="none" xmlns="http://www.w3.org/2000/svg">
<g clip-path="url(#clip0_1727_7728)">
<path d="M20.666 10C20.666 14.9914 17.009 19.1285 12.2285 19.8785V12.8906H14.5586L15.002 10H12.2285V8.12422C12.2285 7.3332 12.616 6.5625 13.8582 6.5625H15.1191V4.10156C15.1191 4.10156 13.9746 3.90625 12.8805 3.90625C10.5965 3.90625 9.10352 5.29063 9.10352 7.79688V10H6.56445V12.8906H9.10352V19.8785C4.32305 19.1285 0.666016 14.9914 0.666016 10C0.666016 4.47734 5.14336 0 10.666 0C16.1887 0 20.666 4.47734 20.666 10Z" fill="#1877F2"/>
<path d="M14.5586 12.8906L15.002 10H12.2285V8.12418C12.2285 7.33336 12.6159 6.5625 13.8582 6.5625H15.1191V4.10156C15.1191 4.10156 13.9748 3.90625 12.8807 3.90625C10.5964 3.90625 9.10352 5.29063 9.10352 7.79688V10H6.56445V12.8906H9.10352V19.8785C9.61266 19.9584 10.1345 20 10.666 20C11.1976 20 11.7194 19.9584 12.2285 19.8785V12.8906H14.5586Z" fill="white"/>
</g>
<defs>
<clipPath id="clip0_1727_7728">
<rect width="20" height="20" fill="white" transform="translate(0.666016)"/>
</clipPath>
</defs>
</svg>
