<svg width="20" height="20" viewBox="0 0 20 20" fill="none" xmlns="http://www.w3.org/2000/svg">
<path d="M1.01019 0L0 1.0095L1.77956 4.08488L2.93362 3.91573L9.97799 10.9561L9.37711 11.5327C9.06936 11.8402 9.06936 12.3062 9.37711 12.6137L9.68948 12.9266C9.99723 13.2342 10.4681 13.2342 10.6989 12.9266L11.6129 13.8392C11.536 14.3005 11.6129 14.8487 11.9976 15.2332L16.1568 19.3657C17.0031 20.2114 18.388 20.2114 19.2343 19.3657C20.2345 18.4431 20.2253 17.0638 19.379 16.218L15.2436 12.0609C14.8589 11.6765 14.3103 11.5227 13.8487 11.6765L12.8385 10.7638C13.0693 10.4563 13.0693 9.98578 12.8385 9.75435L12.55 9.4668C12.4801 9.39392 12.3961 9.33592 12.3031 9.2963C12.2102 9.25668 12.1102 9.23626 12.0091 9.23626C11.9081 9.23626 11.8081 9.25668 11.7151 9.2963C11.6222 9.33592 11.5382 9.39392 11.4683 9.4668L10.9636 9.97117L3.91918 2.93161L4.08691 1.77834L1.01019 0ZM16.0129 0.0238342C14.495 -0.102257 12.4823 0.903395 11.5406 1.77757C10.3819 2.93546 10.5712 4.44931 11.4921 5.91089L9.85797 7.54469L11.012 8.84173C11.6275 8.30354 12.5354 8.30354 13.1509 8.84173L13.464 9.15388L13.5363 9.22616L14.2095 8.55342C15.6006 9.3707 17.0485 9.48833 18.1526 8.38504C19.2297 7.38554 20.3976 4.92062 19.859 3.45981L17.6956 5.69408C17.3878 6.00161 16.9216 6.00161 16.6138 5.69408L14.3773 3.45981C14.3043 3.38991 14.2463 3.306 14.2066 3.21312C14.167 3.12023 14.1466 3.02029 14.1466 2.91931C14.1466 2.81833 14.167 2.71839 14.2066 2.6255C14.2463 2.53262 14.3043 2.4487 14.3773 2.37881L16.6146 0.144543C16.4223 0.0768846 16.2299 0.0422865 16.0129 0.0238342ZM7.54985 9.61058L4.76011 12.3976C4.46028 12.3314 4.15393 12.2991 3.84686 12.3015C1.69262 12.3015 0 13.993 0 16.1458C0 18.2985 1.69262 19.99 3.84686 19.99C6.00111 19.99 7.69372 18.2985 7.69372 16.1458C7.69372 15.7514 7.63141 15.3723 7.52523 15.0163L9.16015 13.3825L8.9201 13.0704C8.30461 12.4553 8.30922 11.5235 8.84778 10.9076L7.54985 9.61058ZM13.5125 13.1188C13.6087 13.1188 13.6994 13.1373 13.7764 13.2149L18.3211 17.7557C18.4749 17.9095 18.4749 18.154 18.3211 18.3078C18.1672 18.4615 17.921 18.4615 17.7671 18.3078L13.224 13.767C13.0701 13.6132 13.0701 13.3687 13.224 13.2149C13.3009 13.138 13.4163 13.1188 13.5125 13.1188ZM4.37619 14.1506L5.84261 15.6168L5.31329 17.6104L3.3183 18.1394L1.85111 16.6732L2.38044 14.6796L4.37619 14.1506Z" fill="#5C6368"/>
</svg>
