<svg width="24" height="20" viewBox="0 0 24 20" fill="none" xmlns="http://www.w3.org/2000/svg">
<path d="M23.1155 17.9992H15V19.9991H23.1985C23.3792 20.0077 23.5573 19.9541 23.7032 19.8472C23.8491 19.7402 23.9538 19.5865 24 19.4116V18.9266C24 18.9266 23.994 17.9992 23.1155 17.9992ZM21.993 17.6042C22.5257 17.6034 23.0364 17.3912 23.4127 17.0141C23.789 16.637 24.0003 16.126 24 15.5933C24 14.4798 23.1 13.5819 21.993 13.5819C21.7294 13.5823 21.4684 13.6348 21.2251 13.7361C20.9817 13.8375 20.7607 13.9858 20.5747 14.1726C20.3887 14.3594 20.2413 14.581 20.141 14.8248C20.0406 15.0685 19.9893 15.3297 19.99 15.5933C19.99 16.7027 20.8875 17.6042 21.993 17.6042ZM17.766 17.4992C18.819 17.4992 19.666 16.7572 19.666 15.7058C19.6655 14.6563 18.8155 14.1059 17.7705 14.0979L15 14.4488V17.4992H17.766ZM8.7615 4.4663C9.991 4.4663 10.9855 3.46634 10.9855 2.2329C10.9855 0.999455 9.991 0 8.7615 0C7.533 0 6.537 0.999455 6.537 2.2329C6.537 3.46634 7.533 4.4663 8.7615 4.4663ZM6.4905 11.694L6.4705 11.665L5.4625 9.31808L5.461 13.9994H8.4735L9.1315 13.2994L7.347 12.6124C6.924 12.4534 6.6235 12.0935 6.4905 11.694ZM7.129 11.4835C7.2265 11.7025 7.407 11.88 7.634 11.9615L11.0725 13.2359C11.1773 13.2819 11.2901 13.3067 11.4045 13.309C11.5189 13.3113 11.6326 13.291 11.7391 13.2493C11.8457 13.2076 11.943 13.1453 12.0254 13.066C12.1078 12.9866 12.1738 12.8918 12.2195 12.7869C12.3123 12.5742 12.3173 12.3334 12.2334 12.117C12.1495 11.9006 11.9835 11.7261 11.7715 11.6315L8.599 10.4335L7.619 8.08314L8.258 7.84515L9.0885 9.85906L11.5 10.753V8.29213L12.78 9.05359L13.418 12.2674C13.4547 12.3762 13.5127 12.4766 13.5884 12.5628C13.6642 12.649 13.7563 12.7193 13.8595 12.7697C13.9626 12.8201 14.0747 12.8496 14.1893 12.8564C14.3038 12.8632 14.4186 12.8472 14.527 12.8094C14.7452 12.7318 14.9241 12.5712 15.0247 12.3626C15.1253 12.154 15.1396 11.9141 15.0645 11.695L14.3495 8.59961C14.3025 8.42832 14.2045 8.27538 14.0685 8.16113C13.702 7.75515 11.8485 5.68274 11.7165 5.54425C11.523 5.35026 11.0805 4.99978 10.2445 4.99978H7.2445C5.5395 4.99978 5.2115 6.7397 5.56 7.62466L7.129 11.4835ZM14.5 14.4993H0.9835C0.4915 14.4993 0 14.7768 0 15.3873V19.9991H14.5V14.4993Z" fill="#5C6368"/>
</svg>
