<svg width="20" height="20" viewBox="0 0 20 20" fill="none" xmlns="http://www.w3.org/2000/svg">
<path d="M15.7555 14.9413C14.3294 13.5153 12.3953 12.7143 10.3786 12.7143C8.36196 12.7143 6.42788 13.5153 5.0018 14.9413M16.2087 1.81503C14.8114 1.00834 13.1509 0.789726 11.5925 1.20729C10.0341 1.62485 8.70533 2.64438 7.89858 4.0416L18.4353 10.1251C19.2419 8.72787 19.4606 7.06739 19.043 5.50895C18.6254 3.95052 17.6059 2.62178 16.2087 1.81503Z" stroke="#5C6368" stroke-linecap="round" stroke-linejoin="round"/>
<path d="M14.9231 8.09764C16.6041 5.18768 17.179 2.37506 16.2087 1.81538C15.2384 1.25569 13.0909 3.15984 11.4108 6.0698M13.1669 7.08372L10.1252 12.3521M0.999878 17.4764C1.3155 17.3195 1.66146 17.233 2.0138 17.2229C2.40872 17.2147 2.79971 17.3027 3.15302 17.4793C3.50632 17.656 3.81131 17.916 4.04164 18.2369C4.27198 18.5578 4.57697 18.8178 4.93027 18.9944C5.28357 19.1711 5.67457 19.2591 6.06949 19.2508C6.46441 19.2591 6.8554 19.1711 7.20871 18.9944C7.56201 18.8178 7.867 18.5578 8.09733 18.2369C8.32767 17.916 8.63265 17.656 8.98596 17.4793C9.33926 17.3027 9.73026 17.2147 10.1252 17.2229C10.5201 17.2147 10.9111 17.3027 11.2644 17.4793C11.6177 17.656 11.9227 17.916 12.153 18.2369C12.3834 18.5578 12.6883 18.8178 13.0416 18.9944C13.3949 19.1711 13.7859 19.2591 14.1809 19.2508C14.5758 19.2591 14.9668 19.1711 15.3201 18.9944C15.6734 18.8178 15.9784 18.5578 16.2087 18.2369C16.439 17.916 16.744 17.656 17.0973 17.4793C17.4506 17.3027 17.8416 17.2147 18.2366 17.2229C18.5889 17.233 18.9348 17.3195 19.2505 17.4764" stroke="#5C6368" stroke-linecap="round" stroke-linejoin="round"/>
</svg>
