<svg width="20" height="20" viewBox="0 0 20 20" fill="none" xmlns="http://www.w3.org/2000/svg">
<path d="M7.26087 12.3478V8.04348H6.73183C6.21129 8.04343 5.70549 8.21638 5.29396 8.53512C4.88242 8.85387 4.58848 9.30034 4.45835 9.80435L3.34783 14.1087V14.3043H9.21739V15.4438C9.21739 16.4143 9.21739 17.0435 9.65096 18.0303C9.65096 18.0303 10.1362 19 10.7826 19M7.65217 19H3.34783C2.72514 19 2.12797 18.7526 1.68766 18.3123C1.24736 17.872 1 17.2749 1 16.6522V3.34783C1 2.72514 1.24736 2.12797 1.68766 1.68766C2.12797 1.24736 2.72514 1 3.34783 1H16.6522C17.2749 1 17.872 1.24736 18.3123 1.68766C18.7526 2.12797 19 2.72514 19 3.34783V16.6522C19 17.2749 18.7526 17.872 18.3123 18.3123C17.872 18.7526 17.2749 19 16.6522 19H13.5217V11.9565M10 11.9565H17.0435M7.17243 6.47826C7.17243 6.47826 6.23252 5.8913 6.23252 5.158C6.23991 4.89048 6.35137 4.6364 6.54319 4.4498C6.73502 4.2632 6.99208 4.15879 7.2597 4.15879C7.52731 4.15879 7.78437 4.2632 7.9762 4.4498C8.16803 4.6364 8.27948 4.89048 8.28687 5.158C8.28609 5.8913 7.3493 6.47826 7.3493 6.47826H7.17243Z" stroke="#5C6368"/>
</svg>
