<svg width="20" height="20" viewBox="0 0 20 20" fill="none" xmlns="http://www.w3.org/2000/svg">
<path d="M19.1152 4.7L19.1273 4.68889L14.6182 0.555556L13.3333 1.73333L15.8909 4.07778C14.7515 4.47778 13.9394 5.47778 13.9394 6.66667C13.9394 7.03145 14.0178 7.39266 14.1701 7.72968C14.3223 8.06669 14.5456 8.37291 14.8269 8.63085C15.3952 9.15179 16.166 9.44444 16.9697 9.44444C17.4061 9.44444 17.8061 9.35556 18.1818 9.21111V17.2222C18.1818 17.5169 18.0541 17.7995 17.8268 18.0079C17.5995 18.2163 17.2912 18.3333 16.9697 18.3333C16.6482 18.3333 16.3399 18.2163 16.1126 18.0079C15.8853 17.7995 15.7576 17.5169 15.7576 17.2222V12.2222C15.7576 11.6329 15.5022 11.0676 15.0475 10.6509C14.5929 10.2341 13.9763 10 13.3333 10H12.1212V2.22222C12.1212 1.63285 11.8658 1.06762 11.4112 0.650874C10.9565 0.234126 10.3399 0 9.69697 0H2.42424C1.78129 0 1.16468 0.234126 0.710044 0.650874C0.25541 1.06762 0 1.63285 0 2.22222V20H12.1212V11.6667H13.9394V17.2222C13.9394 17.9589 14.2587 18.6655 14.8269 19.1864C15.3952 19.7073 16.166 20 16.9697 20C17.3676 20 17.7617 19.9282 18.1293 19.7886C18.497 19.649 18.8311 19.4443 19.1124 19.1864C19.3938 18.9285 19.617 18.6222 19.7693 18.2852C19.9216 17.9482 20 17.587 20 17.2222V6.66667C20 5.9 19.6606 5.2 19.1152 4.7ZM16.9697 7.77778C16.6482 7.77778 16.3399 7.66071 16.1126 7.45234C15.8853 7.24397 15.7576 6.96135 15.7576 6.66667C15.7576 6.37198 15.8853 6.08937 16.1126 5.88099C16.3399 5.67262 16.6482 5.55556 16.9697 5.55556C17.2912 5.55556 17.5995 5.67262 17.8268 5.88099C18.0541 6.08937 18.1818 6.37198 18.1818 6.66667C18.1818 6.96135 18.0541 7.24397 17.8268 7.45234C17.5995 7.66071 17.2912 7.77778 16.9697 7.77778ZM4.84848 16.6667V11.6667H2.42424L7.27273 3.33333V8.88889H9.69697L4.84848 16.6667Z" fill="#5C6368"/>
</svg>
