<svg width="15" height="22" viewBox="0 0 15 22" fill="none" xmlns="http://www.w3.org/2000/svg">
<path d="M2.625 0C1.92881 0 1.26113 0.289731 0.768845 0.805456C0.276562 1.32118 0 2.02065 0 2.75V19.25C0 20.768 1.176 22 2.625 22H12.375C13.0712 22 13.7389 21.7103 14.2312 21.1945C14.7234 20.6788 15 19.9793 15 19.25V2.75C15 2.02065 14.7234 1.32118 14.2312 0.805456C13.7389 0.289731 13.0712 0 12.375 0H2.625ZM1.5 2.75C1.5 2.43742 1.61853 2.13765 1.8295 1.91662C2.04048 1.6956 2.32663 1.57143 2.625 1.57143H12.375C12.6734 1.57143 12.9595 1.6956 13.1705 1.91662C13.3815 2.13765 13.5 2.43742 13.5 2.75V19.25C13.5 19.5626 13.3815 19.8624 13.1705 20.0834C12.9595 20.3044 12.6734 20.4286 12.375 20.4286H2.625C2.32663 20.4286 2.04048 20.3044 1.8295 20.0834C1.61853 19.8624 1.5 19.5626 1.5 19.25V2.75ZM5.25 3.14286C5.05109 3.14286 4.86032 3.22564 4.71967 3.37299C4.57902 3.52034 4.5 3.72019 4.5 3.92857C4.5 4.13696 4.57902 4.3368 4.71967 4.48416C4.86032 4.63151 5.05109 4.71429 5.25 4.71429H9.75C9.94891 4.71429 10.1397 4.63151 10.2803 4.48416C10.421 4.3368 10.5 4.13696 10.5 3.92857C10.5 3.72019 10.421 3.52034 10.2803 3.37299C10.1397 3.22564 9.94891 3.14286 9.75 3.14286H5.25ZM3 15.7143C3 15.2975 3.15804 14.8978 3.43934 14.6031C3.72064 14.3084 4.10218 14.1429 4.5 14.1429H10.5C10.8978 14.1429 11.2794 14.3084 11.5607 14.6031C11.842 14.8978 12 15.2975 12 15.7143C12 16.8206 11.4465 17.6519 10.59 18.1657C9.7755 18.6529 8.6895 18.8571 7.5 18.8571C6.3105 18.8571 5.2245 18.6529 4.41 18.1657C3.552 17.6503 3 16.819 3 15.7143ZM9.846 16.7986C10.3035 16.5267 10.5 16.1794 10.5 15.7143H4.5C4.5 16.1794 4.6965 16.5267 5.154 16.7986C5.649 17.0971 6.4395 17.2857 7.5 17.2857C8.5605 17.2857 9.3495 17.0971 9.846 16.7986ZM6 9.42857C6 9.0118 6.15804 8.6121 6.43934 8.3174C6.72064 8.0227 7.10218 7.85714 7.5 7.85714C7.89782 7.85714 8.27936 8.0227 8.56066 8.3174C8.84196 8.6121 9 9.0118 9 9.42857C9 9.84534 8.84196 10.245 8.56066 10.5397C8.27936 10.8344 7.89782 11 7.5 11C7.10218 11 6.72064 10.8344 6.43934 10.5397C6.15804 10.245 6 9.84534 6 9.42857ZM7.5 6.28571C6.70435 6.28571 5.94129 6.61684 5.37868 7.20624C4.81607 7.79564 4.5 8.59503 4.5 9.42857C4.5 10.2621 4.81607 11.0615 5.37868 11.6509C5.94129 12.2403 6.70435 12.5714 7.5 12.5714C8.29565 12.5714 9.05871 12.2403 9.62132 11.6509C10.1839 11.0615 10.5 10.2621 10.5 9.42857C10.5 8.59503 10.1839 7.79564 9.62132 7.20624C9.05871 6.61684 8.29565 6.28571 7.5 6.28571Z" fill="#5C6368"/>
</svg>
