<svg width="96" height="96" viewBox="0 0 96 96" fill="none" xmlns="http://www.w3.org/2000/svg">
<path d="M21 30C20.2044 30 19.4413 30.3161 18.8787 30.8787C18.3161 31.4413 18 32.2043 18 33C18 33.7956 18.3161 34.5587 18.8787 35.1213C19.4413 35.6839 20.2044 36 21 36H63C63.7956 36 64.5587 35.6839 65.1213 35.1213C65.6839 34.5587 66 33.7956 66 33C66 32.2043 65.6839 31.4413 65.1213 30.8787C64.5587 30.3161 63.7956 30 63 30H21ZM21 42C20.2044 42 19.4413 42.3161 18.8787 42.8787C18.3161 43.4413 18 44.2043 18 45V57C18 57.7956 18.3161 58.5587 18.8787 59.1213C19.4413 59.6839 20.2044 60 21 60H33C33.7956 60 34.5587 59.6839 35.1213 59.1213C35.6839 58.5587 36 57.7956 36 57V45C36 44.2043 35.6839 43.4413 35.1213 42.8787C34.5587 42.3161 33.7956 42 33 42H21ZM24 54V48H30V54H24ZM45 42C44.2043 42 43.4413 42.3161 42.8787 42.8787C42.3161 43.4413 42 44.2043 42 45C42 45.7956 42.3161 46.5587 42.8787 47.1213C43.4413 47.6839 44.2043 48 45 48H63C63.7956 48 64.5587 47.6839 65.1213 47.1213C65.6839 46.5587 66 45.7956 66 45C66 44.2043 65.6839 43.4413 65.1213 42.8787C64.5587 42.3161 63.7956 42 63 42H45ZM45 54C44.2043 54 43.4413 54.3161 42.8787 54.8787C42.3161 55.4413 42 56.2043 42 57C42 57.7956 42.3161 58.5587 42.8787 59.1213C43.4413 59.6839 44.2043 60 45 60H63C63.7956 60 64.5587 59.6839 65.1213 59.1213C65.6839 58.5587 66 57.7956 66 57C66 56.2043 65.6839 55.4413 65.1213 54.8787C64.5587 54.3161 63.7956 54 63 54H45ZM6 24C6 20.8174 7.26428 17.7652 9.51472 15.5147C11.7652 13.2643 14.8174 12 18 12H66C69.1826 12 72.2348 13.2643 74.4853 15.5147C76.7357 17.7652 78 20.8174 78 24C81.1826 24 84.2348 25.2643 86.4853 27.5147C88.7357 29.7652 90 32.8174 90 36V63C90 66.9782 88.4196 70.7936 85.6066 73.6066C82.7936 76.4196 78.9782 78 75 78H21C17.0218 78 13.2064 76.4196 10.3934 73.6066C7.58035 70.7936 6 66.9782 6 63V24ZM75 63C74.2043 63 73.4413 62.6839 72.8787 62.1213C72.3161 61.5587 72 60.7956 72 60V24C72 22.4087 71.3679 20.8826 70.2426 19.7574C69.1174 18.6321 67.5913 18 66 18H18C16.4087 18 14.8826 18.6321 13.7574 19.7574C12.6321 20.8826 12 22.4087 12 24V63C12 65.3869 12.9482 67.6761 14.636 69.364C16.3239 71.0518 18.6131 72 21 72H75C77.3869 72 79.6761 71.0518 81.364 69.364C83.0518 67.6761 84 65.3869 84 63V36C84 34.4087 83.3679 32.8826 82.2426 31.7574C81.1174 30.6321 79.5913 30 78 30V60C78 60.7956 77.6839 61.5587 77.1213 62.1213C76.5587 62.6839 75.7956 63 75 63Z" fill="white"/>
</svg>
