<svg width="34" height="40" viewBox="0 0 34 40" fill="none" xmlns="http://www.w3.org/2000/svg">
<g clip-path="url(#clip0_3889_12729)">
<path d="M26 34H5M17.6 15.1504H13.4M17.6 23.8502H13.4M9.72605 13.7005H9.7166M9.7271 19.5003H9.7166M9.7271 25.3002H9.7166M21.276 13.7005H21.2666M21.2771 19.5003H21.2666M21.2771 25.3002H21.2666M24.95 12.9537C24.95 11.3617 24.95 10.5671 24.6602 9.89431C24.3704 9.22153 23.836 8.78364 22.7681 7.90061L21.4094 6.77833C19.7325 5.39217 18.8936 4.69908 18.2468 5.12827C17.6 5.55746 17.6 6.80588 17.6 9.30273V34H24.95V12.9537ZM6.05 12.9537C6.05 11.3617 6.05 10.5671 6.3398 9.89431C6.6296 9.22153 7.16405 8.78364 8.2319 7.90061L9.5906 6.77833C11.2685 5.39072 12.1064 4.69618 12.7532 5.12682C13.4 5.55746 13.4 6.80588 13.4 9.30273V34H6.05V12.9537Z" stroke="#1D4265" stroke-width="1.5" stroke-linecap="round" stroke-linejoin="round"/>
</g>
<defs>
<clipPath id="clip0_3889_12729">
<rect width="34" height="40" fill="white"/>
</clipPath>
</defs>
</svg>
