<svg width="21" height="20" viewBox="0 0 21 20" fill="none" xmlns="http://www.w3.org/2000/svg">
<g clip-path="url(#clip0_1727_7715)">
<path d="M4.76543 12.0865L4.06926 14.6854L1.52477 14.7393C0.764336 13.3288 0.333008 11.7151 0.333008 10.0003C0.333008 8.34203 0.736289 6.77828 1.45113 5.40137H1.45168L3.71699 5.81668L4.70934 8.0684C4.50164 8.67391 4.38844 9.32391 4.38844 10.0003C4.38852 10.7343 4.52148 11.4377 4.76543 12.0865Z" fill="#FBBB00"/>
<path d="M20.1582 8.13184C20.273 8.73676 20.3329 9.36148 20.3329 9.99996C20.3329 10.7159 20.2576 11.4143 20.1142 12.0879C19.6274 14.3802 18.3554 16.3818 16.5934 17.7983L16.5928 17.7978L13.7395 17.6522L13.3357 15.1313C14.5049 14.4456 15.4187 13.3725 15.9 12.0879H10.5527V8.13184H20.1582Z" fill="#518EF8"/>
<path d="M16.5925 17.7975L16.5931 17.798C14.8794 19.1755 12.7024 19.9996 10.3327 19.9996C6.52441 19.9996 3.21344 17.8711 1.52441 14.7387L4.76508 12.0859C5.60957 14.3398 7.78375 15.9442 10.3327 15.9442C11.4282 15.9442 12.4546 15.648 13.3354 15.131L16.5925 17.7975Z" fill="#28B446"/>
<path d="M16.716 2.30219L13.4764 4.95437C12.5649 4.38461 11.4874 4.05547 10.333 4.05547C7.72645 4.05547 5.5116 5.73348 4.70941 8.06812L1.45172 5.40109H1.45117C3.11547 2.1923 6.4682 0 10.333 0C12.7594 0 14.9841 0.864297 16.716 2.30219Z" fill="#F14336"/>
</g>
<defs>
<clipPath id="clip0_1727_7715">
<rect width="20" height="20" fill="white" transform="translate(0.333008)"/>
</clipPath>
</defs>
</svg>
