<svg width="125" height="47" viewBox="0 0 125 47" fill="none" xmlns="http://www.w3.org/2000/svg">
<path d="M11.6089 17L21.7901 27L11.6099 37C11.4292 36.9248 11.275 36.7991 11.1665 36.6385C11.0581 36.4779 11.0002 36.2895 11 36.0968V17.9042C10.9999 17.7114 11.0576 17.5229 11.1658 17.3621C11.2741 17.2013 11.4282 17.0754 11.6089 17ZM22.4969 27.6941L24.7985 29.9541L13.8635 36.1714L22.4969 27.6941ZM25.6954 24.5545L28.5019 26.1508C28.6534 26.2371 28.7791 26.361 28.8666 26.51C28.954 26.659 29 26.828 29 27C29 27.172 28.954 27.341 28.8666 27.49C28.7791 27.639 28.6534 27.7629 28.5019 27.8492L25.6944 29.4455L23.2038 27L25.6954 24.5545ZM13.8635 17.8286L24.7995 24.045L22.4969 26.3059L13.8635 17.8286Z" fill="#1D4265"/>
<path d="M113.053 25.3508L111.066 30.1254H111.006L108.933 25.3508H107.059L110.165 32.0252L108.39 35.7376H110.212L115 25.3508H113.053ZM99.012 21.3887H97.2768V32.4003H99.012V21.3887ZM92.4816 21.3887H88.3092V32.4003H90.0576V28.2319H92.4882C92.9782 28.2477 93.4667 28.1715 93.9253 28.0077C94.3839 27.8439 94.8034 27.5958 95.1596 27.2778C95.5157 26.9598 95.8014 26.5781 96 26.1551C96.1985 25.732 96.306 25.2759 96.3163 24.8134C96.3061 24.3499 96.1984 23.8931 95.9995 23.4692C95.8006 23.0454 95.5145 22.6631 95.1578 22.3444C94.801 22.0258 94.3807 21.7772 93.9213 21.6131C93.4619 21.449 92.9726 21.3729 92.4816 21.3887ZM92.5278 26.6942H90.0576V22.9446H92.5345C93.0615 22.9446 93.5669 23.1421 93.9395 23.4937C94.3121 23.8454 94.5215 24.3222 94.5215 24.8195C94.5215 25.3167 94.3121 25.7936 93.9395 26.1452C93.5669 26.4968 93.0615 26.6944 92.5345 26.6944L92.5278 26.6942ZM103.29 25.1131C102.655 25.0785 102.022 25.2198 101.471 25.5195C100.919 25.8192 100.472 26.2644 100.184 26.8004L101.734 27.4254C101.887 27.1603 102.12 26.9434 102.402 26.8013C102.685 26.6591 103.005 26.598 103.324 26.6254C103.542 26.6048 103.763 26.6251 103.974 26.6853C104.184 26.7455 104.38 26.8444 104.55 26.9762C104.72 27.1081 104.861 27.2703 104.964 27.4535C105.067 27.6368 105.131 27.8375 105.151 28.0441V28.1566C104.596 27.8734 103.975 27.7251 103.343 27.7253C101.681 27.7253 99.9855 28.5879 99.9855 30.2252C99.9855 31.7002 101.343 32.6501 102.88 32.6501C103.317 32.6762 103.754 32.59 104.143 32.4007C104.533 32.2115 104.86 31.9262 105.092 31.5751H105.158V32.425H106.854V28.1881C106.854 26.232 105.304 25.1446 103.303 25.1446L103.29 25.1131ZM103.085 31.1502C102.516 31.1502 101.721 30.8752 101.721 30.2128C101.721 29.3629 102.707 29.038 103.569 29.038C104.124 29.0237 104.673 29.1511 105.158 29.4065C105.094 29.8844 104.849 30.3244 104.468 30.645C104.087 30.9656 103.596 31.145 103.085 31.1502ZM40.2854 32.6376C36.8557 32.6483 34.0544 30.0551 34 26.8192C34.0546 23.5833 36.8557 20.9901 40.2854 21.0008C41.0707 20.9884 41.8507 21.1241 42.5797 21.3999C43.3087 21.6757 43.972 22.0861 44.5307 22.607L43.3319 23.7257C42.5188 22.974 41.4237 22.5561 40.2854 22.5633C37.809 22.5633 35.8015 24.4576 35.8015 26.7942C35.8015 29.1309 37.809 31.0252 40.2854 31.0252C40.8641 31.0476 41.4413 30.9551 41.9798 30.7537C42.5183 30.5524 43.006 30.2467 43.4114 29.8564C43.9504 29.308 44.2751 28.6026 44.3321 27.8567H40.2854V26.3132H45.9812C46.0433 26.6411 46.0721 26.9737 46.0673 27.3069C46.1246 28.6904 45.5982 30.0389 44.6035 31.0567C44.042 31.5918 43.3671 32.0092 42.6231 32.2816C41.879 32.554 41.0824 32.6753 40.2854 32.6376ZM54.876 28.8878C54.8979 29.3878 54.8124 29.8868 54.6248 30.3549C54.4371 30.8229 54.1511 31.2503 53.7839 31.6114C53.4167 31.9725 52.976 32.2598 52.4882 32.4561C52.0003 32.6524 51.4755 32.7535 50.9451 32.7535C50.4148 32.7535 49.89 32.6524 49.4021 32.4561C48.9143 32.2598 48.4735 31.9725 48.1064 31.6114C47.7392 31.2503 47.4532 30.8229 47.2655 30.3549C47.0779 29.8868 46.9924 29.3878 47.0143 28.8878C46.9924 28.3878 47.0779 27.8888 47.2655 27.4208C47.4532 26.9527 47.7392 26.5253 48.1064 26.1642C48.4735 25.8031 48.9143 25.5158 49.4021 25.3196C49.89 25.1233 50.4148 25.0221 50.9451 25.0221C51.4755 25.0221 52.0003 25.1233 52.4882 25.3196C52.976 25.5158 53.4167 25.8031 53.7839 26.1642C54.1511 26.5253 54.4371 26.9527 54.6248 27.4208C54.8124 27.8888 54.8979 28.3878 54.876 28.8878ZM53.154 28.8878C53.1831 28.5976 53.1476 28.3047 53.0499 28.0282C52.9521 27.7516 52.7942 27.4973 52.5862 27.2817C52.3783 27.066 52.1249 26.8937 51.8423 26.7758C51.5597 26.6579 51.2541 26.597 50.9451 26.597C50.6362 26.597 50.3306 26.6579 50.048 26.7758C49.7654 26.8937 49.512 27.066 49.304 27.2817C49.0961 27.4973 48.9382 27.7516 48.8404 28.0282C48.7427 28.3047 48.7072 28.5976 48.7363 28.8878C48.7072 29.1781 48.7427 29.4709 48.8404 29.7475C48.9382 30.0241 49.0961 30.2783 49.304 30.494C49.512 30.7097 49.7654 30.882 50.048 30.9999C50.3306 31.1178 50.6362 31.1787 50.9451 31.1787C51.2541 31.1787 51.5597 31.1178 51.8423 30.9999C52.1249 30.882 52.3783 30.7097 52.5862 30.494C52.7942 30.2783 52.9521 30.0241 53.0499 29.7475C53.1476 29.4709 53.1831 29.1781 53.154 28.8878ZM63.6846 28.8878C63.6846 30.9347 61.9261 32.5938 59.7572 32.5938C57.5882 32.5938 55.8295 30.9347 55.8295 28.8878C55.8295 26.841 57.588 25.1818 59.7572 25.1818C61.9264 25.1818 63.6846 26.841 63.6846 28.8878ZM61.9694 28.8878C61.9985 28.5976 61.963 28.3047 61.8653 28.0282C61.7675 27.7516 61.6096 27.4973 61.4016 27.2817C61.1937 27.066 60.9403 26.8937 60.6577 26.7758C60.3751 26.6579 60.0695 26.597 59.7605 26.597C59.4516 26.597 59.146 26.6579 58.8634 26.7758C58.5808 26.8937 58.3274 27.066 58.1195 27.2817C57.9115 27.4973 57.7536 27.7516 57.6558 28.0282C57.5581 28.3047 57.5226 28.5976 57.5517 28.8878C57.5224 29.1782 57.5578 29.4711 57.6555 29.7478C57.7531 30.0245 57.911 30.2789 58.119 30.4947C58.3269 30.7104 58.5804 30.8828 58.863 31.0008C59.1457 31.1188 59.4514 31.1797 59.7604 31.1797C60.0695 31.1797 60.3752 31.1188 60.6579 31.0008C60.9405 30.8828 61.194 30.7104 61.4019 30.4947C61.6099 30.2789 61.7677 30.0245 61.8654 29.7478C61.9631 29.4711 61.9987 29.1782 61.9694 28.8878ZM72.2811 25.3694V32.1001C72.2811 34.8623 70.5392 35.9999 68.4861 35.9999C67.7335 36.0058 66.9959 35.8013 66.3665 35.412C65.737 35.0227 65.2439 34.4661 64.9494 33.8126L66.4528 33.1875C66.6086 33.5692 66.8802 33.899 67.2336 34.1358C67.587 34.3726 68.0065 34.5058 68.4397 34.5188C69.7645 34.5188 70.5723 33.7502 70.5723 32.3188V31.7814H70.5062C70.2464 32.0549 69.9276 32.2728 69.5711 32.4205C69.2147 32.5682 68.8289 32.6422 68.4397 32.6376C66.2449 32.6376 64.4659 30.9588 64.4659 28.8878C64.4659 26.8168 66.2449 25.1381 68.4397 25.1381C68.8315 25.1301 69.2206 25.2006 69.5814 25.3449C69.9421 25.4893 70.2664 25.7042 70.5327 25.9755H70.5988V25.3506H72.2811V25.3694ZM70.738 28.9066C70.7623 28.6238 70.7262 28.3392 70.6317 28.0698C70.5372 27.8004 70.3864 27.5516 70.1881 27.3383C69.9898 27.1249 69.7481 26.9513 69.4773 26.8278C69.2065 26.7043 68.9122 26.6334 68.6119 26.6193C68.3056 26.6289 68.0045 26.696 67.7261 26.8167C67.4477 26.9374 67.1976 27.1093 66.9904 27.3222C66.7832 27.5352 66.6231 27.785 66.5194 28.0571C66.4157 28.3291 66.3705 28.6179 66.3864 28.9066C66.3722 29.1934 66.4189 29.48 66.5236 29.7495C66.6284 30.019 66.7891 30.2661 66.9964 30.4762C67.2037 30.6864 67.4533 30.8553 67.7308 30.9732C68.0082 31.0911 68.3077 31.1555 68.6119 31.1627C68.9104 31.1517 69.2035 31.084 69.4737 30.9636C69.7438 30.8431 69.9854 30.6725 70.1839 30.4618C70.3825 30.2511 70.5339 30.0048 70.6291 29.7375C70.7243 29.4703 70.7613 29.1877 70.738 28.9066ZM75.3475 21.4008V32.4064H73.5991V21.401L75.3475 21.4008ZM82.2354 30.1254L83.5999 30.9753C83.2356 31.4881 82.7427 31.9082 82.165 32.1982C81.5873 32.4881 80.9427 32.639 80.2884 32.6374C79.7679 32.6444 79.2513 32.5517 78.7699 32.3648C78.2884 32.178 77.8522 31.9009 77.4875 31.5504C77.1228 31.1999 76.8373 30.7832 76.6482 30.3255C76.4591 29.8679 76.3704 29.3788 76.3874 28.8878C76.2268 27.1405 77.4812 25.5576 79.3031 25.209C81.1246 24.8603 82.9335 25.857 83.5071 27.5254L83.686 27.9567L78.3876 30.0252C78.5526 30.3753 78.8251 30.6708 79.1697 30.8736C79.5144 31.0763 79.9155 31.177 80.3214 31.1627C80.7075 31.157 81.0857 31.0588 81.4205 30.8773C81.7553 30.6959 82.0357 30.437 82.2354 30.1252M78.0565 28.7751L81.6197 27.3878C81.4818 27.133 81.2677 26.922 81.004 26.7809C80.7403 26.6398 80.4385 26.5748 80.136 26.5939C79.8468 26.6059 79.5631 26.6721 79.3013 26.7887C79.0396 26.9053 78.805 27.0699 78.6115 27.273C78.4179 27.476 78.2691 27.7135 78.1738 27.9714C78.0785 28.2293 78.0386 28.5025 78.0565 28.7751Z" fill="#1D4265"/>
<rect x="0.5" y="0.5" width="124" height="46" rx="9.5" stroke="#1D4265"/>
<path d="M38.84 11.04C38.6853 10.7147 38.4613 10.464 38.168 10.288C37.8747 10.1067 37.5333 10.016 37.144 10.016C36.7547 10.016 36.4027 10.1067 36.088 10.288C35.7787 10.464 35.5333 10.72 35.352 11.056C35.176 11.3867 35.088 11.7707 35.088 12.208C35.088 12.6453 35.176 13.0293 35.352 13.36C35.5333 13.6907 35.7787 13.9467 36.088 14.128C36.4027 14.304 36.7547 14.392 37.144 14.392C37.688 14.392 38.136 14.2293 38.488 13.904C38.84 13.5787 39.0453 13.1387 39.104 12.584H36.88V11.992H39.88V12.552C39.8373 13.0107 39.6933 13.432 39.448 13.816C39.2027 14.1947 38.88 14.496 38.48 14.72C38.08 14.9387 37.6347 15.048 37.144 15.048C36.6267 15.048 36.1547 14.928 35.728 14.688C35.3013 14.4427 34.9627 14.104 34.712 13.672C34.4667 13.24 34.344 12.752 34.344 12.208C34.344 11.664 34.4667 11.176 34.712 10.744C34.9627 10.3067 35.3013 9.968 35.728 9.728C36.1547 9.48267 36.6267 9.36 37.144 9.36C37.736 9.36 38.2587 9.50667 38.712 9.8C39.1707 10.0933 39.504 10.5067 39.712 11.04H38.84ZM41.5706 10.016V11.88H43.6026V12.48H41.5706V14.4H43.8426V15H40.8426V9.416H43.8426V10.016H41.5706ZM48.3761 9.424V10.016H46.8561V15H46.1281V10.016H44.6001V9.424H48.3761ZM52.1331 9.424V15H51.4051V9.424H52.1331ZM56.8058 9.424V10.016H55.2858V15H54.5578V10.016H53.0298V9.424H56.8058ZM62.3628 15.056C61.8454 15.056 61.3734 14.936 60.9468 14.696C60.5201 14.4507 60.1814 14.112 59.9308 13.68C59.6854 13.2427 59.5628 12.752 59.5628 12.208C59.5628 11.664 59.6854 11.176 59.9308 10.744C60.1814 10.3067 60.5201 9.968 60.9468 9.728C61.3734 9.48267 61.8454 9.36 62.3628 9.36C62.8854 9.36 63.3601 9.48267 63.7868 9.728C64.2134 9.968 64.5494 10.304 64.7948 10.736C65.0401 11.168 65.1628 11.6587 65.1628 12.208C65.1628 12.7573 65.0401 13.248 64.7948 13.68C64.5494 14.112 64.2134 14.4507 63.7868 14.696C63.3601 14.936 62.8854 15.056 62.3628 15.056ZM62.3628 14.424C62.7521 14.424 63.1014 14.3333 63.4108 14.152C63.7254 13.9707 63.9708 13.712 64.1468 13.376C64.3281 13.04 64.4188 12.6507 64.4188 12.208C64.4188 11.76 64.3281 11.3707 64.1468 11.04C63.9708 10.704 63.7281 10.4453 63.4188 10.264C63.1094 10.0827 62.7574 9.992 62.3628 9.992C61.9681 9.992 61.6161 10.0827 61.3068 10.264C60.9974 10.4453 60.7521 10.704 60.5708 11.04C60.3948 11.3707 60.3068 11.76 60.3068 12.208C60.3068 12.6507 60.3948 13.04 60.5708 13.376C60.7521 13.712 60.9974 13.9707 61.3068 14.152C61.6214 14.3333 61.9734 14.424 62.3628 14.424ZM70.5078 15H69.7798L66.8518 10.56V15H66.1238V9.416H66.8518L69.7798 13.848V9.416H70.5078V15Z" fill="#1D4265"/>
</svg>
