<svg width="34" height="37" viewBox="0 0 34 37" fill="none" xmlns="http://www.w3.org/2000/svg">
<path d="M17.3607 7.81442C17.2519 7.74475 17.1279 7.70801 17.0016 7.70801C16.8753 7.70801 16.7513 7.74475 16.6425 7.81442L3.99023 15.9136L4.70848 17.2425L17.0016 9.37305L29.2947 17.2433L30.013 15.9143L25.5016 13.0268V9.24972C25.5016 9.04528 25.427 8.84921 25.2941 8.70466C25.1613 8.5601 24.9811 8.47888 24.7933 8.47888H22.6683C22.4804 8.47888 22.3002 8.5601 22.1674 8.70466C22.0346 8.84921 21.9599 9.04528 21.9599 9.24972V10.7582L17.3607 7.81442ZM9.91828 19.2706H17.7099V23.8955H9.91828V19.2706Z" fill="#1D4265"/>
<path fill-rule="evenodd" clip-rule="evenodd" d="M17.0007 10.791L7.08398 16.9577V27.7493H3.54232C3.35446 27.7493 3.17429 27.8306 3.04145 27.9751C2.90861 28.1197 2.83398 28.3157 2.83398 28.5202C2.83398 28.7246 2.90861 28.9207 3.04145 29.0652C3.17429 29.2098 3.35446 29.291 3.54232 29.291H29.0423C29.2302 29.291 29.4103 29.2098 29.5432 29.0652C29.676 28.9207 29.7507 28.7246 29.7507 28.5202C29.7507 28.3157 29.676 28.1197 29.5432 27.9751C29.4103 27.8306 29.2302 27.7493 29.0423 27.7493H26.9173V16.9577L17.0007 10.791ZM17.0007 12.5662L8.50065 17.8526V27.7493H19.834V19.2702H24.084V27.7493H25.5007V17.8518L17.0007 12.5662Z" fill="#1D4265"/>
</svg>
