<svg width="93" height="93" viewBox="0 0 93 93" fill="none" xmlns="http://www.w3.org/2000/svg">
<path d="M56.0015 49.9694C55.4163 52.399 52.6418 54.1156 47.089 57.545C41.7298 60.862 39.0483 62.5244 36.8861 61.8579C35.978 61.5668 35.1627 61.0416 34.5223 60.335C32.9336 58.5913 32.9336 55.2045 32.9336 48.4388C32.9336 41.673 32.9336 38.2863 34.5223 36.5425C35.1811 35.8218 35.9948 35.2986 36.8861 35.0235C39.0483 34.3531 41.7298 36.0155 47.0928 39.3325C52.6418 42.7658 55.4163 44.4824 56.0053 46.9081C56.2457 47.9144 56.2457 48.9631 56.0053 49.9694" stroke="white" stroke-width="1.5" stroke-linecap="round" stroke-linejoin="round"/>
<path d="M81.3653 42.625C81.3705 44.4463 81.3731 46.3838 81.3731 48.4375C81.3731 65.7898 81.3731 74.4698 75.9829 79.8599C70.5928 85.25 61.9167 85.25 44.5606 85.25C27.2083 85.25 18.5283 85.25 13.1382 79.8599C7.74805 74.4698 7.74805 65.7936 7.74805 48.4375C7.74805 31.0853 7.74805 22.4053 13.1382 17.0151C18.5283 11.625 27.2044 11.625 44.5606 11.625C46.6143 11.625 48.5518 11.6276 50.3731 11.6328" stroke="white" stroke-width="1.5" stroke-linecap="round" stroke-linejoin="round"/>
<path d="M71.6875 7.75098L72.6872 10.4519C73.997 13.9936 74.6519 15.7645 75.9422 17.0549C77.2365 18.3491 79.0074 19.004 82.5491 20.3137L85.25 21.3135L82.5491 22.3132C79.0074 23.623 77.2365 24.2779 75.9461 25.5682C74.6519 26.8625 73.997 28.6334 72.6872 32.1751L71.6875 34.876L70.6878 32.1751C69.378 28.6334 68.7231 26.8625 67.4328 25.5721C66.1385 24.2779 64.3676 23.623 60.8259 22.3132L58.125 21.3135L60.8259 20.3137C64.3676 19.004 66.1385 18.3491 67.4289 17.0587C68.7231 15.7645 69.378 13.9936 70.6878 10.4519L71.6875 7.75098Z" stroke="white" stroke-width="1.5" stroke-linecap="round" stroke-linejoin="round"/>
</svg>
