<svg width="24" height="25" viewBox="0 0 24 25" fill="none" xmlns="http://www.w3.org/2000/svg">
<path d="M19.0508 5.41005C18.1338 4.48416 17.0418 3.75002 15.8383 3.25042C14.6348 2.75081 13.3439 2.49574 12.0408 2.50005C6.58078 2.50005 2.13078 6.95005 2.13078 12.4101C2.13078 14.1601 2.59078 15.8601 3.45078 17.3601L2.05078 22.5001L7.30078 21.1201C8.75078 21.9101 10.3808 22.3301 12.0408 22.3301C17.5008 22.3301 21.9508 17.8801 21.9508 12.4201C21.9508 9.77005 20.9208 7.28005 19.0508 5.41005ZM12.0408 20.6501C10.5608 20.6501 9.11078 20.2501 7.84078 19.5001L7.54078 19.3201L4.42078 20.1401L5.25078 17.1001L5.05078 16.7901C4.22833 15.4771 3.79171 13.9593 3.79078 12.4101C3.79078 7.87005 7.49078 4.17005 12.0308 4.17005C14.2308 4.17005 16.3008 5.03005 17.8508 6.59005C18.6184 7.35392 19.2267 8.2626 19.6404 9.26338C20.0541 10.2642 20.265 11.3371 20.2608 12.4201C20.2808 16.9601 16.5808 20.6501 12.0408 20.6501ZM16.5608 14.4901C16.3108 14.3701 15.0908 13.7701 14.8708 13.6801C14.6408 13.6001 14.4808 13.5601 14.3108 13.8001C14.1408 14.0501 13.6708 14.6101 13.5308 14.7701C13.3908 14.9401 13.2408 14.9601 12.9908 14.8301C12.7408 14.7101 11.9408 14.4401 11.0008 13.6001C10.2608 12.9401 9.77078 12.1301 9.62078 11.8801C9.48078 11.6301 9.60078 11.5001 9.73078 11.3701C9.84078 11.2601 9.98078 11.0801 10.1008 10.9401C10.2208 10.8001 10.2708 10.6901 10.3508 10.5301C10.4308 10.3601 10.3908 10.2201 10.3308 10.1001C10.2708 9.98005 9.77078 8.76005 9.57078 8.26005C9.37078 7.78005 9.16078 7.84005 9.01078 7.83005H8.53078C8.36078 7.83005 8.10078 7.89005 7.87078 8.14005C7.65078 8.39005 7.01078 8.99005 7.01078 10.2101C7.01078 11.4301 7.90078 12.6101 8.02078 12.7701C8.14078 12.9401 9.77078 15.4401 12.2508 16.5101C12.8408 16.7701 13.3008 16.9201 13.6608 17.0301C14.2508 17.2201 14.7908 17.1901 15.2208 17.1301C15.7008 17.0601 16.6908 16.5301 16.8908 15.9501C17.1008 15.3701 17.1008 14.8801 17.0308 14.7701C16.9608 14.6601 16.8108 14.6101 16.5608 14.4901Z" fill="white"/>
</svg>
