<svg width="17" height="18" viewBox="0 0 17 18" fill="none" xmlns="http://www.w3.org/2000/svg">
<path d="M4.93 0.5H12.07C14.79 0.5 17 2.71 17 5.43V12.57C17 13.8775 16.4806 15.1315 15.556 16.056C14.6315 16.9806 13.3775 17.5 12.07 17.5H4.93C2.21 17.5 0 15.29 0 12.57V5.43C0 4.12248 0.519409 2.86852 1.44396 1.94396C2.36852 1.01941 3.62248 0.5 4.93 0.5ZM4.76 2.2C3.94844 2.2 3.17011 2.52239 2.59625 3.09625C2.02239 3.67011 1.7 4.44844 1.7 5.26V12.74C1.7 14.4315 3.0685 15.8 4.76 15.8H12.24C13.0516 15.8 13.8299 15.4776 14.4037 14.9037C14.9776 14.3299 15.3 13.5516 15.3 12.74V5.26C15.3 3.5685 13.9315 2.2 12.24 2.2H4.76ZM12.9625 3.475C13.2443 3.475 13.5145 3.58694 13.7138 3.7862C13.9131 3.98546 14.025 4.25571 14.025 4.5375C14.025 4.81929 13.9131 5.08954 13.7138 5.2888C13.5145 5.48806 13.2443 5.6 12.9625 5.6C12.6807 5.6 12.4105 5.48806 12.2112 5.2888C12.0119 5.08954 11.9 4.81929 11.9 4.5375C11.9 4.25571 12.0119 3.98546 12.2112 3.7862C12.4105 3.58694 12.6807 3.475 12.9625 3.475ZM8.5 4.75C9.62717 4.75 10.7082 5.19777 11.5052 5.9948C12.3022 6.79183 12.75 7.87283 12.75 9C12.75 10.1272 12.3022 11.2082 11.5052 12.0052C10.7082 12.8022 9.62717 13.25 8.5 13.25C7.37283 13.25 6.29183 12.8022 5.4948 12.0052C4.69777 11.2082 4.25 10.1272 4.25 9C4.25 7.87283 4.69777 6.79183 5.4948 5.9948C6.29183 5.19777 7.37283 4.75 8.5 4.75ZM8.5 6.45C7.8237 6.45 7.1751 6.71866 6.69688 7.19688C6.21866 7.6751 5.95 8.3237 5.95 9C5.95 9.6763 6.21866 10.3249 6.69688 10.8031C7.1751 11.2813 7.8237 11.55 8.5 11.55C9.1763 11.55 9.82491 11.2813 10.3031 10.8031C10.7813 10.3249 11.05 9.6763 11.05 9C11.05 8.3237 10.7813 7.6751 10.3031 7.19688C9.82491 6.71866 9.1763 6.45 8.5 6.45Z" fill="#1D4265"/>
</svg>
