<svg width="30" height="31" viewBox="0 0 30 31" fill="none" xmlns="http://www.w3.org/2000/svg">
<path d="M20.4231 24.9998C19.6387 24.9998 18.5367 24.7162 16.8867 23.7945C14.8801 22.6695 13.3281 21.6308 11.3325 19.6408C9.40831 17.7182 8.47196 16.4734 7.16147 14.0892C5.68099 11.3972 5.93336 9.98614 6.21547 9.38305C6.55143 8.66224 7.04734 8.23112 7.68832 7.80321C8.05239 7.56472 8.43767 7.36028 8.83927 7.19249C8.87946 7.17521 8.91683 7.15874 8.95018 7.14387C9.14911 7.05427 9.45051 6.91887 9.83228 7.06351C10.0871 7.15914 10.3145 7.35481 10.6706 7.70638C11.4008 8.42639 12.3986 10.0299 12.7667 10.8174C13.0139 11.3482 13.1774 11.6986 13.1778 12.0915C13.1778 12.5516 12.9464 12.9063 12.6655 13.2893C12.6128 13.3612 12.5606 13.4299 12.5099 13.4966C12.2041 13.8984 12.137 14.0145 12.1812 14.2218C12.2708 14.6385 12.9391 15.8788 14.0374 16.9745C15.1357 18.0702 16.3405 18.6962 16.7589 18.7853C16.9751 18.8316 17.0936 18.7616 17.5084 18.445C17.5678 18.3996 17.6289 18.3526 17.6928 18.3056C18.1212 17.987 18.4596 17.7616 18.9089 17.7616H18.9113C19.3023 17.7616 19.6371 17.9311 20.1916 18.2108C20.915 18.5756 22.5671 19.5604 23.2916 20.2913C23.6441 20.6464 23.8406 20.8731 23.9366 21.1274C24.0813 21.5103 23.9451 21.8104 23.8563 22.0113C23.8414 22.0447 23.8249 22.0812 23.8076 22.1218C23.6385 22.5226 23.4328 22.907 23.1932 23.2701C22.766 23.909 22.3332 24.4036 21.6106 24.7399C21.2396 24.9154 20.8335 25.0043 20.4231 24.9998Z" fill="white"/>
</svg>
