<svg width="19" height="18" viewBox="0 0 19 18" fill="none" xmlns="http://www.w3.org/2000/svg">
<path d="M3.98741 2.38973C3.98714 2.89067 3.77684 3.37099 3.40276 3.72502C3.02868 4.07906 2.52147 4.27782 1.99271 4.27757C1.46394 4.27732 0.956943 4.07808 0.583238 3.72369C0.209533 3.3693 -0.000264132 2.88878 2.49573e-07 2.38784C0.000264631 1.8869 0.210569 1.40658 0.584648 1.05254C0.958727 0.698506 1.46594 0.49975 1.9947 0.5C2.52346 0.500251 3.03047 0.699487 3.40417 1.05388C3.77788 1.40827 3.98767 1.88879 3.98741 2.38973ZM4.04722 5.67621H0.0598113V17.5H4.04722V5.67621ZM10.3473 5.67621H6.37985V17.5H10.3075V11.2953C10.3075 7.83887 15.0624 7.51778 15.0624 11.2953V17.5H19V10.011C19 4.18407 11.9622 4.40128 10.3075 7.26279L10.3473 5.67621Z" fill="#1D4265"/>
</svg>
