<svg width="33" height="33" viewBox="0 0 33 33" fill="none" xmlns="http://www.w3.org/2000/svg">
<path d="M16.5 30.25C14.6208 30.25 12.8448 29.8888 11.1719 29.1665C9.49896 28.4442 8.03825 27.4587 6.78975 26.2103C5.54125 24.9618 4.55583 23.501 3.8335 21.8281C3.11117 20.1552 2.75 18.3792 2.75 16.5C2.75 14.5979 3.11117 12.8164 3.8335 11.1554C4.55583 9.49437 5.54125 8.03917 6.78975 6.78975C8.03825 5.54033 9.49896 4.55492 11.1719 3.8335C12.8448 3.11208 14.6208 2.75092 16.5 2.75C18.4021 2.75 20.1841 3.11117 21.846 3.8335C23.5079 4.55583 24.9627 5.54125 26.2103 6.78975C27.4578 8.03825 28.4433 9.49346 29.1665 11.1554C29.8897 12.8173 30.2509 14.5988 30.25 16.5C30.25 18.3792 29.8888 20.1552 29.1665 21.8281C28.4442 23.501 27.4587 24.9622 26.2103 26.2116C24.9618 27.461 23.5065 28.4465 21.8446 29.1679C20.1827 29.8893 18.4012 30.25 16.5 30.25ZM16.5 27.4313C17.0958 26.6063 17.6115 25.7469 18.0469 24.8531C18.4823 23.9594 18.8375 23.0083 19.1125 22H13.8875C14.1625 23.0083 14.5177 23.9594 14.9531 24.8531C15.3885 25.7469 15.9042 26.6063 16.5 27.4313ZM12.925 26.8812C12.5125 26.125 12.1518 25.3399 11.8429 24.5259C11.534 23.7119 11.2759 22.8699 11.0688 22H7.0125C7.67708 23.1458 8.50804 24.1427 9.50537 24.9906C10.5027 25.8385 11.6426 26.4687 12.925 26.8812ZM20.075 26.8812C21.3583 26.4687 22.4987 25.8385 23.496 24.9906C24.4933 24.1427 25.3238 23.1458 25.9875 22H21.9312C21.725 22.8708 21.4674 23.7132 21.1585 24.5272C20.8496 25.3412 20.4884 26.1259 20.075 26.8812ZM5.84375 19.25H10.5188C10.45 18.7917 10.3987 18.3393 10.3647 17.8929C10.3308 17.4465 10.3134 16.9822 10.3125 16.5C10.3116 16.0178 10.329 15.554 10.3647 15.1085C10.4005 14.663 10.4518 14.2102 10.5188 13.75H5.84375C5.72917 14.2083 5.64346 14.6612 5.58663 15.1085C5.52979 15.5558 5.50092 16.0197 5.5 16.5C5.49908 16.9803 5.52796 17.4446 5.58663 17.8929C5.64529 18.3411 5.731 18.7935 5.84375 19.25ZM13.2687 19.25H19.7313C19.8 18.7917 19.8518 18.3393 19.8866 17.8929C19.9215 17.4465 19.9384 16.9822 19.9375 16.5C19.9366 16.0178 19.9192 15.554 19.8853 15.1085C19.8513 14.663 19.8 14.2102 19.7313 13.75H13.2687C13.2 14.2083 13.1487 14.6612 13.1147 15.1085C13.0808 15.5558 13.0634 16.0197 13.0625 16.5C13.0616 16.9803 13.079 17.4446 13.1147 17.8929C13.1505 18.3411 13.2018 18.7935 13.2687 19.25ZM22.4813 19.25H27.1562C27.2708 18.7917 27.357 18.3393 27.4147 17.8929C27.4725 17.4465 27.5009 16.9822 27.5 16.5C27.4991 16.0178 27.4707 15.554 27.4147 15.1085C27.3588 14.663 27.2727 14.2102 27.1562 13.75H22.4813C22.55 14.2083 22.6018 14.6612 22.6366 15.1085C22.6715 15.5558 22.6884 16.0197 22.6875 16.5C22.6866 16.9803 22.6692 17.4446 22.6353 17.8929C22.6013 18.3411 22.55 18.7935 22.4813 19.25ZM21.9312 11H25.9875C25.3229 9.85417 24.4924 8.85729 23.496 8.00937C22.4996 7.16146 21.3593 6.53125 20.075 6.11875C20.4875 6.875 20.8487 7.66013 21.1585 8.47412C21.4683 9.28813 21.7259 10.1301 21.9312 11ZM13.8875 11H19.1125C18.8375 9.99167 18.4823 9.04063 18.0469 8.14688C17.6115 7.25313 17.0958 6.39375 16.5 5.56875C15.9042 6.39375 15.3885 7.25313 14.9531 8.14688C14.5177 9.04063 14.1625 9.99167 13.8875 11ZM7.0125 11H11.0688C11.275 10.1292 11.533 9.28675 11.8429 8.47275C12.1527 7.65875 12.5134 6.87408 12.925 6.11875C11.6417 6.53125 10.5013 7.16146 9.504 8.00937C8.50667 8.85729 7.67617 9.85417 7.0125 11Z" fill="#1D4265"/>
</svg>
