<svg width="37" height="37" viewBox="0 0 37 37" fill="none" xmlns="http://www.w3.org/2000/svg">
<path d="M20.812 6.16699C20.1987 6.16699 19.6105 6.41063 19.1768 6.84431C18.7432 7.27799 18.4995 7.86618 18.4995 8.47949C18.4995 9.09281 18.7432 9.681 19.1768 10.1147C19.6105 10.5484 20.1987 10.792 20.812 10.792C21.4253 10.792 22.0135 10.5484 22.4472 10.1147C22.8809 9.681 23.1245 9.09281 23.1245 8.47949C23.1245 7.86618 22.8809 7.27799 22.4472 6.84431C22.0135 6.41063 21.4253 6.16699 20.812 6.16699ZM20.257 13.5207C18.4225 13.6749 13.412 17.6678 13.412 17.6678C13.1037 17.8991 13.1962 17.8837 13.4429 18.3153C13.6895 18.7316 13.6587 18.7624 13.9516 18.562C14.26 18.3616 14.7687 18.0378 15.6166 17.5137C18.885 15.417 16.1408 20.2578 14.7379 28.4132C14.1829 32.4524 17.8212 30.3712 18.7616 29.7545C19.6866 29.1532 22.1687 27.442 22.4154 27.2724C22.7545 27.0412 22.5079 26.8562 22.2458 26.4707C22.0608 26.2087 21.8758 26.3937 21.8758 26.3937C20.8737 27.0566 19.0391 28.4441 18.7924 27.5653C18.4995 26.6866 20.3804 20.6587 21.4133 16.5116C21.5829 15.5249 22.0454 13.3666 20.257 13.5207Z" fill="#1D4265"/>
</svg>
