<svg width="52" height="34" viewBox="0 0 52 34" fill="none" xmlns="http://www.w3.org/2000/svg">
<path fill-rule="evenodd" clip-rule="evenodd" d="M0 2.21739C0 1.6293 0.234795 1.0653 0.652733 0.649459C1.07067 0.233617 1.63752 0 2.22857 0H49.7714C50.3625 0 50.9293 0.233617 51.3473 0.649459C51.7652 1.0653 52 1.6293 52 2.21739C52 2.80548 51.7652 3.36948 51.3473 3.78532C50.9293 4.20117 50.3625 4.43478 49.7714 4.43478H2.22857C1.63752 4.43478 1.07067 4.20117 0.652733 3.78532C0.234795 3.36948 0 2.80548 0 2.21739ZM0 17C0 16.4119 0.234795 15.8479 0.652733 15.4321C1.07067 15.0162 1.63752 14.7826 2.22857 14.7826H34.9143C35.5053 14.7826 36.0722 15.0162 36.4901 15.4321C36.9081 15.8479 37.1429 16.4119 37.1429 17C37.1429 17.5881 36.9081 18.1521 36.4901 18.5679C36.0722 18.9838 35.5053 19.2174 34.9143 19.2174H2.22857C1.63752 19.2174 1.07067 18.9838 0.652733 18.5679C0.234795 18.1521 0 17.5881 0 17ZM0 31.7826C0 31.1945 0.234795 30.6305 0.652733 30.2147C1.07067 29.7988 1.63752 29.5652 2.22857 29.5652H17.0857C17.6768 29.5652 18.2436 29.7988 18.6616 30.2147C19.0795 30.6305 19.3143 31.1945 19.3143 31.7826C19.3143 32.3707 19.0795 32.9347 18.6616 33.3505C18.2436 33.7664 17.6768 34 17.0857 34H2.22857C1.63752 34 1.07067 33.7664 0.652733 33.3505C0.234795 32.9347 0 32.3707 0 31.7826Z" fill="#1D4265"/>
</svg>
