<svg width="31" height="30" viewBox="0 0 31 30" fill="none" xmlns="http://www.w3.org/2000/svg">
<path d="M24.3125 6.13744C23.1663 4.98008 21.8013 4.0624 20.2969 3.4379C18.7925 2.81339 17.1789 2.49455 15.55 2.49995C8.725 2.49995 3.1625 8.06245 3.1625 14.8874C3.1625 17.0749 3.7375 19.1999 4.8125 21.0749L3.0625 27.4999L9.625 25.7749C11.4375 26.7624 13.475 27.2874 15.55 27.2874C22.375 27.2874 27.9375 21.7249 27.9375 14.8999C27.9375 11.5874 26.65 8.47495 24.3125 6.13744ZM15.55 25.1874C13.7 25.1874 11.8875 24.6874 10.3 23.7499L9.925 23.5249L6.025 24.5499L7.0625 20.7499L6.8125 20.3624C5.78443 18.7213 5.23866 16.824 5.2375 14.8874C5.2375 9.21245 9.8625 4.58745 15.5375 4.58745C18.2875 4.58745 20.875 5.66245 22.8125 7.61245C23.772 8.56727 24.5324 9.70312 25.0495 10.9541C25.5667 12.2051 25.8302 13.5463 25.825 14.8999C25.85 20.5749 21.225 25.1874 15.55 25.1874ZM21.2 17.4874C20.8875 17.3374 19.3625 16.5874 19.0875 16.4749C18.8 16.3749 18.6 16.3249 18.3875 16.6249C18.175 16.9374 17.5875 17.6374 17.4125 17.8374C17.2375 18.0499 17.05 18.0749 16.7375 17.9124C16.425 17.7624 15.425 17.4249 14.25 16.3749C13.325 15.5499 12.7125 14.5374 12.525 14.2249C12.35 13.9124 12.5 13.7499 12.6625 13.5874C12.8 13.4499 12.975 13.2249 13.125 13.0499C13.275 12.8749 13.3375 12.7374 13.4375 12.5374C13.5375 12.3249 13.4875 12.1499 13.4125 11.9999C13.3375 11.8499 12.7125 10.3249 12.4625 9.69995C12.2125 9.09995 11.95 9.17495 11.7625 9.16245H11.1625C10.95 9.16245 10.625 9.23744 10.3375 9.54994C10.0625 9.86244 9.2625 10.6124 9.2625 12.1374C9.2625 13.6624 10.375 15.1374 10.525 15.3374C10.675 15.5499 12.7125 18.6749 15.8125 20.0124C16.55 20.3374 17.125 20.5249 17.575 20.6624C18.3125 20.8999 18.9875 20.8624 19.525 20.7874C20.125 20.6999 21.3625 20.0374 21.6125 19.3124C21.875 18.5874 21.875 17.9749 21.7875 17.8374C21.7 17.6999 21.5125 17.6374 21.2 17.4874Z" fill="white"/>
</svg>
