<svg width="22" height="25" viewBox="0 0 22 25" fill="none" xmlns="http://www.w3.org/2000/svg">
<path d="M16.2109 24.8505C15.2243 24.7102 13.8876 24.1666 11.9723 22.7451C9.64393 21.0114 7.87227 19.4646 5.70788 16.6758C3.62173 13.9822 2.66025 12.2935 1.42615 9.14549C0.0317064 5.59092 0.594291 3.91157 1.0539 3.22499C1.6017 2.40417 2.30035 1.96597 3.1809 1.55765C3.68026 1.33129 4.20038 1.15034 4.73466 1.01709C4.7882 1.00316 4.83808 0.989714 4.88261 0.977511C5.14838 0.903582 5.55101 0.792001 6.00607 1.03703C6.30992 1.19945 6.56202 1.47925 6.94878 1.97256C7.74212 2.98304 8.7186 5.12114 9.04479 6.14936C9.26344 6.8422 9.40829 7.29961 9.34053 7.77991C9.2606 8.34213 8.90782 8.73431 8.48797 9.15203C8.40926 9.23051 8.33161 9.30513 8.25634 9.37759C7.80188 9.81392 7.69729 9.94383 7.71687 10.2051C7.7572 10.7303 8.38231 12.3656 9.57338 13.901C10.7645 15.4364 12.1711 16.4169 12.6818 16.6007C12.9457 16.6958 13.107 16.6316 13.6836 16.3188C13.7663 16.2739 13.8513 16.2274 13.9398 16.1814C14.534 15.8686 14.9988 15.6536 15.5639 15.734L15.5669 15.7344C16.0587 15.8043 16.4503 16.0714 17.0993 16.5123C17.9457 17.0875 19.8526 18.5864 20.637 19.6091C21.0186 20.1062 21.2264 20.4183 21.303 20.7463C21.4184 21.2401 21.1949 21.5825 21.0483 21.8122C21.0238 21.8503 20.9968 21.892 20.968 21.9385C20.6856 22.3981 20.3601 22.8311 19.9956 23.232C19.3473 23.9363 18.717 24.4634 17.7498 24.7452C17.2526 24.8933 16.7264 24.9293 16.2109 24.8505Z" fill="#1D4265"/>
</svg>
