<svg width="24" height="24" viewBox="0 0 24 24" fill="none" xmlns="http://www.w3.org/2000/svg">
<path d="M10 3H14C16.1217 3 18.1566 3.84285 19.6569 5.34315C21.1571 6.84344 22 8.87827 22 11C22 13.1217 21.1571 15.1566 19.6569 16.6569C18.1566 18.1571 16.1217 19 14 19V22.5C9 20.5 2 17.5 2 11C2 8.87827 2.84285 6.84344 4.34315 5.34315C5.84344 3.84285 7.87827 3 10 3ZM12 17H14C15.5913 17 17.1174 16.3679 18.2426 15.2426C19.3679 14.1174 20 12.5913 20 11C20 9.4087 19.3679 7.88258 18.2426 6.75736C17.1174 5.63214 15.5913 5 14 5H10C8.4087 5 6.88258 5.63214 5.75736 6.75736C4.63214 7.88258 4 9.4087 4 11C4 14.61 6.462 16.966 12 19.48V17Z" fill="#1D4265"/>
</svg>
