<svg width="12" height="12" viewBox="0 0 12 12" fill="none" xmlns="http://www.w3.org/2000/svg">
<g clip-path="url(#clip0_1060_13649)">
<path d="M0.601361 0.103529L2.99408 2.49625L2.00532 3.48501C1.86776 3.62257 1.86776 3.84558 2.00532 3.98314C2.14285 4.12068 2.36589 4.1207 2.50345 3.98314L3.49224 2.99436L4.49699 3.99911L3.50823 4.98787C3.37067 5.12543 3.37067 5.34845 3.50823 5.48601C3.64577 5.62354 3.8688 5.62357 4.00637 5.48601L4.99515 4.49722L5.9999 5.50198L5.01114 6.49073C4.87358 6.6283 4.87358 6.85131 5.01114 6.98887C5.14868 7.12641 5.37172 7.12643 5.50928 6.98887L6.49806 6.00009L7.50281 7.00484L6.51405 7.9936C6.37649 8.13116 6.37649 8.35418 6.51405 8.49174C6.65159 8.62927 6.87463 8.6293 7.01219 8.49174L8.00097 7.50295L9.00572 8.5077L8.01696 9.49646C7.8794 9.63403 7.8794 9.85704 8.01696 9.9946C8.1545 10.1321 8.37754 10.1322 8.5151 9.9946L9.50388 9.00582L11.8965 11.3987C12.1178 11.6199 11.9608 12 11.6474 12H0.352304C0.157774 12 6.38962e-05 11.8423 6.38962e-05 11.6478V0.35261C4.1008e-05 0.0397036 0.379779 -0.118029 0.601361 0.103529ZM2.27786 9.36994C2.27786 9.56447 2.43556 9.72218 2.6301 9.72218H5.82373C6.13647 9.72218 6.29451 9.34258 6.07279 9.12086L2.87915 5.92722C2.65788 5.70595 2.27786 5.86295 2.27786 6.1763V9.36994Z" fill="white"/>
</g>
<defs>
<clipPath id="clip0_1060_13649">
<rect width="12" height="12" fill="white" transform="matrix(-1 0 0 1 12 0)"/>
</clipPath>
</defs>
</svg>
