<svg width="21" height="21" viewBox="0 0 21 21" fill="none" xmlns="http://www.w3.org/2000/svg">
<g clip-path="url(#clip0_4167_4958)">
<path d="M9 13.4229C9 14.8029 11.239 15.9229 14 15.9229C16.761 15.9229 19 14.8029 19 13.4229M1 8.42285C1 9.80285 3.239 10.9229 6 10.9229C7.126 10.9229 8.165 10.7369 9 10.4229M1 11.9229C1 13.3029 3.239 14.4229 6 14.4229C7.126 14.4229 8.164 14.2369 9 13.9229M14 11.9229C11.239 11.9229 9 10.8029 9 9.42285C9 8.04285 11.239 6.92285 14 6.92285C16.761 6.92285 19 8.04285 19 9.42285C19 10.8029 16.761 11.9229 14 11.9229Z" stroke="#C2C2C2" stroke-width="1.5" stroke-linecap="round" stroke-linejoin="round"/>
<path d="M1 4.42285V15.4229C1 16.8029 3.239 17.9229 6 17.9229C7.126 17.9229 8.164 17.7369 9 17.4229M9 17.4229V9.42285M9 17.4229C9 18.8029 11.239 19.9229 14 19.9229C16.761 19.9229 19 18.8029 19 17.4229V9.42285M11 7.42285V4.42285" stroke="#C2C2C2" stroke-width="1.5" stroke-linecap="round" stroke-linejoin="round"/>
<path d="M6 6.92285C3.239 6.92285 1 5.80285 1 4.42285C1 3.04285 3.239 1.92285 6 1.92285C8.761 1.92285 11 3.04285 11 4.42285C11 5.80285 8.761 6.92285 6 6.92285Z" stroke="#C2C2C2" stroke-width="1.5" stroke-linecap="round" stroke-linejoin="round"/>
</g>
<defs>
<clipPath id="clip0_4167_4958">
<rect width="21" height="20" fill="white" transform="translate(0 0.922852)"/>
</clipPath>
</defs>
</svg>
