<svg width="21" height="21" viewBox="0 0 21 21" fill="none" xmlns="http://www.w3.org/2000/svg">
<g clip-path="url(#clip0_4167_1652)">
<path d="M10 16.9C11.6974 16.9 13.3253 16.2257 14.5255 15.0255C15.7257 13.8253 16.4 12.1974 16.4 10.5C16.4 8.80261 15.7257 7.17475 14.5255 5.97452C13.3253 4.77428 11.6974 4.1 10 4.1C8.30261 4.1 6.67475 4.77428 5.47452 5.97452C4.27428 7.17475 3.6 8.80261 3.6 10.5C3.6 12.1974 4.27428 13.8253 5.47452 15.0255C6.67475 16.2257 8.30261 16.9 10 16.9ZM10 2.5C11.0506 2.5 12.0909 2.70693 13.0615 3.10896C14.0321 3.511 14.914 4.10028 15.6569 4.84315C16.3997 5.58601 16.989 6.46793 17.391 7.43853C17.7931 8.40914 18 9.44943 18 10.5C18 12.6217 17.1571 14.6566 15.6569 16.1569C14.1566 17.6571 12.1217 18.5 10 18.5C5.576 18.5 2 14.9 2 10.5C2 8.37827 2.84285 6.34344 4.34315 4.84315C5.84344 3.34285 7.87827 2.5 10 2.5ZM10.4 6.5V10.7L14 12.836L13.4 13.82L9.2 11.3V6.5H10.4Z" fill="#C2C2C2"/>
</g>
<defs>
<clipPath id="clip0_4167_1652">
<rect width="21" height="20" fill="white" transform="translate(0 0.5)"/>
</clipPath>
</defs>
</svg>
