<svg width="21" height="21" viewBox="0 0 21 21" fill="none" xmlns="http://www.w3.org/2000/svg">
<g clip-path="url(#clip0_4167_5007)">
<path d="M4.8125 8.95312V17.25C4.8125 17.3992 4.87176 17.5423 4.97725 17.6477C5.08274 17.7532 5.22582 17.8125 5.375 17.8125H8.75V13.0312C8.75 12.8075 8.83889 12.5929 8.99713 12.4346C9.15536 12.2764 9.36997 12.1875 9.59375 12.1875H12.4062C12.63 12.1875 12.8446 12.2764 13.0029 12.4346C13.1611 12.5929 13.25 12.8075 13.25 13.0312V17.8125H16.625C16.7742 17.8125 16.9173 17.7532 17.0227 17.6477C17.1282 17.5423 17.1875 17.3992 17.1875 17.25V8.95312" stroke="#C2C2C2" stroke-linecap="round" stroke-linejoin="round"/>
<path d="M18.875 10.4999L11.3829 3.328C11.2071 3.14237 10.7961 3.14026 10.6171 3.328L3.125 10.4999M16.0625 7.79284V3.74987H14.375V6.17566" stroke="#C2C2C2" stroke-linecap="round" stroke-linejoin="round"/>
</g>
<defs>
<clipPath id="clip0_4167_5007">
<rect width="21" height="20" fill="white" transform="translate(0 0.5)"/>
</clipPath>
</defs>
</svg>
