<svg width="56" height="54" viewBox="0 0 56 54" fill="none" xmlns="http://www.w3.org/2000/svg">
<path d="M16.3094 48.6965V25.0059H20.5094C20.8157 25.0059 21.1219 25.0391 21.4282 25.1056C21.7344 25.1721 22.0407 25.2482 22.3469 25.334L40.5251 32.0934C41.1376 32.3121 41.6302 32.7059 42.0029 33.2746C42.3757 33.8434 42.5612 34.434 42.5594 35.0465C42.5594 35.9652 42.2418 36.709 41.6066 37.2777C40.9713 37.8465 40.2389 38.1309 39.4095 38.1309H32.5188C32.3001 38.1309 32.1364 38.1204 32.0279 38.0994C31.9194 38.0784 31.7768 38.0232 31.6001 37.934L27.4001 36.2934L26.5469 38.8527L31.6001 40.6246C31.6876 40.6684 31.8188 40.7016 31.9938 40.7244C32.1688 40.7471 32.3219 40.7576 32.4532 40.7559H50.4344C51.8344 40.7559 53.0594 41.259 54.1094 42.2652C55.1594 43.2715 55.6844 44.5184 55.6844 46.0059L34.7501 53.8809L16.3094 48.6965ZM0.559448 53.8809V25.0059H11.0594V53.8809H0.559448ZM35.9969 17.1309H38.6219V14.5059H35.9969V17.1309ZM30.7469 17.1309H33.3719V14.5059H30.7469V17.1309ZM35.9969 22.3809H38.6219V19.7559H35.9969V22.3809ZM30.7469 22.3809H33.3719V19.7559H30.7469V22.3809ZM46.5626 32.8809C45.9501 31.4371 45.0751 30.1684 43.9376 29.0746C42.8001 27.9809 41.4001 27.1277 39.7376 26.5152L21.5594 19.7559H16.3094V13.1934L34.6844 0.0683594L53.0594 13.1934V32.8809H46.5626Z" fill="#1D4265"/>
</svg>
