<svg width="19" height="18" viewBox="0 0 19 18" fill="none" xmlns="http://www.w3.org/2000/svg">
<path d="M18.9304 13.17C18.5769 12.24 16.435 12.11 15.4369 9.98C15.3745 9.82 15.3849 9.71 15.5512 9.61C16.3206 9.12 16.8613 8.85 17.1732 8.28C17.402 7.87 17.4332 7.39 17.2564 6.95C17.0173 6.34 16.4142 5.95 15.676 5.95C15.4161 5.95 15.2081 6 15.1042 6.02C15.1146 5.6 15.1042 5.16 15.0626 4.72C14.9274 3.19 14.3659 2.38 13.7837 1.74C13.4406 1.37 12.0785 0 9.5 0C6.92146 0 5.55942 1.37 5.2163 1.74C4.63405 2.38 4.0726 3.19 3.93743 4.72C3.90624 5.16 3.89584 5.6 3.89584 6.02C3.78147 5.99 3.58392 5.95 3.32399 5.95C2.59618 5.95 1.98274 6.33 1.7436 6.95C1.56684 7.38 1.59804 7.87 1.82678 8.28C2.14909 8.86 2.67936 9.12 3.44876 9.61C3.61512 9.72 3.62551 9.82 3.56313 9.98C2.55459 12.11 0.423139 12.24 0.0696304 13.17C-0.0863295 13.57 0.0176437 14.02 0.402345 14.4C0.994992 14.99 2.09711 15.17 2.31545 15.31C2.49221 15.45 2.47141 15.87 2.97048 16.21C3.36558 16.47 3.80227 16.49 4.27015 16.5C5.6322 16.55 5.93372 16.77 6.45359 17.08C7.10862 17.47 8.00279 18 9.5 18C10.9972 18 11.8914 17.47 12.5464 17.08C13.0663 16.77 13.3678 16.55 14.7299 16.5C15.1977 16.48 15.6344 16.47 16.0295 16.21C16.539 15.87 16.5182 15.45 16.6845 15.31C16.9029 15.17 18.005 14.99 18.5977 14.4C18.9824 14.02 19.0863 13.57 18.9304 13.17ZM17.8594 13.7C17.4747 14.09 16.5494 14.2 16.0607 14.52C15.5616 14.94 15.6448 15.26 15.4473 15.39C15.3121 15.48 15.073 15.49 14.6987 15.51C13.243 15.56 12.7128 15.82 12.0785 16.2C10.5917 17.08 9.75993 17 9.5 17C9.24007 17 8.40828 17.08 6.93186 16.19C6.29763 15.81 5.77776 15.56 4.31174 15.5C3.93743 15.49 3.6983 15.47 3.56313 15.38C3.36558 15.25 3.43836 14.93 2.94969 14.51C2.45062 14.19 1.53565 14.08 1.15095 13.69C1.08857 13.63 1.03658 13.55 1.02618 13.54C1.09896 13.44 1.45247 13.24 1.71241 13.1C2.5234 12.64 3.77108 11.96 4.53008 10.35C4.80041 9.65 4.56127 9.09 4.03101 8.76C2.83532 8.03 2.85611 8 2.74174 7.8C2.70067 7.72333 2.67668 7.63926 2.67131 7.55316C2.66594 7.46707 2.6793 7.38084 2.71055 7.3C2.83532 6.98 3.17843 6.95 3.31359 6.95C3.51114 6.95 3.50075 6.96 4.94597 7.32C4.92518 5.92 4.90438 5.47 4.96677 4.81C5.08114 3.5 5.55942 2.88 5.98571 2.41C6.27683 2.11 7.41014 0.98 9.5 1C11.5899 0.98 12.7232 2.11 13.0039 2.41C13.4302 2.88 13.9085 3.5 14.0228 4.81C14.0852 5.47 14.0644 5.92 14.0436 7.32C15.4993 6.96 15.4785 6.95 15.676 6.95C15.8216 6.95 16.1543 6.98 16.2791 7.3C16.3518 7.47 16.3414 7.65 16.2479 7.8C16.1335 8 16.1543 8.02 14.969 8.77C14.4387 9.1 14.1996 9.66 14.4699 10.36C15.2289 11.97 16.4766 12.65 17.2876 13.11C17.5475 13.26 17.901 13.45 17.9738 13.55C17.9738 13.56 17.9114 13.64 17.8594 13.7Z" fill="#1D4265"/>
</svg>
