<svg width="15" height="18" viewBox="0 0 15 18" fill="none" xmlns="http://www.w3.org/2000/svg">
<path d="M10.625 4C10.625 4.8288 10.2958 5.62366 9.70973 6.20971C9.12368 6.79576 8.32882 7.125 7.50002 7.125C6.67122 7.125 5.87636 6.79576 5.29031 6.20971C4.70426 5.62366 4.37502 4.8288 4.37502 4C4.37502 3.1712 4.70426 2.37634 5.29031 1.79029C5.87636 1.20424 6.67122 0.875 7.50002 0.875C8.32882 0.875 9.12368 1.20424 9.70973 1.79029C10.2958 2.37634 10.625 3.1712 10.625 4ZM1.25085 15.765C1.27763 14.1253 1.9478 12.5618 3.11684 11.4117C4.28587 10.2616 5.86009 9.61706 7.50002 9.61706C9.13995 9.61706 10.7142 10.2616 11.8832 11.4117C13.0522 12.5618 13.7224 14.1253 13.7492 15.765C11.7887 16.664 9.65681 17.1279 7.50002 17.125C5.27002 17.125 3.15335 16.6383 1.25085 15.765Z" stroke="#1D4265" stroke-width="1.5" stroke-linecap="round" stroke-linejoin="round"/>
</svg>
