<svg width="13" height="24" viewBox="0 0 13 24" fill="none" xmlns="http://www.w3.org/2000/svg">
<path d="M12.6826 22.1368C12.7832 22.2381 12.863 22.3584 12.9175 22.4909C12.972 22.6233 13 22.7652 13 22.9085C13 23.0519 12.972 23.1938 12.9175 23.3262C12.863 23.4586 12.7832 23.579 12.6826 23.6803C12.5819 23.7817 12.4624 23.8621 12.3309 23.9169C12.1994 23.9718 12.0585 24 11.9162 24C11.7739 24 11.6329 23.9718 11.5014 23.9169C11.3699 23.8621 11.2505 23.7817 11.1498 23.6803L0.317691 12.7718C0.216978 12.6705 0.137082 12.5502 0.0825702 12.4177C0.0280583 12.2853 0 12.1434 0 12C0 11.8566 0.0280583 11.7147 0.0825702 11.5823C0.137082 11.4498 0.216978 11.3295 0.317691 11.2282L11.1498 0.319681C11.3531 0.114993 11.6287 -5.70621e-09 11.9162 0C12.2036 5.70621e-09 12.4793 0.114993 12.6826 0.319681C12.8858 0.52437 13 0.801987 13 1.09146C13 1.38093 12.8858 1.65855 12.6826 1.86324L2.61545 12L12.6826 22.1368Z" fill="#1D4265"/>
</svg>
