<svg width="23" height="23" viewBox="0 0 23 23" fill="none" xmlns="http://www.w3.org/2000/svg">
<path d="M23 11.4885C23 5.14625 17.848 0 11.5 0C5.152 0 0 5.14625 0 11.4885C0 14.9816 1.587 18.1297 4.071 20.2429C4.094 20.2659 4.117 20.2659 4.117 20.2889C4.324 20.4499 4.531 20.6109 4.761 20.7719C4.876 20.8409 4.968 20.9314 5.083 21.0234C6.98424 22.3104 9.22716 22.9988 11.523 23C13.8188 22.9988 16.0618 22.3104 17.963 21.0234C18.078 20.9544 18.17 20.8639 18.285 20.7934C18.492 20.6339 18.722 20.4729 18.929 20.3119C18.952 20.2889 18.975 20.2889 18.975 20.2659C21.413 18.1283 23 14.9816 23 11.4885ZM11.5 21.5524C9.338 21.5524 7.36 20.8624 5.727 19.7139C5.75 19.5299 5.796 19.3473 5.842 19.1633C5.9795 18.6648 6.18048 18.186 6.44 17.7388C6.693 17.3018 6.992 16.9107 7.36 16.5658C7.705 16.2208 8.119 15.9002 8.533 15.6472C8.97 15.3942 9.43 15.2102 9.936 15.0722C10.4461 14.9356 10.9719 14.8665 11.5 14.8666C13.068 14.8548 14.5784 15.4563 15.709 16.5428C16.238 17.0718 16.652 17.6923 16.951 18.4043C17.112 18.8183 17.227 19.2548 17.296 19.7139C15.5986 20.9072 13.5749 21.5491 11.5 21.5524ZM7.981 10.9149C7.77876 10.4508 7.67687 9.94919 7.682 9.44294C7.682 8.93837 7.774 8.43237 7.981 7.97237C8.188 7.51237 8.464 7.09981 8.809 6.75481C9.154 6.40981 9.568 6.13525 10.028 5.92825C10.488 5.72125 10.994 5.62925 11.5 5.62925C12.029 5.62925 12.512 5.72125 12.972 5.92825C13.432 6.13525 13.846 6.41125 14.191 6.75481C14.536 7.09981 14.812 7.51381 15.019 7.97237C15.226 8.43237 15.318 8.93837 15.318 9.44294C15.318 9.97194 15.226 10.4549 15.019 10.9135C14.8204 11.3673 14.5397 11.7806 14.191 12.1325C13.839 12.4806 13.4257 12.7609 12.972 12.9591C12.0214 13.3489 10.9556 13.3489 10.005 12.9591C9.55129 12.7609 9.13804 12.4806 8.786 12.1325C8.43704 11.7856 8.16305 11.3721 7.981 10.9149ZM18.653 18.5423C18.653 18.4963 18.63 18.4733 18.63 18.4273C18.4042 17.7076 18.0708 17.0261 17.641 16.4062C17.2109 15.7817 16.6828 15.2307 16.077 14.7746C15.6142 14.4264 15.1125 14.1331 14.582 13.9006C14.8222 13.7399 15.0457 13.5555 15.249 13.3501C15.5919 13.0115 15.893 12.6332 16.146 12.2231C16.6571 11.3869 16.9203 10.4228 16.905 9.44294C16.9125 8.7177 16.7716 7.99859 16.491 7.32981C16.2143 6.68531 15.816 6.10014 15.318 5.60625C14.8195 5.11901 14.2345 4.72901 13.593 4.45625C12.9232 4.17573 12.2031 4.03532 11.477 4.04369C10.7508 4.03578 10.0307 4.17667 9.361 4.45769C8.71246 4.72712 8.12555 5.12573 7.636 5.62925C7.14622 6.12514 6.75586 6.71019 6.486 7.35281C6.20537 8.02159 6.06448 8.7407 6.072 9.46594C6.072 9.97194 6.141 10.4545 6.279 10.9135C6.417 11.3965 6.601 11.8335 6.854 12.2461C7.084 12.6601 7.406 13.0281 7.751 13.3731C7.958 13.5801 8.188 13.7636 8.441 13.9236C7.90811 14.1609 7.40609 14.4621 6.946 14.8206C6.348 15.2806 5.819 15.8312 5.382 16.4292C4.94827 17.0468 4.61451 17.7289 4.393 18.4503C4.37 18.4963 4.37 18.5423 4.37 18.5653C2.553 16.7267 1.426 14.2456 1.426 11.4885C1.426 5.95125 5.957 1.42456 11.5 1.42456C17.043 1.42456 21.574 5.95125 21.574 11.4885C21.571 14.1334 20.5208 16.6696 18.653 18.5423Z" fill="white"/>
</svg>
