<svg width="30" height="24" viewBox="0 0 30 24" fill="none" xmlns="http://www.w3.org/2000/svg">
<path d="M23.9347 0.000863847C23.5407 -0.00876048 23.0895 0.061818 22.5683 0.223507L2.19493 6.56465C1.15014 6.89188 0.5464 7.36026 0.2458 7.93772C-0.057977 8.50877 -0.0967436 9.28513 0.222922 10.3374L0.597877 11.5693L26.6738 3.4592L26.2988 2.22087C25.9747 1.16733 25.5108 0.552659 24.9388 0.253021C24.6528 0.0983904 24.3224 0.00984655 23.9347 0.000863847ZM27.7033 6.84697L1.63123 14.9635L3.70683 21.7839C4.02649 22.8298 4.48978 23.4457 5.05984 23.7473C5.63181 24.0553 6.39443 24.1002 7.43668 23.7794L27.805 17.4401C28.8473 17.1129 29.451 16.6445 29.7497 16.0671C30.0547 15.4896 30.0992 14.7197 29.7815 13.6674L27.7033 6.84697Z" fill="#1D4265"/>
</svg>
