<svg width="62" height="59" viewBox="0 0 62 59" fill="none" xmlns="http://www.w3.org/2000/svg">
<g filter="url(#filter0_d_1727_7540)">
<g clip-path="url(#clip0_1727_7540)">
<path d="M39.7463 9.02776C41.105 8.10182 42.7304 7.64804 44.3722 7.73625C46.0141 7.82447 47.5815 8.44979 48.8332 9.51599C50.0849 10.5822 50.9515 12.0302 51.2997 13.6371C51.6479 15.2441 51.4584 16.9209 50.7603 18.4096C50.6478 18.6498 50.6353 18.9248 50.7256 19.1742C50.8158 19.4236 51.0015 19.6269 51.2416 19.7394C51.4818 19.8519 51.7568 19.8644 52.0062 19.7742C52.2556 19.6839 52.4589 19.4983 52.5714 19.2581C53.4248 17.4369 53.6782 15.3918 53.295 13.4173C52.9119 11.4429 51.9119 9.64103 50.4393 8.2712C48.9666 6.90137 47.0972 6.03428 45.1002 5.79479C43.1032 5.5553 41.0818 5.95578 39.327 6.93855L40.1326 3.95335C40.2017 3.69726 40.1663 3.42419 40.0341 3.19421C39.902 2.96422 39.6838 2.79616 39.4278 2.727C39.1717 2.65784 38.8986 2.69324 38.6686 2.82542C38.4386 2.95759 38.2706 3.17572 38.2014 3.4318L36.6381 9.22474C36.5693 9.48087 36.6051 9.75385 36.7376 9.98361C36.8256 10.1298 36.9463 10.2534 37.0904 10.3449C37.2344 10.4363 37.3977 10.493 37.5674 10.5104L43.1356 12.0137C43.3917 12.0829 43.6648 12.0475 43.8947 11.9153C44.1247 11.7831 44.2928 11.565 44.3619 11.3089C44.4311 11.0528 44.3957 10.7798 44.2635 10.5498C44.1314 10.3198 43.9132 10.1517 43.6572 10.0826L39.7463 9.02776Z" fill="white"/>
</g>
<path d="M11.8571 33.8454H16.4286M16.4286 26.9883H39.2857C43.56 26.9883 45.6949 26.9883 47.2857 27.9071C48.328 28.509 49.1936 29.3745 49.7954 30.4169C50.7143 32.0077 50.7143 34.1426 50.7143 38.4169C50.7143 42.6911 50.7143 44.826 49.7954 46.4169C49.1936 47.4592 48.328 48.3248 47.2857 48.9266C45.6949 49.8454 43.56 49.8454 39.2857 49.8454H38.3851C36.8149 49.8454 36.0309 49.8454 35.2971 49.6831C34.3137 49.4648 33.3905 49.0324 32.5931 48.4169C31.9989 47.9551 31.496 47.354 30.4903 46.1471C29.6903 45.1871 29.288 44.7071 28.8286 44.49C28.5246 44.3473 28.1929 44.2733 27.8571 44.2733C27.5213 44.2733 27.1897 44.3473 26.8857 44.49C26.4263 44.7049 26.0263 45.1849 25.224 46.1471C24.2183 47.354 23.7154 47.9551 23.1211 48.4169C22.3238 49.0324 21.4005 49.4648 20.4171 49.6831C19.6857 49.8454 18.8994 49.8454 17.3291 49.8454H16.4286C12.1543 49.8454 10.0194 49.8454 8.42857 48.9266C7.38624 48.3248 6.52067 47.4592 5.91886 46.4169C5 44.826 5 42.6911 5 38.4169C5 34.1426 5 32.0077 5.91886 30.4169C6.52067 29.3745 7.38624 28.509 8.42857 27.9071C10.0194 26.9883 12.1543 26.9883 16.4286 26.9883Z" stroke="white" stroke-width="1.5" stroke-linecap="round" stroke-linejoin="round"/>
<path d="M50.7143 36.1314V33.4526C50.7143 30.8171 50.7143 29.4983 50.3646 28.2686C50.1717 27.5937 49.9017 26.9433 49.56 26.3303C48.9406 25.2148 48.0057 24.2823 46.1429 22.4171C44.28 20.552 43.3451 19.6194 42.2297 19C41.6166 18.6583 40.9663 18.3883 40.2914 18.1954C39.0617 17.8457 37.7429 17.8457 35.1074 17.8457H20.6069C17.9714 17.8457 16.6526 17.8457 15.4229 18.1954C14.748 18.3883 14.0976 18.6583 13.4846 19C12.3691 19.6194 11.4366 20.5543 9.57143 22.4171C7.70629 24.28 6.77371 25.2148 6.15429 26.3303C5.81259 26.9433 5.54262 27.5937 5.34971 28.2686C5 29.4983 5 30.8171 5 33.4526V36.1314" stroke="white" stroke-width="1.5" stroke-linecap="round" stroke-linejoin="round"/>
</g>
<defs>
<filter id="filter0_d_1727_7540" x="0.25" y="0" width="61.5957" height="58.5957" filterUnits="userSpaceOnUse" color-interpolation-filters="sRGB">
<feFlood flood-opacity="0" result="BackgroundImageFix"/>
<feColorMatrix in="SourceAlpha" type="matrix" values="0 0 0 0 0 0 0 0 0 0 0 0 0 0 0 0 0 0 127 0" result="hardAlpha"/>
<feOffset dy="4"/>
<feGaussianBlur stdDeviation="2"/>
<feComposite in2="hardAlpha" operator="out"/>
<feColorMatrix type="matrix" values="0 0 0 0 0 0 0 0 0 0 0 0 0 0 0 0 0 0 0.25 0"/>
<feBlend mode="normal" in2="BackgroundImageFix" result="effect1_dropShadow_1727_7540"/>
<feBlend mode="normal" in="SourceGraphic" in2="effect1_dropShadow_1727_7540" result="shape"/>
</filter>
<clipPath id="clip0_1727_7540">
<rect width="24" height="24" fill="white" transform="translate(34.7773) rotate(16.0206)"/>
</clipPath>
</defs>
</svg>
