<svg width="56" height="42" viewBox="0 0 56 42" fill="none" xmlns="http://www.w3.org/2000/svg">
<g filter="url(#filter0_d_1727_7551)">
<path d="M11.8571 16.9997H16.4286M16.4286 10.1426H39.2857C43.56 10.1426 45.6949 10.1426 47.2857 11.0614C48.328 11.6633 49.1936 12.5288 49.7954 13.5711C50.7143 15.162 50.7143 17.2969 50.7143 21.5712C50.7143 25.8454 50.7143 27.9803 49.7954 29.5712C49.1936 30.6135 48.328 31.479 47.2857 32.0809C45.6949 32.9997 43.56 32.9997 39.2857 32.9997H38.3851C36.8149 32.9997 36.0309 32.9997 35.2971 32.8374C34.3137 32.6191 33.3905 32.1867 32.5931 31.5712C31.9989 31.1094 31.496 30.5083 30.4903 29.3014C29.6903 28.3414 29.288 27.8614 28.8286 27.6443C28.5246 27.5016 28.1929 27.4276 27.8571 27.4276C27.5213 27.4276 27.1897 27.5016 26.8857 27.6443C26.4263 27.8591 26.0263 28.3392 25.224 29.3014C24.2183 30.5083 23.7154 31.1094 23.1211 31.5712C22.3238 32.1867 21.4005 32.6191 20.4171 32.8374C19.6857 32.9997 18.8994 32.9997 17.3291 32.9997H16.4286C12.1543 32.9997 10.0194 32.9997 8.42857 32.0809C7.38624 31.479 6.52067 30.6135 5.91886 29.5712C5 27.9803 5 25.8454 5 21.5712C5 17.2969 5 15.162 5.91886 13.5711C6.52067 12.5288 7.38624 11.6633 8.42857 11.0614C10.0194 10.1426 12.1543 10.1426 16.4286 10.1426Z" stroke="white" stroke-width="1.5" stroke-linecap="round" stroke-linejoin="round"/>
<path d="M50.7143 19.2857V16.6069C50.7143 13.9714 50.7143 12.6526 50.3646 11.4229C50.1717 10.748 49.9017 10.0976 49.56 9.48457C48.9406 8.36914 48.0057 7.43657 46.1429 5.57143C44.28 3.70629 43.3451 2.77371 42.2297 2.15429C41.6166 1.81259 40.9663 1.54262 40.2914 1.34971C39.0617 1 37.7429 1 35.1074 1H20.6069C17.9714 1 16.6526 1 15.4229 1.34971C14.748 1.54262 14.0976 1.81259 13.4846 2.15429C12.3691 2.77371 11.4366 3.70857 9.57143 5.57143C7.70629 7.43429 6.77371 8.36914 6.15429 9.48457C5.81259 10.0976 5.54262 10.748 5.34971 11.4229C5 12.6526 5 13.9714 5 16.6069V19.2857" stroke="white" stroke-width="1.5" stroke-linecap="round" stroke-linejoin="round"/>
</g>
<defs>
<filter id="filter0_d_1727_7551" x="0.25" y="0.25" width="55.2148" height="41.5" filterUnits="userSpaceOnUse" color-interpolation-filters="sRGB">
<feFlood flood-opacity="0" result="BackgroundImageFix"/>
<feColorMatrix in="SourceAlpha" type="matrix" values="0 0 0 0 0 0 0 0 0 0 0 0 0 0 0 0 0 0 127 0" result="hardAlpha"/>
<feOffset dy="4"/>
<feGaussianBlur stdDeviation="2"/>
<feComposite in2="hardAlpha" operator="out"/>
<feColorMatrix type="matrix" values="0 0 0 0 0 0 0 0 0 0 0 0 0 0 0 0 0 0 0.25 0"/>
<feBlend mode="normal" in2="BackgroundImageFix" result="effect1_dropShadow_1727_7551"/>
<feBlend mode="normal" in="SourceGraphic" in2="effect1_dropShadow_1727_7551" result="shape"/>
</filter>
</defs>
</svg>
