<svg width="21" height="21" viewBox="0 0 21 21" fill="none" xmlns="http://www.w3.org/2000/svg">
<path fill-rule="evenodd" clip-rule="evenodd" d="M6 11.5C6 12.0304 5.78929 12.5391 5.41421 12.9142C5.03914 13.2893 4.53043 13.5 4 13.5C3.46957 13.5 2.96086 13.2893 2.58579 12.9142C2.21071 12.5391 2 12.0304 2 11.5C2 10.9696 2.21071 10.4609 2.58579 10.0858C2.96086 9.71071 3.46957 9.5 4 9.5C4.53043 9.5 5.03914 9.71071 5.41421 10.0858C5.78929 10.4609 6 10.9696 6 11.5ZM11 9.5C11.5304 9.5 12.0391 9.71071 12.4142 10.0858C12.7893 10.4609 13 10.9696 13 11.5C13 12.0304 12.7893 12.5391 12.4142 12.9142C12.0391 13.2893 11.5304 13.5 11 13.5C10.4696 13.5 9.96086 13.2893 9.58579 12.9142C9.21071 12.5391 9 12.0304 9 11.5C9 10.9696 9.21071 10.4609 9.58579 10.0858C9.96086 9.71071 10.4696 9.5 11 9.5ZM18 9.5C18.5304 9.5 19.0391 9.71071 19.4142 10.0858C19.7893 10.4609 20 10.9696 20 11.5C20 12.0304 19.7893 12.5391 19.4142 12.9142C19.0391 13.2893 18.5304 13.5 18 13.5C17.4696 13.5 16.9609 13.2893 16.5858 12.9142C16.2107 12.5391 16 12.0304 16 11.5C16 10.9696 16.2107 10.4609 16.5858 10.0858C16.9609 9.71071 17.4696 9.5 18 9.5Z" fill="#C2C2C2"/>
</svg>
