<svg width="26" height="26" viewBox="0 0 26 26" fill="none" xmlns="http://www.w3.org/2000/svg">
<path d="M25.987 5.9114C25.9749 5.3537 25.9302 4.79719 25.8531 4.24471C25.7599 3.75337 25.6012 3.27676 25.3812 2.82764C24.9002 1.87752 24.1288 1.10558 23.179 0.624031C22.7327 0.405261 22.2592 0.246991 21.7711 0.153408C21.2144 0.0749268 20.6536 0.0293454 20.0915 0.0169009C19.8536 0.0078004 19.5455 0.00390022 19.4025 0.00390022L6.6001 0C6.4571 0 6.149 0.00390018 5.9111 0.0130006C5.35343 0.0250918 4.79695 0.0698037 4.2445 0.146907C3.75318 0.240122 3.2766 0.398846 2.8275 0.618831C1.87743 1.09982 1.10552 1.87131 0.624 2.82114C0.405241 3.26746 0.246979 3.74095 0.1534 4.22911C0.074488 4.78581 0.0284749 5.34668 0.0156001 5.9088C0.00780011 6.14671 0.00260012 6.45482 0.00260012 6.59783L0 19.4009C0 19.5439 0.00389999 19.852 0.013 20.0899C0.0250906 20.6476 0.0698002 21.2041 0.1469 21.7566C0.24011 22.2479 0.398826 22.7245 0.6188 23.1737C1.09976 24.1238 1.87121 24.8957 2.821 25.3773C3.26729 25.596 3.74077 25.7543 4.2289 25.8479C4.7856 25.9264 5.34644 25.972 5.9085 25.9844C6.1464 25.9935 6.4545 25.9974 6.5975 25.9974L19.3999 26C19.5429 26 19.851 25.9961 20.0889 25.987C20.6466 25.9749 21.2031 25.9302 21.7555 25.8531C22.2468 25.7599 22.7234 25.6012 23.1725 25.3812C24.1231 24.9004 24.8954 24.1289 25.3773 23.1789C25.5961 22.7325 25.7543 22.259 25.8479 21.7709C25.9268 21.2142 25.9728 20.6533 25.9857 20.0912C25.9935 19.8533 25.9987 19.5452 25.9987 19.4022L26 6.60043C26 6.45742 25.9961 6.14931 25.987 5.9114ZM13.2821 22.0452H13.2782C11.7306 22.0463 10.2075 21.6583 8.8491 20.9167L3.9351 22.2051L5.2507 17.404C4.23209 15.6363 3.82508 13.5819 4.09279 11.5594C4.36049 9.53683 5.28795 7.65911 6.73137 6.21734C8.17478 4.77557 10.0535 3.8503 12.0763 3.58499C14.099 3.31968 16.1528 3.72915 17.9192 4.74991C19.6856 5.77067 21.0659 7.3457 21.846 9.2308C22.6262 11.1159 22.7627 13.2057 22.2344 15.1763C21.7061 17.1469 20.5424 18.8881 18.9238 20.13C17.3052 21.3719 15.3222 22.0451 13.2821 22.0452Z" fill="#00DD3B"/>
<path d="M13.0029 5.00135C11.5735 5.00093 10.1701 5.38347 8.93866 6.10917C7.70721 6.83487 6.69266 7.87725 6.00052 9.12789C5.30838 10.3785 4.96393 11.7918 5.00299 13.2206C5.04204 14.6495 5.46318 16.0418 6.2226 17.2528L6.41292 17.5551L5.60437 20.5059L8.63207 19.7122L8.92363 19.885C10.1557 20.6161 11.5621 21.0013 12.9948 21H12.9988C15.1205 21.0004 17.1554 20.1578 18.6559 18.6578C20.1565 17.1578 20.9996 15.1231 21 13.0013C21.0004 10.8796 20.1579 8.84464 18.6579 7.3441C17.1578 5.84356 15.1232 5.00036 13.0015 5L13.0029 5.00135ZM17.7057 16.4347C17.529 16.7272 17.2936 16.9797 17.0143 17.1765C16.7351 17.3733 16.418 17.5101 16.0832 17.5781C15.5779 17.6649 15.0593 17.6325 14.5687 17.4836C14.1031 17.3393 13.6458 17.1698 13.1986 16.976C11.5379 16.1426 10.1224 14.8918 9.09101 13.3462C8.52816 12.6309 8.1866 11.7667 8.10833 10.8598C8.10209 10.4855 8.17375 10.114 8.31876 9.76895C8.46376 9.42387 8.67894 9.1127 8.95063 8.85522C9.03124 8.76387 9.12973 8.69003 9.24002 8.63825C9.3503 8.58648 9.47003 8.55787 9.5918 8.5542C9.75109 8.5542 9.91172 8.5542 10.0521 8.5623C10.2006 8.56905 10.3977 8.50561 10.592 8.97536C10.7945 9.45592 11.2751 10.6398 11.3345 10.7599C11.3723 10.823 11.394 10.8944 11.3976 10.9679C11.4011 11.0414 11.3864 11.1146 11.3547 11.181C11.2944 11.3256 11.2135 11.4606 11.1144 11.582C10.9929 11.7223 10.862 11.8951 10.754 12.0031C10.6325 12.1233 10.5083 12.2528 10.6474 12.4931C11.0091 13.1111 11.4598 13.6723 11.9851 14.1589C12.5562 14.6653 13.2106 15.069 13.9194 15.3521C14.1597 15.4736 14.3001 15.452 14.4404 15.2914C14.5808 15.1308 15.0411 14.5895 15.2018 14.3492C15.3624 14.1089 15.5217 14.1494 15.7417 14.2291C15.9617 14.3087 17.1455 14.8905 17.3858 15.012C17.6261 15.1335 17.7867 15.1915 17.8461 15.2914C17.911 15.6781 17.8622 16.0753 17.7057 16.4347Z" fill="#00DD3B"/>
</svg>
