<svg width="28" height="28" viewBox="0 0 28 28" fill="none" xmlns="http://www.w3.org/2000/svg">
<path d="M21.9103 27.1254C20.7665 27.1254 19.1599 26.7118 16.754 25.3676C13.8284 23.727 11.5655 22.2123 8.65577 19.3102C5.8503 16.5065 4.48507 14.6913 2.57432 11.2143C0.41573 7.28852 0.783699 5.23071 1.19503 4.35121C1.68487 3.30004 2.40792 2.67133 3.34249 2.04731C3.87332 1.69952 4.43507 1.40138 5.02061 1.15668C5.07921 1.13149 5.1337 1.10746 5.18233 1.08578C5.47237 0.95512 5.91182 0.757659 6.46847 0.968597C6.83995 1.10805 7.17159 1.3934 7.69073 1.9061C8.75538 2.9561 10.2103 5.29457 10.747 6.44301C11.1073 7.21703 11.3458 7.72797 11.3464 8.30102C11.3464 8.97192 11.0089 9.4893 10.5993 10.0477C10.5226 10.1526 10.4464 10.2528 10.3726 10.35C9.92667 10.936 9.82882 11.1053 9.89327 11.4077C10.0239 12.0153 10.9983 13.8241 12.5997 15.4219C14.2011 17.0198 15.9577 17.9327 16.5677 18.0627C16.8829 18.1301 17.0558 18.0282 17.6605 17.5664C17.7472 17.5002 17.8362 17.4317 17.9294 17.3631C18.554 16.8985 19.0474 16.5698 19.7024 16.5698H19.706C20.2761 16.5698 20.7642 16.817 21.5728 17.2248C22.6274 17.7569 25.0362 19.193 26.0927 20.2588C26.6066 20.7768 26.8931 21.1073 27.0331 21.4782C27.2441 22.0366 27.0454 22.4743 26.9159 22.7672C26.8942 22.8159 26.8702 22.8692 26.845 22.9284C26.5984 23.5129 26.2985 24.0734 25.9491 24.603C25.3263 25.5346 24.6952 26.2559 23.6417 26.7463C23.1007 27.0023 22.5087 27.1319 21.9103 27.1254Z" fill="white"/>
</svg>
