<svg width="30" height="30" viewBox="0 0 30 30" fill="none" xmlns="http://www.w3.org/2000/svg">
<path d="M20.4231 24.4998C19.6387 24.4998 18.5367 24.2162 16.8867 23.2945C14.8801 22.1695 13.3281 21.1308 11.3325 19.1408C9.40831 17.2182 8.47196 15.9734 7.16147 13.5892C5.68099 10.8972 5.93336 9.48614 6.21547 8.88305C6.55143 8.16224 7.04734 7.73112 7.68832 7.30321C8.05239 7.06472 8.43767 6.86028 8.83927 6.69249C8.87946 6.67521 8.91683 6.65874 8.95018 6.64387C9.14911 6.55427 9.45051 6.41887 9.83228 6.56351C10.0871 6.65914 10.3145 6.85481 10.6706 7.20638C11.4008 7.92639 12.3986 9.52993 12.7667 10.3174C13.0139 10.8482 13.1774 11.1986 13.1778 11.5915C13.1778 12.0516 12.9464 12.4063 12.6655 12.7893C12.6128 12.8612 12.5606 12.9299 12.5099 12.9966C12.2041 13.3984 12.137 13.5145 12.1812 13.7218C12.2708 14.1385 12.9391 15.3788 14.0374 16.4745C15.1357 17.5702 16.3405 18.1962 16.7589 18.2853C16.9751 18.3316 17.0936 18.2616 17.5084 17.945C17.5678 17.8996 17.6289 17.8526 17.6928 17.8056C18.1212 17.487 18.4596 17.2616 18.9089 17.2616H18.9113C19.3023 17.2616 19.6371 17.4311 20.1916 17.7108C20.915 18.0756 22.5671 19.0604 23.2916 19.7913C23.6441 20.1464 23.8406 20.3731 23.9366 20.6274C24.0813 21.0103 23.9451 21.3104 23.8563 21.5113C23.8414 21.5447 23.8249 21.5812 23.8076 21.6218C23.6385 22.0226 23.4328 22.407 23.1932 22.7701C22.766 23.409 22.3332 23.9036 21.6106 24.2399C21.2396 24.4154 20.8335 24.5043 20.4231 24.4998Z" fill="white"/>
</svg>
