<svg width="81" height="80" viewBox="0 0 81 80" fill="none" xmlns="http://www.w3.org/2000/svg">
<path d="M16.1658 25.6035L24.3594 33.7971C24.6138 34.062 24.7545 34.416 24.7513 34.7834C24.7481 35.1521 24.6002 35.5048 24.3395 35.7655C24.0788 36.0262 23.7261 36.1741 23.3573 36.1773C22.99 36.1805 22.636 36.0398 22.3711 35.7855L10.9369 24.3513C10.9369 24.3513 10.9369 24.3513 10.9369 24.3512C10.6733 24.0875 10.5252 23.7299 10.5252 23.3571C10.5252 22.9842 10.6733 22.6266 10.9369 22.3629C10.9369 22.3629 10.9369 22.3629 10.9369 22.3629L22.3711 10.9287C22.636 10.6743 22.99 10.5336 23.3573 10.5368C23.7261 10.54 24.0788 10.6879 24.3395 10.9486C24.6002 11.2094 24.7481 11.5621 24.7513 11.9308C24.7545 12.2981 24.6138 12.6521 24.3594 12.917L16.1658 21.1106L15.3123 21.9642H16.5194H44.3125C56.6558 21.9642 66.6875 31.9959 66.6875 44.3392C66.6875 56.6824 56.6558 66.7142 44.3125 66.7142C32.6413 66.7142 23.0562 57.7646 22.0117 46.3528C21.9782 45.9813 22.0936 45.6118 22.3325 45.3254C22.5714 45.039 22.9144 44.8593 23.2858 44.8257C23.6573 44.7921 24.0269 44.9075 24.3133 45.1464C24.5997 45.3854 24.7795 45.7283 24.813 46.0998L24.8331 46.3213L24.8515 46.3352C25.3891 51.2416 27.7615 55.7669 31.4976 59.0006C35.2895 62.2827 40.1966 63.9838 45.2063 63.7529C50.216 63.522 54.9458 61.3767 58.4197 57.7597C61.8936 54.1428 63.8464 49.3302 63.875 44.3153V44.3125C63.875 33.5138 55.1112 24.75 44.3125 24.75H16.5194H15.3123L16.1658 25.6035Z" stroke="#1563DF"/>
<path d="M43.7248 45.2199V45.5286L44.0008 45.6669L50.5583 48.9532L50.664 49.0062H50.6663C50.9527 49.1783 51.1697 49.4476 51.2763 49.7668C51.3944 50.1208 51.3672 50.5072 51.2004 50.841C51.0337 51.1749 50.7411 51.4288 50.3872 51.547C50.0333 51.6651 49.647 51.6379 49.3132 51.4712C49.3131 51.4712 49.313 51.4711 49.3129 51.4711L41.6885 47.6589C41.4553 47.542 41.2591 47.3625 41.122 47.1405C40.9849 46.9185 40.9123 46.6627 40.9123 46.4017C40.9123 46.4017 40.9123 46.4017 40.9123 46.4017V34.9642C40.9123 34.5913 41.0604 34.2336 41.3242 33.9699C41.5879 33.7061 41.9456 33.558 42.3185 33.558C42.6915 33.558 43.0492 33.7061 43.3129 33.9699C43.5766 34.2336 43.7248 34.5913 43.7248 34.9642V45.2199Z" stroke="#1563DF"/>
</svg>
