<svg width="81" height="80" viewBox="0 0 81 80" fill="none" xmlns="http://www.w3.org/2000/svg">
<mask id="path-1-inside-1_1476_21022" fill="white">
<path d="M30.8866 15.2302H50.1136C50.4037 15.2302 50.6819 15.1149 50.887 14.9098C51.0921 14.7047 51.2073 14.4265 51.2073 14.1364V7.98828C51.2073 7.6982 51.0921 7.42 50.887 7.21488C50.6819 7.00977 50.4037 6.89453 50.1136 6.89453H30.8866C30.5965 6.89453 30.3183 7.00977 30.1132 7.21488C29.908 7.42 29.7928 7.6982 29.7928 7.98828V14.1364C29.7928 14.4265 29.908 14.7047 30.1132 14.9098C30.3183 15.1149 30.5965 15.2302 30.8866 15.2302ZM31.9803 9.08203H49.0198V13.0427H31.9803V9.08203ZM30.8866 27.2989H50.1136C50.4037 27.2989 50.6819 27.1837 50.887 26.9786C51.0921 26.7734 51.2073 26.4952 51.2073 26.2052V20.0572C51.2073 19.7671 51.0921 19.4889 50.887 19.2838C50.6819 19.0787 50.4037 18.9634 50.1136 18.9634H30.8866C30.5965 18.9634 30.3183 19.0787 30.1132 19.2838C29.908 19.4889 29.7928 19.7671 29.7928 20.0572V26.2052C29.7928 26.4952 29.908 26.7734 30.1132 26.9786C30.3183 27.1837 30.5965 27.2989 30.8866 27.2989ZM31.9803 21.1509H49.0198V25.1114H31.9803V21.1509ZM30.8866 39.3678H50.1136C50.4037 39.3678 50.6819 39.2526 50.887 39.0475C51.0921 38.8423 51.2073 38.5641 51.2073 38.2741V32.1259C51.2073 31.8359 51.0921 31.5577 50.887 31.3525C50.6819 31.1474 50.4037 31.0322 50.1136 31.0322H30.8866C30.5965 31.0322 30.3183 31.1474 30.1132 31.3525C29.908 31.5577 29.7928 31.8359 29.7928 32.1259V38.2741C29.7928 38.5641 29.908 38.8423 30.1132 39.0475C30.3183 39.2526 30.5965 39.3678 30.8866 39.3678ZM31.9803 33.2197H49.0198V37.1803H31.9803V33.2197ZM30.8866 51.4367H50.1136C50.4037 51.4367 50.6819 51.3215 50.887 51.1164C51.0921 50.9112 51.2073 50.633 51.2073 50.343V44.195C51.2073 43.9049 51.0921 43.6267 50.887 43.4216C50.6819 43.2165 50.4037 43.1012 50.1136 43.1012H30.8866C30.5965 43.1012 30.3183 43.2165 30.1132 43.4216C29.908 43.6267 29.7928 43.9049 29.7928 44.195V50.343C29.7928 50.633 29.908 50.9112 30.1132 51.1164C30.3183 51.3215 30.5965 51.4367 30.8866 51.4367ZM31.9803 45.2889H49.0198V49.2494H31.9803V45.2889ZM78 76.4062H74.4062V14.1364C74.4062 13.8463 74.291 13.5681 74.0859 13.363C73.8808 13.1579 73.6026 13.0427 73.3125 13.0427H56.3547V2.5C56.3547 2.20992 56.2395 1.93172 56.0343 1.7266C55.8292 1.52148 55.551 1.40625 55.2609 1.40625H25.7391C25.449 1.40625 25.1708 1.52148 24.9657 1.7266C24.7605 1.93172 24.6453 2.20992 24.6453 2.5V13.0427H7.6875C7.39742 13.0427 7.11922 13.1579 6.9141 13.363C6.70898 13.5681 6.59375 13.8463 6.59375 14.1364V76.4062H3C2.70992 76.4062 2.43172 76.5215 2.2266 76.7266C2.02148 76.9317 1.90625 77.2099 1.90625 77.5C1.90625 77.7901 2.02148 78.0683 2.2266 78.2734C2.43172 78.4785 2.70992 78.5938 3 78.5938H78C78.2901 78.5938 78.5683 78.4785 78.7734 78.2734C78.9785 78.0683 79.0938 77.7901 79.0938 77.5C79.0938 77.2099 78.9785 76.9317 78.7734 76.7266C78.5683 76.5215 78.2901 76.4062 78 76.4062ZM72.2188 15.2302V76.4062H56.3547V15.2302H72.2188ZM54.1672 3.59375V76.4062H51.2072V59.4784C51.2072 59.1884 51.092 58.9102 50.8868 58.705C50.6817 58.4999 50.4035 58.3847 50.1134 58.3847H30.8866C30.5965 58.3847 30.3183 58.4999 30.1132 58.705C29.908 58.9102 29.7928 59.1884 29.7928 59.4784V76.4062H26.8328V3.59375H54.1672ZM41.5938 60.5722H49.0197V76.4062H41.5938V60.5722ZM39.4062 76.4062H31.9803V60.5722H39.4062V76.4062ZM8.78125 15.2302H24.6453V76.4062H8.78125V15.2302ZM61.2547 27.2989H67.3189C67.609 27.2989 67.8872 27.1837 68.0923 26.9786C68.2974 26.7734 68.4127 26.4952 68.4127 26.2052V20.1411C68.4127 19.851 68.2974 19.5728 68.0923 19.3677C67.8872 19.1626 67.609 19.0473 67.3189 19.0473H61.2547C60.9646 19.0473 60.6864 19.1626 60.4813 19.3677C60.2762 19.5728 60.1609 19.851 60.1609 20.1411V26.2052C60.1609 26.4952 60.2762 26.7734 60.4813 26.9786C60.6864 27.1837 60.9646 27.2989 61.2547 27.2989ZM62.3484 21.2348H66.2252V25.1114H62.3484V21.2348ZM61.2547 38.6944H67.3189C67.609 38.6944 67.8872 38.5791 68.0923 38.374C68.2974 38.1689 68.4127 37.8907 68.4127 37.6006V31.5364C68.4127 31.2463 68.2974 30.9681 68.0923 30.763C67.8872 30.5579 67.609 30.4427 67.3189 30.4427H61.2547C60.9646 30.4427 60.6864 30.5579 60.4813 30.763C60.2762 30.9681 60.1609 31.2463 60.1609 31.5364V37.6006C60.1609 37.8907 60.2762 38.1689 60.4813 38.374C60.6864 38.5791 60.9646 38.6944 61.2547 38.6944ZM62.3484 32.6302H66.2252V36.5069H62.3484V32.6302ZM61.2547 50.0895H67.3189C67.609 50.0895 67.8872 49.9743 68.0923 49.7692C68.2974 49.5641 68.4127 49.2859 68.4127 48.9958V42.9316C68.4127 42.6415 68.2974 42.3633 68.0923 42.1582C67.8872 41.953 67.609 41.8378 67.3189 41.8378H61.2547C60.9646 41.8378 60.6864 41.953 60.4813 42.1582C60.2762 42.3633 60.1609 42.6415 60.1609 42.9316V48.9958C60.1609 49.2859 60.2762 49.5641 60.4813 49.7692C60.6864 49.9743 60.9646 50.0895 61.2547 50.0895ZM62.3484 44.0255H66.2252V47.9022H62.3484V44.0255ZM61.2547 61.4848H67.3189C67.609 61.4848 67.8872 61.3696 68.0923 61.1645C68.2974 60.9594 68.4127 60.6812 68.4127 60.3911V54.327C68.4127 54.0369 68.2974 53.7588 68.0923 53.5536C67.8872 53.3485 67.609 53.2333 67.3189 53.2333H61.2547C60.9646 53.2333 60.6864 53.3485 60.4813 53.5536C60.2762 53.7588 60.1609 54.0369 60.1609 54.327V60.3911C60.1609 60.6812 60.2762 60.9594 60.4813 61.1645C60.6864 61.3696 60.9646 61.4848 61.2547 61.4848ZM62.3484 55.4208H66.2252V59.2973H62.3484V55.4208ZM61.2547 72.8805H67.3189C67.609 72.8805 67.8872 72.7652 68.0923 72.5601C68.2974 72.355 68.4127 72.0768 68.4127 71.7867V65.7225C68.4127 65.4324 68.2974 65.1542 68.0923 64.9491C67.8872 64.744 67.609 64.6287 67.3189 64.6287H61.2547C60.9646 64.6287 60.6864 64.744 60.4813 64.9491C60.2762 65.1542 60.1609 65.4324 60.1609 65.7225V71.7867C60.1609 72.0768 60.2762 72.355 60.4813 72.5601C60.6864 72.7652 60.9646 72.8805 61.2547 72.8805ZM62.3484 66.8162H66.2252V70.693H62.3484V66.8162ZM19.7453 19.0473H13.6812C13.3912 19.0473 13.113 19.1626 12.9079 19.3677C12.7027 19.5728 12.5875 19.851 12.5875 20.1411V26.2052C12.5875 26.4952 12.7027 26.7734 12.9079 26.9786C13.113 27.1837 13.3912 27.2989 13.6812 27.2989H19.7453C19.8889 27.2989 20.0312 27.2706 20.1639 27.2157C20.2966 27.1607 20.4171 27.0801 20.5187 26.9786C20.6203 26.877 20.7008 26.7564 20.7558 26.6237C20.8108 26.491 20.8391 26.3488 20.8391 26.2052V20.1411C20.8391 19.851 20.7238 19.5728 20.5187 19.3677C20.3136 19.1626 20.0354 19.0473 19.7453 19.0473ZM18.6516 25.1114H14.775V21.2348H18.6516V25.1114ZM19.7453 30.4427H13.6812C13.3912 30.4427 13.113 30.5579 12.9079 30.763C12.7027 30.9681 12.5875 31.2463 12.5875 31.5364V37.6006C12.5875 37.8907 12.7027 38.1689 12.9079 38.374C13.113 38.5791 13.3912 38.6944 13.6812 38.6944H19.7453C19.8889 38.6944 20.0312 38.6661 20.1639 38.6111C20.2966 38.5562 20.4171 38.4756 20.5187 38.374C20.6203 38.2725 20.7008 38.1519 20.7558 38.0192C20.8108 37.8865 20.8391 37.7443 20.8391 37.6006V31.5364C20.8391 31.2463 20.7238 30.9681 20.5187 30.763C20.3136 30.5579 20.0354 30.4427 19.7453 30.4427ZM18.6516 36.5069H14.775V32.6302H18.6516V36.5069ZM19.7453 41.838H13.6812C13.3912 41.838 13.113 41.9532 12.9079 42.1583C12.7027 42.3634 12.5875 42.6416 12.5875 42.9317V48.9959C12.5875 49.286 12.7027 49.5642 12.9079 49.7693C13.113 49.9745 13.3912 50.0897 13.6812 50.0897H19.7453C19.8889 50.0897 20.0312 50.0614 20.1639 50.0064C20.2966 49.9515 20.4171 49.8709 20.5187 49.7693C20.6203 49.6678 20.7008 49.5472 20.7558 49.4145C20.8108 49.2818 20.8391 49.1396 20.8391 48.9959V42.9317C20.8391 42.6416 20.7238 42.3634 20.5187 42.1583C20.3136 41.9532 20.0354 41.838 19.7453 41.838ZM18.6516 47.902H14.775V44.0253H18.6516V47.902ZM19.7453 53.2333H13.6812C13.3912 53.2333 13.113 53.3485 12.9079 53.5536C12.7027 53.7588 12.5875 54.0369 12.5875 54.327V60.3911C12.5875 60.6812 12.7027 60.9594 12.9079 61.1645C13.113 61.3696 13.3912 61.4848 13.6812 61.4848H19.7453C19.8889 61.4848 20.0312 61.4566 20.1639 61.4016C20.2966 61.3466 20.4171 61.2661 20.5187 61.1645C20.6203 61.0629 20.7008 60.9424 20.7558 60.8097C20.8108 60.677 20.8391 60.5347 20.8391 60.3911V54.327C20.8391 54.0369 20.7238 53.7588 20.5187 53.5536C20.3136 53.3485 20.0354 53.2333 19.7453 53.2333ZM18.6516 59.2973H14.775V55.4208H18.6516V59.2973ZM19.7453 64.6287H13.6812C13.3912 64.6287 13.113 64.744 12.9079 64.9491C12.7027 65.1542 12.5875 65.4324 12.5875 65.7225V71.7867C12.5875 72.0768 12.7027 72.355 12.9079 72.5601C13.113 72.7652 13.3912 72.8805 13.6812 72.8805H19.7453C19.8889 72.8805 20.0312 72.8522 20.1639 72.7972C20.2966 72.7422 20.4171 72.6617 20.5187 72.5601C20.6203 72.4585 20.7008 72.338 20.7558 72.2053C20.8108 72.0726 20.8391 71.9304 20.8391 71.7867V65.7225C20.8391 65.4324 20.7238 65.1542 20.5187 64.9491C20.3136 64.744 20.0354 64.6287 19.7453 64.6287ZM18.6516 70.693H14.775V66.8162H18.6516V70.693Z"/>
</mask>
<path d="M30.8866 15.2302H50.1136C50.4037 15.2302 50.6819 15.1149 50.887 14.9098C51.0921 14.7047 51.2073 14.4265 51.2073 14.1364V7.98828C51.2073 7.6982 51.0921 7.42 50.887 7.21488C50.6819 7.00977 50.4037 6.89453 50.1136 6.89453H30.8866C30.5965 6.89453 30.3183 7.00977 30.1132 7.21488C29.908 7.42 29.7928 7.6982 29.7928 7.98828V14.1364C29.7928 14.4265 29.908 14.7047 30.1132 14.9098C30.3183 15.1149 30.5965 15.2302 30.8866 15.2302ZM31.9803 9.08203H49.0198V13.0427H31.9803V9.08203ZM30.8866 27.2989H50.1136C50.4037 27.2989 50.6819 27.1837 50.887 26.9786C51.0921 26.7734 51.2073 26.4952 51.2073 26.2052V20.0572C51.2073 19.7671 51.0921 19.4889 50.887 19.2838C50.6819 19.0787 50.4037 18.9634 50.1136 18.9634H30.8866C30.5965 18.9634 30.3183 19.0787 30.1132 19.2838C29.908 19.4889 29.7928 19.7671 29.7928 20.0572V26.2052C29.7928 26.4952 29.908 26.7734 30.1132 26.9786C30.3183 27.1837 30.5965 27.2989 30.8866 27.2989ZM31.9803 21.1509H49.0198V25.1114H31.9803V21.1509ZM30.8866 39.3678H50.1136C50.4037 39.3678 50.6819 39.2526 50.887 39.0475C51.0921 38.8423 51.2073 38.5641 51.2073 38.2741V32.1259C51.2073 31.8359 51.0921 31.5577 50.887 31.3525C50.6819 31.1474 50.4037 31.0322 50.1136 31.0322H30.8866C30.5965 31.0322 30.3183 31.1474 30.1132 31.3525C29.908 31.5577 29.7928 31.8359 29.7928 32.1259V38.2741C29.7928 38.5641 29.908 38.8423 30.1132 39.0475C30.3183 39.2526 30.5965 39.3678 30.8866 39.3678ZM31.9803 33.2197H49.0198V37.1803H31.9803V33.2197ZM30.8866 51.4367H50.1136C50.4037 51.4367 50.6819 51.3215 50.887 51.1164C51.0921 50.9112 51.2073 50.633 51.2073 50.343V44.195C51.2073 43.9049 51.0921 43.6267 50.887 43.4216C50.6819 43.2165 50.4037 43.1012 50.1136 43.1012H30.8866C30.5965 43.1012 30.3183 43.2165 30.1132 43.4216C29.908 43.6267 29.7928 43.9049 29.7928 44.195V50.343C29.7928 50.633 29.908 50.9112 30.1132 51.1164C30.3183 51.3215 30.5965 51.4367 30.8866 51.4367ZM31.9803 45.2889H49.0198V49.2494H31.9803V45.2889ZM78 76.4062H74.4062V14.1364C74.4062 13.8463 74.291 13.5681 74.0859 13.363C73.8808 13.1579 73.6026 13.0427 73.3125 13.0427H56.3547V2.5C56.3547 2.20992 56.2395 1.93172 56.0343 1.7266C55.8292 1.52148 55.551 1.40625 55.2609 1.40625H25.7391C25.449 1.40625 25.1708 1.52148 24.9657 1.7266C24.7605 1.93172 24.6453 2.20992 24.6453 2.5V13.0427H7.6875C7.39742 13.0427 7.11922 13.1579 6.9141 13.363C6.70898 13.5681 6.59375 13.8463 6.59375 14.1364V76.4062H3C2.70992 76.4062 2.43172 76.5215 2.2266 76.7266C2.02148 76.9317 1.90625 77.2099 1.90625 77.5C1.90625 77.7901 2.02148 78.0683 2.2266 78.2734C2.43172 78.4785 2.70992 78.5938 3 78.5938H78C78.2901 78.5938 78.5683 78.4785 78.7734 78.2734C78.9785 78.0683 79.0938 77.7901 79.0938 77.5C79.0938 77.2099 78.9785 76.9317 78.7734 76.7266C78.5683 76.5215 78.2901 76.4062 78 76.4062ZM72.2188 15.2302V76.4062H56.3547V15.2302H72.2188ZM54.1672 3.59375V76.4062H51.2072V59.4784C51.2072 59.1884 51.092 58.9102 50.8868 58.705C50.6817 58.4999 50.4035 58.3847 50.1134 58.3847H30.8866C30.5965 58.3847 30.3183 58.4999 30.1132 58.705C29.908 58.9102 29.7928 59.1884 29.7928 59.4784V76.4062H26.8328V3.59375H54.1672ZM41.5938 60.5722H49.0197V76.4062H41.5938V60.5722ZM39.4062 76.4062H31.9803V60.5722H39.4062V76.4062ZM8.78125 15.2302H24.6453V76.4062H8.78125V15.2302ZM61.2547 27.2989H67.3189C67.609 27.2989 67.8872 27.1837 68.0923 26.9786C68.2974 26.7734 68.4127 26.4952 68.4127 26.2052V20.1411C68.4127 19.851 68.2974 19.5728 68.0923 19.3677C67.8872 19.1626 67.609 19.0473 67.3189 19.0473H61.2547C60.9646 19.0473 60.6864 19.1626 60.4813 19.3677C60.2762 19.5728 60.1609 19.851 60.1609 20.1411V26.2052C60.1609 26.4952 60.2762 26.7734 60.4813 26.9786C60.6864 27.1837 60.9646 27.2989 61.2547 27.2989ZM62.3484 21.2348H66.2252V25.1114H62.3484V21.2348ZM61.2547 38.6944H67.3189C67.609 38.6944 67.8872 38.5791 68.0923 38.374C68.2974 38.1689 68.4127 37.8907 68.4127 37.6006V31.5364C68.4127 31.2463 68.2974 30.9681 68.0923 30.763C67.8872 30.5579 67.609 30.4427 67.3189 30.4427H61.2547C60.9646 30.4427 60.6864 30.5579 60.4813 30.763C60.2762 30.9681 60.1609 31.2463 60.1609 31.5364V37.6006C60.1609 37.8907 60.2762 38.1689 60.4813 38.374C60.6864 38.5791 60.9646 38.6944 61.2547 38.6944ZM62.3484 32.6302H66.2252V36.5069H62.3484V32.6302ZM61.2547 50.0895H67.3189C67.609 50.0895 67.8872 49.9743 68.0923 49.7692C68.2974 49.5641 68.4127 49.2859 68.4127 48.9958V42.9316C68.4127 42.6415 68.2974 42.3633 68.0923 42.1582C67.8872 41.953 67.609 41.8378 67.3189 41.8378H61.2547C60.9646 41.8378 60.6864 41.953 60.4813 42.1582C60.2762 42.3633 60.1609 42.6415 60.1609 42.9316V48.9958C60.1609 49.2859 60.2762 49.5641 60.4813 49.7692C60.6864 49.9743 60.9646 50.0895 61.2547 50.0895ZM62.3484 44.0255H66.2252V47.9022H62.3484V44.0255ZM61.2547 61.4848H67.3189C67.609 61.4848 67.8872 61.3696 68.0923 61.1645C68.2974 60.9594 68.4127 60.6812 68.4127 60.3911V54.327C68.4127 54.0369 68.2974 53.7588 68.0923 53.5536C67.8872 53.3485 67.609 53.2333 67.3189 53.2333H61.2547C60.9646 53.2333 60.6864 53.3485 60.4813 53.5536C60.2762 53.7588 60.1609 54.0369 60.1609 54.327V60.3911C60.1609 60.6812 60.2762 60.9594 60.4813 61.1645C60.6864 61.3696 60.9646 61.4848 61.2547 61.4848ZM62.3484 55.4208H66.2252V59.2973H62.3484V55.4208ZM61.2547 72.8805H67.3189C67.609 72.8805 67.8872 72.7652 68.0923 72.5601C68.2974 72.355 68.4127 72.0768 68.4127 71.7867V65.7225C68.4127 65.4324 68.2974 65.1542 68.0923 64.9491C67.8872 64.744 67.609 64.6287 67.3189 64.6287H61.2547C60.9646 64.6287 60.6864 64.744 60.4813 64.9491C60.2762 65.1542 60.1609 65.4324 60.1609 65.7225V71.7867C60.1609 72.0768 60.2762 72.355 60.4813 72.5601C60.6864 72.7652 60.9646 72.8805 61.2547 72.8805ZM62.3484 66.8162H66.2252V70.693H62.3484V66.8162ZM19.7453 19.0473H13.6812C13.3912 19.0473 13.113 19.1626 12.9079 19.3677C12.7027 19.5728 12.5875 19.851 12.5875 20.1411V26.2052C12.5875 26.4952 12.7027 26.7734 12.9079 26.9786C13.113 27.1837 13.3912 27.2989 13.6812 27.2989H19.7453C19.8889 27.2989 20.0312 27.2706 20.1639 27.2157C20.2966 27.1607 20.4171 27.0801 20.5187 26.9786C20.6203 26.877 20.7008 26.7564 20.7558 26.6237C20.8108 26.491 20.8391 26.3488 20.8391 26.2052V20.1411C20.8391 19.851 20.7238 19.5728 20.5187 19.3677C20.3136 19.1626 20.0354 19.0473 19.7453 19.0473ZM18.6516 25.1114H14.775V21.2348H18.6516V25.1114ZM19.7453 30.4427H13.6812C13.3912 30.4427 13.113 30.5579 12.9079 30.763C12.7027 30.9681 12.5875 31.2463 12.5875 31.5364V37.6006C12.5875 37.8907 12.7027 38.1689 12.9079 38.374C13.113 38.5791 13.3912 38.6944 13.6812 38.6944H19.7453C19.8889 38.6944 20.0312 38.6661 20.1639 38.6111C20.2966 38.5562 20.4171 38.4756 20.5187 38.374C20.6203 38.2725 20.7008 38.1519 20.7558 38.0192C20.8108 37.8865 20.8391 37.7443 20.8391 37.6006V31.5364C20.8391 31.2463 20.7238 30.9681 20.5187 30.763C20.3136 30.5579 20.0354 30.4427 19.7453 30.4427ZM18.6516 36.5069H14.775V32.6302H18.6516V36.5069ZM19.7453 41.838H13.6812C13.3912 41.838 13.113 41.9532 12.9079 42.1583C12.7027 42.3634 12.5875 42.6416 12.5875 42.9317V48.9959C12.5875 49.286 12.7027 49.5642 12.9079 49.7693C13.113 49.9745 13.3912 50.0897 13.6812 50.0897H19.7453C19.8889 50.0897 20.0312 50.0614 20.1639 50.0064C20.2966 49.9515 20.4171 49.8709 20.5187 49.7693C20.6203 49.6678 20.7008 49.5472 20.7558 49.4145C20.8108 49.2818 20.8391 49.1396 20.8391 48.9959V42.9317C20.8391 42.6416 20.7238 42.3634 20.5187 42.1583C20.3136 41.9532 20.0354 41.838 19.7453 41.838ZM18.6516 47.902H14.775V44.0253H18.6516V47.902ZM19.7453 53.2333H13.6812C13.3912 53.2333 13.113 53.3485 12.9079 53.5536C12.7027 53.7588 12.5875 54.0369 12.5875 54.327V60.3911C12.5875 60.6812 12.7027 60.9594 12.9079 61.1645C13.113 61.3696 13.3912 61.4848 13.6812 61.4848H19.7453C19.8889 61.4848 20.0312 61.4566 20.1639 61.4016C20.2966 61.3466 20.4171 61.2661 20.5187 61.1645C20.6203 61.0629 20.7008 60.9424 20.7558 60.8097C20.8108 60.677 20.8391 60.5347 20.8391 60.3911V54.327C20.8391 54.0369 20.7238 53.7588 20.5187 53.5536C20.3136 53.3485 20.0354 53.2333 19.7453 53.2333ZM18.6516 59.2973H14.775V55.4208H18.6516V59.2973ZM19.7453 64.6287H13.6812C13.3912 64.6287 13.113 64.744 12.9079 64.9491C12.7027 65.1542 12.5875 65.4324 12.5875 65.7225V71.7867C12.5875 72.0768 12.7027 72.355 12.9079 72.5601C13.113 72.7652 13.3912 72.8805 13.6812 72.8805H19.7453C19.8889 72.8805 20.0312 72.8522 20.1639 72.7972C20.2966 72.7422 20.4171 72.6617 20.5187 72.5601C20.6203 72.4585 20.7008 72.338 20.7558 72.2053C20.8108 72.0726 20.8391 71.9304 20.8391 71.7867V65.7225C20.8391 65.4324 20.7238 65.1542 20.5187 64.9491C20.3136 64.744 20.0354 64.6287 19.7453 64.6287ZM18.6516 70.693H14.775V66.8162H18.6516V70.693Z" fill="#1563DF" stroke="white" mask="url(#path-1-inside-1_1476_21022)"/>
</svg>
