<svg width="81" height="81" viewBox="0 0 81 81" fill="none" xmlns="http://www.w3.org/2000/svg">
<g clip-path="url(#clip0_1476_21014)">
<mask id="path-1-inside-1_1476_21014" fill="white">
<path d="M12.9138 30.8449H18.431C18.7969 30.8449 19.1477 30.6995 19.4064 30.4409C19.665 30.1822 19.8103 29.8314 19.8103 29.4656V18.4311C19.8103 18.0653 19.665 17.7144 19.4064 17.4557C19.1477 17.1971 18.7969 17.0518 18.431 17.0518H12.9138C12.548 17.0518 12.1971 17.1971 11.9385 17.4557C11.6798 17.7144 11.5345 18.0653 11.5345 18.4311V29.4656C11.5345 29.8314 11.6798 30.1822 11.9385 30.4409C12.1971 30.6995 12.548 30.8449 12.9138 30.8449ZM14.2931 19.8104H17.0517V28.0862H14.2931V19.8104ZM26.7069 30.8449H32.2241C32.59 30.8449 32.9408 30.6995 33.1995 30.4409C33.4581 30.1822 33.6035 29.8314 33.6035 29.4656V18.4311C33.6035 18.0653 33.4581 17.7144 33.1995 17.4557C32.9408 17.1971 32.59 17.0518 32.2241 17.0518H26.7069C26.3411 17.0518 25.9902 17.1971 25.7316 17.4557C25.4729 17.7144 25.3276 18.0653 25.3276 18.4311V29.4656C25.3276 29.8314 25.4729 30.1822 25.7316 30.4409C25.9902 30.6995 26.3411 30.8449 26.7069 30.8449ZM28.0862 19.8104H30.8448V28.0862H28.0862V19.8104ZM12.9138 47.3966H18.431C18.7969 47.3966 19.1477 47.2513 19.4064 46.9926C19.665 46.7339 19.8103 46.3831 19.8103 46.0173V34.9828C19.8103 34.617 19.665 34.2661 19.4064 34.0075C19.1477 33.7488 18.7969 33.6035 18.431 33.6035H12.9138C12.548 33.6035 12.1971 33.7488 11.9385 34.0075C11.6798 34.2661 11.5345 34.617 11.5345 34.9828V46.0173C11.5345 46.3831 11.6798 46.7339 11.9385 46.9926C12.1971 47.2513 12.548 47.3966 12.9138 47.3966ZM14.2931 36.3621H17.0517V44.638H14.2931V36.3621ZM26.7069 47.3966H32.2241C32.59 47.3966 32.9408 47.2513 33.1995 46.9926C33.4581 46.7339 33.6035 46.3831 33.6035 46.0173V34.9828C33.6035 34.617 33.4581 34.2661 33.1995 34.0075C32.9408 33.7488 32.59 33.6035 32.2241 33.6035H26.7069C26.3411 33.6035 25.9902 33.7488 25.7316 34.0075C25.4729 34.2661 25.3276 34.617 25.3276 34.9828V46.0173C25.3276 46.3831 25.4729 46.7339 25.7316 46.9926C25.9902 47.2513 26.3411 47.3966 26.7069 47.3966ZM28.0862 36.3621H30.8448V44.638H28.0862V36.3621ZM18.431 63.9483C18.7969 63.9483 19.1477 63.803 19.4064 63.5443C19.665 63.2856 19.8103 62.9348 19.8103 62.569V51.5345C19.8103 51.1687 19.665 50.8179 19.4064 50.5592C19.1477 50.3005 18.7969 50.1552 18.431 50.1552H12.9138C12.548 50.1552 12.1971 50.3005 11.9385 50.5592C11.6798 50.8179 11.5345 51.1687 11.5345 51.5345V62.569C11.5345 62.9348 11.6798 63.2856 11.9385 63.5443C12.1971 63.803 12.548 63.9483 12.9138 63.9483H18.431ZM14.2931 52.9138H17.0517V61.1897H14.2931V52.9138ZM26.7069 63.9483H32.2241C32.59 63.9483 32.9408 63.803 33.1995 63.5443C33.4581 63.2856 33.6035 62.9348 33.6035 62.569V51.5345C33.6035 51.1687 33.4581 50.8179 33.1995 50.5592C32.9408 50.3005 32.59 50.1552 32.2241 50.1552H26.7069C26.3411 50.1552 25.9902 50.3005 25.7316 50.5592C25.4729 50.8179 25.3276 51.1687 25.3276 51.5345V62.569C25.3276 62.9348 25.4729 63.2856 25.7316 63.5443C25.9902 63.803 26.3411 63.9483 26.7069 63.9483ZM28.0862 52.9138H30.8448V61.1897H28.0862V52.9138ZM54.2931 44.638H43.2586C42.8928 44.638 42.542 44.7833 42.2833 45.042C42.0246 45.3006 41.8793 45.6515 41.8793 46.0173V51.5345C41.8793 51.9003 42.0246 52.2512 42.2833 52.5098C42.542 52.7685 42.8928 52.9138 43.2586 52.9138H54.2931C54.6589 52.9138 55.0098 52.7685 55.2684 52.5098C55.5271 52.2512 55.6724 51.9003 55.6724 51.5345V46.0173C55.6724 45.6515 55.5271 45.3006 55.2684 45.042C55.0098 44.7833 54.6589 44.638 54.2931 44.638ZM52.9138 50.1552H44.6379V47.3966H52.9138V50.1552ZM70.8448 44.638H59.8103C59.4445 44.638 59.0937 44.7833 58.835 45.042C58.5764 45.3006 58.431 45.6515 58.431 46.0173V51.5345C58.431 51.9003 58.5764 52.2512 58.835 52.5098C59.0937 52.7685 59.4445 52.9138 59.8103 52.9138H70.8448C71.2106 52.9138 71.5615 52.7685 71.8202 52.5098C72.0788 52.2512 72.2241 51.9003 72.2241 51.5345V46.0173C72.2241 45.6515 72.0788 45.3006 71.8202 45.042C71.5615 44.7833 71.2106 44.638 70.8448 44.638ZM69.4655 50.1552H61.1897V47.3966H69.4655V50.1552ZM54.2931 55.6724H43.2586C42.8928 55.6724 42.542 55.8178 42.2833 56.0764C42.0246 56.3351 41.8793 56.6859 41.8793 57.0518V62.569C41.8793 62.9348 42.0246 63.2856 42.2833 63.5443C42.542 63.803 42.8928 63.9483 43.2586 63.9483H54.2931C54.6589 63.9483 55.0098 63.803 55.2684 63.5443C55.5271 63.2856 55.6724 62.9348 55.6724 62.569V57.0518C55.6724 56.6859 55.5271 56.3351 55.2684 56.0764C55.0098 55.8178 54.6589 55.6724 54.2931 55.6724ZM52.9138 61.1897H44.6379V58.4311H52.9138V61.1897ZM70.8448 55.6724H59.8103C59.4445 55.6724 59.0937 55.8178 58.835 56.0764C58.5764 56.3351 58.431 56.6859 58.431 57.0518V62.569C58.431 62.9348 58.5764 63.2856 58.835 63.5443C59.0937 63.803 59.4445 63.9483 59.8103 63.9483H70.8448C71.2106 63.9483 71.5615 63.803 71.8202 63.5443C72.0788 63.2856 72.2241 62.9348 72.2241 62.569V57.0518C72.2241 56.6859 72.0788 56.3351 71.8202 56.0764C71.5615 55.8178 71.2106 55.6724 70.8448 55.6724ZM69.4655 61.1897H61.1897V58.4311H69.4655V61.1897Z"/>
</mask>
<path d="M12.9138 30.8449H18.431C18.7969 30.8449 19.1477 30.6995 19.4064 30.4409C19.665 30.1822 19.8103 29.8314 19.8103 29.4656V18.4311C19.8103 18.0653 19.665 17.7144 19.4064 17.4557C19.1477 17.1971 18.7969 17.0518 18.431 17.0518H12.9138C12.548 17.0518 12.1971 17.1971 11.9385 17.4557C11.6798 17.7144 11.5345 18.0653 11.5345 18.4311V29.4656C11.5345 29.8314 11.6798 30.1822 11.9385 30.4409C12.1971 30.6995 12.548 30.8449 12.9138 30.8449ZM14.2931 19.8104H17.0517V28.0862H14.2931V19.8104ZM26.7069 30.8449H32.2241C32.59 30.8449 32.9408 30.6995 33.1995 30.4409C33.4581 30.1822 33.6035 29.8314 33.6035 29.4656V18.4311C33.6035 18.0653 33.4581 17.7144 33.1995 17.4557C32.9408 17.1971 32.59 17.0518 32.2241 17.0518H26.7069C26.3411 17.0518 25.9902 17.1971 25.7316 17.4557C25.4729 17.7144 25.3276 18.0653 25.3276 18.4311V29.4656C25.3276 29.8314 25.4729 30.1822 25.7316 30.4409C25.9902 30.6995 26.3411 30.8449 26.7069 30.8449ZM28.0862 19.8104H30.8448V28.0862H28.0862V19.8104ZM12.9138 47.3966H18.431C18.7969 47.3966 19.1477 47.2513 19.4064 46.9926C19.665 46.7339 19.8103 46.3831 19.8103 46.0173V34.9828C19.8103 34.617 19.665 34.2661 19.4064 34.0075C19.1477 33.7488 18.7969 33.6035 18.431 33.6035H12.9138C12.548 33.6035 12.1971 33.7488 11.9385 34.0075C11.6798 34.2661 11.5345 34.617 11.5345 34.9828V46.0173C11.5345 46.3831 11.6798 46.7339 11.9385 46.9926C12.1971 47.2513 12.548 47.3966 12.9138 47.3966ZM14.2931 36.3621H17.0517V44.638H14.2931V36.3621ZM26.7069 47.3966H32.2241C32.59 47.3966 32.9408 47.2513 33.1995 46.9926C33.4581 46.7339 33.6035 46.3831 33.6035 46.0173V34.9828C33.6035 34.617 33.4581 34.2661 33.1995 34.0075C32.9408 33.7488 32.59 33.6035 32.2241 33.6035H26.7069C26.3411 33.6035 25.9902 33.7488 25.7316 34.0075C25.4729 34.2661 25.3276 34.617 25.3276 34.9828V46.0173C25.3276 46.3831 25.4729 46.7339 25.7316 46.9926C25.9902 47.2513 26.3411 47.3966 26.7069 47.3966ZM28.0862 36.3621H30.8448V44.638H28.0862V36.3621ZM18.431 63.9483C18.7969 63.9483 19.1477 63.803 19.4064 63.5443C19.665 63.2856 19.8103 62.9348 19.8103 62.569V51.5345C19.8103 51.1687 19.665 50.8179 19.4064 50.5592C19.1477 50.3005 18.7969 50.1552 18.431 50.1552H12.9138C12.548 50.1552 12.1971 50.3005 11.9385 50.5592C11.6798 50.8179 11.5345 51.1687 11.5345 51.5345V62.569C11.5345 62.9348 11.6798 63.2856 11.9385 63.5443C12.1971 63.803 12.548 63.9483 12.9138 63.9483H18.431ZM14.2931 52.9138H17.0517V61.1897H14.2931V52.9138ZM26.7069 63.9483H32.2241C32.59 63.9483 32.9408 63.803 33.1995 63.5443C33.4581 63.2856 33.6035 62.9348 33.6035 62.569V51.5345C33.6035 51.1687 33.4581 50.8179 33.1995 50.5592C32.9408 50.3005 32.59 50.1552 32.2241 50.1552H26.7069C26.3411 50.1552 25.9902 50.3005 25.7316 50.5592C25.4729 50.8179 25.3276 51.1687 25.3276 51.5345V62.569C25.3276 62.9348 25.4729 63.2856 25.7316 63.5443C25.9902 63.803 26.3411 63.9483 26.7069 63.9483ZM28.0862 52.9138H30.8448V61.1897H28.0862V52.9138ZM54.2931 44.638H43.2586C42.8928 44.638 42.542 44.7833 42.2833 45.042C42.0246 45.3006 41.8793 45.6515 41.8793 46.0173V51.5345C41.8793 51.9003 42.0246 52.2512 42.2833 52.5098C42.542 52.7685 42.8928 52.9138 43.2586 52.9138H54.2931C54.6589 52.9138 55.0098 52.7685 55.2684 52.5098C55.5271 52.2512 55.6724 51.9003 55.6724 51.5345V46.0173C55.6724 45.6515 55.5271 45.3006 55.2684 45.042C55.0098 44.7833 54.6589 44.638 54.2931 44.638ZM52.9138 50.1552H44.6379V47.3966H52.9138V50.1552ZM70.8448 44.638H59.8103C59.4445 44.638 59.0937 44.7833 58.835 45.042C58.5764 45.3006 58.431 45.6515 58.431 46.0173V51.5345C58.431 51.9003 58.5764 52.2512 58.835 52.5098C59.0937 52.7685 59.4445 52.9138 59.8103 52.9138H70.8448C71.2106 52.9138 71.5615 52.7685 71.8202 52.5098C72.0788 52.2512 72.2241 51.9003 72.2241 51.5345V46.0173C72.2241 45.6515 72.0788 45.3006 71.8202 45.042C71.5615 44.7833 71.2106 44.638 70.8448 44.638ZM69.4655 50.1552H61.1897V47.3966H69.4655V50.1552ZM54.2931 55.6724H43.2586C42.8928 55.6724 42.542 55.8178 42.2833 56.0764C42.0246 56.3351 41.8793 56.6859 41.8793 57.0518V62.569C41.8793 62.9348 42.0246 63.2856 42.2833 63.5443C42.542 63.803 42.8928 63.9483 43.2586 63.9483H54.2931C54.6589 63.9483 55.0098 63.803 55.2684 63.5443C55.5271 63.2856 55.6724 62.9348 55.6724 62.569V57.0518C55.6724 56.6859 55.5271 56.3351 55.2684 56.0764C55.0098 55.8178 54.6589 55.6724 54.2931 55.6724ZM52.9138 61.1897H44.6379V58.4311H52.9138V61.1897ZM70.8448 55.6724H59.8103C59.4445 55.6724 59.0937 55.8178 58.835 56.0764C58.5764 56.3351 58.431 56.6859 58.431 57.0518V62.569C58.431 62.9348 58.5764 63.2856 58.835 63.5443C59.0937 63.803 59.4445 63.9483 59.8103 63.9483H70.8448C71.2106 63.9483 71.5615 63.803 71.8202 63.5443C72.0788 63.2856 72.2241 62.9348 72.2241 62.569V57.0518C72.2241 56.6859 72.0788 56.3351 71.8202 56.0764C71.5615 55.8178 71.2106 55.6724 70.8448 55.6724ZM69.4655 61.1897H61.1897V58.4311H69.4655V61.1897Z" fill="#1563DF" stroke="white" stroke-width="1.4" mask="url(#path-1-inside-1_1476_21014)"/>
<path d="M76.0121 77.7414V78.0914H76.3621H79.1207C79.3937 78.0914 79.6555 78.1998 79.8485 78.3929C80.0416 78.5859 80.15 78.8477 80.15 79.1207C80.15 79.3937 80.0416 79.6555 79.8485 79.8485C79.6555 80.0416 79.3937 80.15 79.1207 80.15H1.87931C1.60632 80.15 1.34451 80.0416 1.15148 79.8485L0.903991 80.096L1.15148 79.8485C0.958446 79.6555 0.85 79.3937 0.85 79.1207C0.85 78.8477 0.958446 78.5859 1.15148 78.3929L0.903991 78.1454L1.15148 78.3929C1.34451 78.1998 1.60632 78.0914 1.87931 78.0914H4.63793H4.98793V77.7414V12.9138C4.98793 12.6408 5.09638 12.379 5.28941 12.186C5.48244 11.9929 5.74425 11.8845 6.01724 11.8845H10.1552H10.5052V11.5345V7.39655C10.5052 7.12356 10.6136 6.86175 10.8067 6.66872C10.9997 6.47569 11.2615 6.36724 11.5345 6.36724H15.6724H16.0224V6.01724V1.87931C16.0224 1.60632 16.1309 1.34451 16.3239 1.15148C16.5169 0.958445 16.7787 0.85 17.0517 0.85H28.0862C28.3592 0.85 28.621 0.958445 28.814 1.15148L29.0615 0.903991L28.814 1.15148C29.0071 1.34451 29.1155 1.60632 29.1155 1.87931V6.01724V6.36724H29.4655H33.6034C33.8764 6.36724 34.1382 6.47569 34.3313 6.66872C34.5243 6.86175 34.6328 7.12356 34.6328 7.39655V11.5345V11.8845H34.9828H39.1207C39.3937 11.8845 39.6555 11.9929 39.8485 12.186C40.0416 12.379 40.15 12.6408 40.15 12.9138V39.1207V39.4707H40.5H74.9828C75.2558 39.4707 75.5176 39.5791 75.7106 39.7722C75.9036 39.9652 76.0121 40.227 76.0121 40.5V77.7414ZM18.431 2.90862H18.081V3.25862V6.01724V6.36724H18.431H26.7069H27.0569V6.01724V3.25862V2.90862H26.7069H18.431ZM12.9138 8.42586H12.5638V8.77586V11.5345V11.8845H12.9138H32.2241H32.5741V11.5345V8.77586V8.42586H32.2241H12.9138ZM7.39655 13.9431H7.04655V14.2931V77.7414V78.0914H7.39655H15.6724H16.0224V77.7414V68.0862C16.0224 67.8132 16.1309 67.5514 16.3239 67.3584C16.5169 67.1653 16.7787 67.0569 17.0517 67.0569H28.0862C28.3592 67.0569 28.621 67.1653 28.814 67.3584C29.0071 67.5514 29.1155 67.8132 29.1155 68.0862V77.7414V78.0914H29.4655H37.7414H38.0914V77.7414V14.2931V13.9431H37.7414H7.39655ZM18.431 69.1155H18.081V69.4655V77.7414V78.0914H18.431H21.1897H21.5397V77.7414V69.4655V69.1155H21.1897H18.431ZM23.5983 77.7414V78.0914H23.9483H26.7069H27.0569V77.7414V69.4655V69.1155H26.7069H23.9483H23.5983V69.4655V77.7414ZM54.1169 77.7414V78.0914H54.4669H59.8103H60.1603V77.7414V69.4655V69.1155H59.8103H54.4669H54.1169V69.4655V77.7414ZM62.219 77.7414V78.0914H62.569H73.6034H73.9534V77.7414V41.8793V41.5293H73.6034H40.5H40.15V41.8793V77.7414V78.0914H40.5H51.7083H52.0583V77.7414V68.0862C52.0583 67.8132 52.1667 67.5514 52.3598 67.3584C52.5528 67.1653 52.8146 67.0569 53.0876 67.0569H61.1897C61.4626 67.0569 61.7245 67.1653 61.9175 67.3584C62.1105 67.5514 62.219 67.8132 62.219 68.0862V77.7414Z" fill="#1563DF" stroke="white" stroke-width="0.7"/>
</g>
<defs>
<clipPath id="clip0_1476_21014">
<rect width="80" height="80" fill="white" transform="translate(0.5 0.5)"/>
</clipPath>
</defs>
</svg>
