<svg width="81" height="80" viewBox="0 0 81 80" fill="none" xmlns="http://www.w3.org/2000/svg">
<g clip-path="url(#clip0_1476_21007)">
<mask id="path-1-inside-1_1476_21007" fill="white">
<path d="M22.4203 53.3297C20.3859 53.3297 18.7297 54.9859 18.7297 57.0219C18.7297 59.0547 20.3859 60.7094 22.4203 60.7094C24.4547 60.7094 26.1109 59.0547 26.1109 57.0219C26.1109 54.9859 24.4547 53.3297 22.4203 53.3297ZM22.4203 58.2094C21.7641 58.2094 21.2297 57.6765 21.2297 57.0219C21.2297 56.364 21.7641 55.8297 22.4203 55.8297C23.0766 55.8297 23.6109 56.364 23.6109 57.0219C23.6109 57.6765 23.0766 58.2094 22.4203 58.2094ZM28.6781 27.2359H36.7297C37.4203 27.2359 37.9797 26.6765 37.9797 25.9859V17.9437C37.9797 17.2531 37.4203 16.6937 36.7297 16.6937H28.6781C27.9875 16.6937 27.4281 17.2531 27.4281 17.9437V25.9859C27.4281 26.6765 27.9891 27.2359 28.6781 27.2359ZM29.9281 19.1953H35.4797V24.7375H29.9281V19.1953ZM41.5141 27.2359H49.5625C50.2531 27.2359 50.8125 26.6765 50.8125 25.9859V17.9437C50.8125 17.2531 50.2531 16.6937 49.5625 16.6937H41.5156C40.825 16.6937 40.2656 17.2531 40.2656 17.9437V25.9859C40.2641 26.6765 40.8234 27.2359 41.5141 27.2359ZM42.7641 19.1953H48.3125V24.7375H42.7656V19.1953H42.7641ZM28.6781 40.0515H36.7297C37.4203 40.0515 37.9797 39.4922 37.9797 38.8015V30.764C37.9797 30.0734 37.4203 29.514 36.7297 29.514H28.6781C27.9875 29.514 27.4281 30.0734 27.4281 30.764V38.8015C27.4281 39.4922 27.9891 40.0515 28.6781 40.0515ZM29.9281 32.014H35.4797V37.5515H29.9281V32.014ZM41.5141 40.0515H49.5625C50.2531 40.0515 50.8125 39.4922 50.8125 38.8015V30.764C50.8125 30.0734 50.2531 29.514 49.5625 29.514H41.5156C40.825 29.514 40.2656 30.0734 40.2656 30.764V38.8015C40.2641 39.4922 40.8234 40.0515 41.5141 40.0515ZM42.7641 32.014H48.3125V37.5515H42.7656V32.014H42.7641ZM69.7812 42.3281H61.7297C61.0391 42.3281 60.4797 42.8875 60.4797 43.5781V51.6203C60.4797 52.3109 61.0391 52.8703 61.7297 52.8703H69.7812C70.4719 52.8703 71.0312 52.3109 71.0312 51.6203V43.5781C71.0312 42.8875 70.4703 42.3281 69.7812 42.3281ZM68.5312 50.3703H62.9797V44.8281H68.5312V50.3703ZM79.25 75.8765H76.9391V39.9343C76.9391 39.464 76.675 39.0344 76.2562 38.8203L57.0703 29.0562V10.5844C57.0703 9.89373 56.5109 9.33435 55.8203 9.33435H53.4734V2.87341C53.4734 2.18279 52.9141 1.62341 52.2234 1.62341H26.0172C25.3266 1.62341 24.7672 2.18279 24.7672 2.87341V9.33279H22.4203C21.7297 9.33279 21.1703 9.89216 21.1703 10.5828V24.5359H8.18594C7.49531 24.5359 6.93594 25.0953 6.93594 25.7859V53.7406L1.01406 58.0578C0.881172 58.1544 0.768714 58.2763 0.683168 58.4166C0.597622 58.5568 0.54068 58.7126 0.515623 58.875C0.464061 59.2031 0.546873 59.5375 0.742186 59.8062L3.25312 63.2344C3.49844 63.5687 3.87812 63.7453 4.2625 63.7453C4.51875 63.7453 4.77656 63.6672 4.99844 63.5047L6.93594 62.0922V75.8734H4.625C3.93437 75.8734 3.375 76.4328 3.375 77.1234C3.375 77.814 3.93437 78.3734 4.625 78.3734H79.25C79.9406 78.3734 80.5 77.814 80.5 77.1234C80.5 76.4328 79.9406 75.8765 79.25 75.8765ZM62.9781 60.1984L63.2641 59.8078C63.4594 59.5406 63.5406 59.2047 63.4906 58.8781C63.4406 58.5515 63.2609 58.2562 62.9922 58.0609L62.9781 58.0515V57.65H68.5297V63.1875H62.9781V60.1984ZM60.5078 59.3422L59.4766 60.7515L42.3266 48.2437C42.1078 48.0844 41.8484 48.0031 41.5906 48.0031C41.3328 48.0031 41.0734 48.0828 40.8547 48.2437L35.6125 52.0672L34.1281 50.9828L41.5906 45.5437L60.5078 59.3422ZM27.2672 4.12341H50.9734V9.33279H27.2672V4.12341ZM23.6703 11.8344H54.5703V51.9187L42.3266 42.989C42.1126 42.8329 41.8547 42.7488 41.5898 42.7488C41.325 42.7488 41.067 42.8329 40.8531 42.989L32.0031 49.439L23.6703 43.364V11.8344ZM21.1703 37.5515H14.9578V32.014H21.1703V37.5515ZM9.43594 27.0375H21.1703V29.514H13.7078C13.0172 29.514 12.4578 30.0734 12.4578 30.764V38.8015C12.4578 39.4922 13.0172 40.0515 13.7078 40.0515H21.1703V43.364L9.43594 51.9203V27.0375ZM4.53281 60.7531L3.49844 59.3422L22.4203 45.5468L41.3422 59.3437L40.3109 60.7531L23.1562 48.2437C22.9423 48.0876 22.6844 48.0035 22.4195 48.0035C22.1547 48.0035 21.8967 48.0876 21.6828 48.2437L4.53281 60.7531ZM18.7359 75.8765V67.2375H26.1047V75.8765H18.7359ZM28.6047 75.8765V65.9875C28.6047 65.2968 28.0453 64.7375 27.3547 64.7375H17.4859C16.7953 64.7375 16.2359 65.2968 16.2359 65.9875V75.8765H9.43594V60.2718L22.4203 50.8015L35.4047 60.2687V75.8765H28.6047ZM37.9062 75.8765V62.0922L39.8484 63.5078C40.4062 63.914 41.1875 63.7922 41.5937 63.2359L44.1 59.8078C44.2954 59.5394 44.3768 59.2047 44.3266 58.8765C44.2751 58.5489 44.0958 58.2551 43.8281 58.0593L37.7328 53.6156L41.5906 50.8015L54.5719 60.2687V75.8765H37.9062ZM57.0703 75.8765V62.0922L59.0125 63.5078C59.2259 63.6645 59.4837 63.7488 59.7484 63.7484C60.0078 63.7484 60.2641 63.6656 60.4797 63.5109V64.4359C60.4797 65.1265 61.0391 65.6859 61.7297 65.6859H69.7812C70.4719 65.6859 71.0312 65.1265 71.0312 64.4359V56.3984C71.0312 55.7078 70.4719 55.1484 69.7812 55.1484H61.7297C61.0953 55.1484 60.5719 55.6218 60.4922 56.2359L57.0719 53.7422V31.8609L74.4406 40.7V75.8765H57.0703Z"/>
</mask>
<path d="M22.4203 53.3297C20.3859 53.3297 18.7297 54.9859 18.7297 57.0219C18.7297 59.0547 20.3859 60.7094 22.4203 60.7094C24.4547 60.7094 26.1109 59.0547 26.1109 57.0219C26.1109 54.9859 24.4547 53.3297 22.4203 53.3297ZM22.4203 58.2094C21.7641 58.2094 21.2297 57.6765 21.2297 57.0219C21.2297 56.364 21.7641 55.8297 22.4203 55.8297C23.0766 55.8297 23.6109 56.364 23.6109 57.0219C23.6109 57.6765 23.0766 58.2094 22.4203 58.2094ZM28.6781 27.2359H36.7297C37.4203 27.2359 37.9797 26.6765 37.9797 25.9859V17.9437C37.9797 17.2531 37.4203 16.6937 36.7297 16.6937H28.6781C27.9875 16.6937 27.4281 17.2531 27.4281 17.9437V25.9859C27.4281 26.6765 27.9891 27.2359 28.6781 27.2359ZM29.9281 19.1953H35.4797V24.7375H29.9281V19.1953ZM41.5141 27.2359H49.5625C50.2531 27.2359 50.8125 26.6765 50.8125 25.9859V17.9437C50.8125 17.2531 50.2531 16.6937 49.5625 16.6937H41.5156C40.825 16.6937 40.2656 17.2531 40.2656 17.9437V25.9859C40.2641 26.6765 40.8234 27.2359 41.5141 27.2359ZM42.7641 19.1953H48.3125V24.7375H42.7656V19.1953H42.7641ZM28.6781 40.0515H36.7297C37.4203 40.0515 37.9797 39.4922 37.9797 38.8015V30.764C37.9797 30.0734 37.4203 29.514 36.7297 29.514H28.6781C27.9875 29.514 27.4281 30.0734 27.4281 30.764V38.8015C27.4281 39.4922 27.9891 40.0515 28.6781 40.0515ZM29.9281 32.014H35.4797V37.5515H29.9281V32.014ZM41.5141 40.0515H49.5625C50.2531 40.0515 50.8125 39.4922 50.8125 38.8015V30.764C50.8125 30.0734 50.2531 29.514 49.5625 29.514H41.5156C40.825 29.514 40.2656 30.0734 40.2656 30.764V38.8015C40.2641 39.4922 40.8234 40.0515 41.5141 40.0515ZM42.7641 32.014H48.3125V37.5515H42.7656V32.014H42.7641ZM69.7812 42.3281H61.7297C61.0391 42.3281 60.4797 42.8875 60.4797 43.5781V51.6203C60.4797 52.3109 61.0391 52.8703 61.7297 52.8703H69.7812C70.4719 52.8703 71.0312 52.3109 71.0312 51.6203V43.5781C71.0312 42.8875 70.4703 42.3281 69.7812 42.3281ZM68.5312 50.3703H62.9797V44.8281H68.5312V50.3703ZM79.25 75.8765H76.9391V39.9343C76.9391 39.464 76.675 39.0344 76.2562 38.8203L57.0703 29.0562V10.5844C57.0703 9.89373 56.5109 9.33435 55.8203 9.33435H53.4734V2.87341C53.4734 2.18279 52.9141 1.62341 52.2234 1.62341H26.0172C25.3266 1.62341 24.7672 2.18279 24.7672 2.87341V9.33279H22.4203C21.7297 9.33279 21.1703 9.89216 21.1703 10.5828V24.5359H8.18594C7.49531 24.5359 6.93594 25.0953 6.93594 25.7859V53.7406L1.01406 58.0578C0.881172 58.1544 0.768714 58.2763 0.683168 58.4166C0.597622 58.5568 0.54068 58.7126 0.515623 58.875C0.464061 59.2031 0.546873 59.5375 0.742186 59.8062L3.25312 63.2344C3.49844 63.5687 3.87812 63.7453 4.2625 63.7453C4.51875 63.7453 4.77656 63.6672 4.99844 63.5047L6.93594 62.0922V75.8734H4.625C3.93437 75.8734 3.375 76.4328 3.375 77.1234C3.375 77.814 3.93437 78.3734 4.625 78.3734H79.25C79.9406 78.3734 80.5 77.814 80.5 77.1234C80.5 76.4328 79.9406 75.8765 79.25 75.8765ZM62.9781 60.1984L63.2641 59.8078C63.4594 59.5406 63.5406 59.2047 63.4906 58.8781C63.4406 58.5515 63.2609 58.2562 62.9922 58.0609L62.9781 58.0515V57.65H68.5297V63.1875H62.9781V60.1984ZM60.5078 59.3422L59.4766 60.7515L42.3266 48.2437C42.1078 48.0844 41.8484 48.0031 41.5906 48.0031C41.3328 48.0031 41.0734 48.0828 40.8547 48.2437L35.6125 52.0672L34.1281 50.9828L41.5906 45.5437L60.5078 59.3422ZM27.2672 4.12341H50.9734V9.33279H27.2672V4.12341ZM23.6703 11.8344H54.5703V51.9187L42.3266 42.989C42.1126 42.8329 41.8547 42.7488 41.5898 42.7488C41.325 42.7488 41.067 42.8329 40.8531 42.989L32.0031 49.439L23.6703 43.364V11.8344ZM21.1703 37.5515H14.9578V32.014H21.1703V37.5515ZM9.43594 27.0375H21.1703V29.514H13.7078C13.0172 29.514 12.4578 30.0734 12.4578 30.764V38.8015C12.4578 39.4922 13.0172 40.0515 13.7078 40.0515H21.1703V43.364L9.43594 51.9203V27.0375ZM4.53281 60.7531L3.49844 59.3422L22.4203 45.5468L41.3422 59.3437L40.3109 60.7531L23.1562 48.2437C22.9423 48.0876 22.6844 48.0035 22.4195 48.0035C22.1547 48.0035 21.8967 48.0876 21.6828 48.2437L4.53281 60.7531ZM18.7359 75.8765V67.2375H26.1047V75.8765H18.7359ZM28.6047 75.8765V65.9875C28.6047 65.2968 28.0453 64.7375 27.3547 64.7375H17.4859C16.7953 64.7375 16.2359 65.2968 16.2359 65.9875V75.8765H9.43594V60.2718L22.4203 50.8015L35.4047 60.2687V75.8765H28.6047ZM37.9062 75.8765V62.0922L39.8484 63.5078C40.4062 63.914 41.1875 63.7922 41.5937 63.2359L44.1 59.8078C44.2954 59.5394 44.3768 59.2047 44.3266 58.8765C44.2751 58.5489 44.0958 58.2551 43.8281 58.0593L37.7328 53.6156L41.5906 50.8015L54.5719 60.2687V75.8765H37.9062ZM57.0703 75.8765V62.0922L59.0125 63.5078C59.2259 63.6645 59.4837 63.7488 59.7484 63.7484C60.0078 63.7484 60.2641 63.6656 60.4797 63.5109V64.4359C60.4797 65.1265 61.0391 65.6859 61.7297 65.6859H69.7812C70.4719 65.6859 71.0312 65.1265 71.0312 64.4359V56.3984C71.0312 55.7078 70.4719 55.1484 69.7812 55.1484H61.7297C61.0953 55.1484 60.5719 55.6218 60.4922 56.2359L57.0719 53.7422V31.8609L74.4406 40.7V75.8765H57.0703Z" fill="#1563DF" stroke="white" stroke-width="1.4" mask="url(#path-1-inside-1_1476_21007)"/>
</g>
<defs>
<clipPath id="clip0_1476_21007">
<rect width="80" height="80" fill="white" transform="translate(0.5)"/>
</clipPath>
</defs>
</svg>
