<svg width="81" height="80" viewBox="0 0 81 80" fill="none" xmlns="http://www.w3.org/2000/svg">
<g clip-path="url(#clip0_1476_21029)">
<mask id="path-1-inside-1_1476_21029" fill="white">
<path d="M75.1667 77V12.9999H77.8333C78.187 12.9999 78.5261 12.8595 78.7761 12.6094C79.0262 12.3594 79.1667 12.0202 79.1667 11.6666V2.33328C79.1667 2.14835 79.1282 1.96545 79.0537 1.7962C78.9792 1.62694 78.8703 1.47503 78.7339 1.35012C78.5976 1.22522 78.4367 1.13004 78.2616 1.07064C78.0865 1.01125 77.9009 0.988933 77.7167 1.00511L32.3833 5.00511C32.0512 5.03429 31.742 5.18684 31.5168 5.4327C31.2916 5.67855 31.1667 5.99986 31.1667 6.33328V11.6666C31.1667 12.0202 31.3071 12.3594 31.5572 12.6094C31.8072 12.8595 32.1464 12.9999 32.5 12.9999H35.1667V34.3333H37.8333V12.9999H72.5V77H63.7623C64.2483 76.2097 64.5037 75.2995 64.5 74.3718C64.5 72.465 63.5015 71.4593 62.7725 70.725C62.121 70.069 61.8333 69.7475 61.8333 69C61.8333 65.687 60.0013 62.3333 56.5 62.3333C52.9987 62.3333 51.1667 65.687 51.1667 69C51.1667 69.7475 50.8788 70.069 50.2277 70.725C49.4985 71.4593 48.5 72.465 48.5 74.3718C48.4962 75.2994 48.7515 76.2096 49.2372 77H35.1667V59.6666C35.1667 59.313 35.0262 58.9739 34.7761 58.7238C34.5261 58.4738 34.187 58.3333 33.8333 58.3333H25.8333C25.4797 58.3333 25.1406 58.4738 24.8905 58.7238C24.6405 58.9739 24.5 59.313 24.5 59.6666V77H20.5V53.4553L36.5 46.4553L52.5 53.4553V61H55.1667V54.6219L57.2988 55.5553C57.5018 55.6441 57.7237 55.6809 57.9445 55.6625C58.1652 55.644 58.3779 55.5708 58.5633 55.4495C58.7487 55.3282 58.9009 55.1627 59.0063 54.9678C59.1116 54.7729 59.1667 54.5548 59.1667 54.3333V47.6666C59.1667 47.4074 59.0911 47.1538 58.9492 46.9369C58.8074 46.7199 58.6053 46.549 58.3678 46.4451L37.0345 37.1118C36.866 37.038 36.684 37 36.5 37C36.316 37 36.134 37.038 35.9655 37.1118L14.6322 46.4451C14.3947 46.549 14.1927 46.7199 14.0508 46.9369C13.9089 47.1538 13.8333 47.4074 13.8333 47.6666V54.3333C13.8333 54.5548 13.8885 54.7728 13.9939 54.9676C14.0993 55.1624 14.2515 55.3279 14.4369 55.4492C14.6223 55.5704 14.8349 55.6435 15.0557 55.662C15.2764 55.6804 15.4982 55.6436 15.7012 55.5548L17.8333 54.6215V77H8.5V54.3333H11.1667V51.6666H3.16667V22.3333H32.5V19.6666H23.719L18.7762 14.7238C18.6524 14.6 18.5054 14.5018 18.3436 14.4348C18.1818 14.3678 18.0084 14.3333 17.8333 14.3333H7.16667C6.81305 14.3333 6.47391 14.4738 6.22386 14.7238C5.97381 14.9739 5.83333 15.313 5.83333 15.6666V19.6666H1.83333C1.47971 19.6666 1.14057 19.8071 0.890524 20.0571C0.640476 20.3072 0.5 20.6463 0.5 20.9999V53C0.5 53.3536 0.640476 53.6927 0.890524 53.9428C1.14057 54.1928 1.47971 54.3333 1.83333 54.3333H5.83333V77H0.5V79.6666H80.5V77H75.1667ZM33.8333 7.55411L76.5 3.78945V10.3333H33.8333V7.55411ZM16.5 52.2946V48.5386L36.5 39.7886L56.5 48.5386V52.2946L55.1667 51.7113V51.6666H55.0647L37.0345 43.7785C36.866 43.7047 36.684 43.6666 36.5 43.6666C36.316 43.6666 36.134 43.7047 35.9655 43.7785L17.9353 51.6666H17.8333V51.7113L16.5 52.2946ZM8.5 16.9999H17.2812L19.9478 19.6666H8.5V16.9999ZM27.1667 61H32.5V77H27.1667V61ZM53.8333 77C53.099 77 51.1667 76.1918 51.1667 74.3718C51.1667 73.5965 51.4588 73.2695 52.12 72.6036C52.843 71.8753 53.8333 70.878 53.8333 69C53.8333 65.836 55.5777 65 56.5 65C58.6093 65 59.1667 67.6166 59.1667 69C59.1667 70.878 60.1568 71.8753 60.8798 72.6036C61.5408 73.2703 61.8332 73.5965 61.8332 74.3718C61.8333 76.1918 59.9008 77 59.1667 77H53.8333Z"/>
</mask>
<path d="M75.1667 77V12.9999H77.8333C78.187 12.9999 78.5261 12.8595 78.7761 12.6094C79.0262 12.3594 79.1667 12.0202 79.1667 11.6666V2.33328C79.1667 2.14835 79.1282 1.96545 79.0537 1.7962C78.9792 1.62694 78.8703 1.47503 78.7339 1.35012C78.5976 1.22522 78.4367 1.13004 78.2616 1.07064C78.0865 1.01125 77.9009 0.988933 77.7167 1.00511L32.3833 5.00511C32.0512 5.03429 31.742 5.18684 31.5168 5.4327C31.2916 5.67855 31.1667 5.99986 31.1667 6.33328V11.6666C31.1667 12.0202 31.3071 12.3594 31.5572 12.6094C31.8072 12.8595 32.1464 12.9999 32.5 12.9999H35.1667V34.3333H37.8333V12.9999H72.5V77H63.7623C64.2483 76.2097 64.5037 75.2995 64.5 74.3718C64.5 72.465 63.5015 71.4593 62.7725 70.725C62.121 70.069 61.8333 69.7475 61.8333 69C61.8333 65.687 60.0013 62.3333 56.5 62.3333C52.9987 62.3333 51.1667 65.687 51.1667 69C51.1667 69.7475 50.8788 70.069 50.2277 70.725C49.4985 71.4593 48.5 72.465 48.5 74.3718C48.4962 75.2994 48.7515 76.2096 49.2372 77H35.1667V59.6666C35.1667 59.313 35.0262 58.9739 34.7761 58.7238C34.5261 58.4738 34.187 58.3333 33.8333 58.3333H25.8333C25.4797 58.3333 25.1406 58.4738 24.8905 58.7238C24.6405 58.9739 24.5 59.313 24.5 59.6666V77H20.5V53.4553L36.5 46.4553L52.5 53.4553V61H55.1667V54.6219L57.2988 55.5553C57.5018 55.6441 57.7237 55.6809 57.9445 55.6625C58.1652 55.644 58.3779 55.5708 58.5633 55.4495C58.7487 55.3282 58.9009 55.1627 59.0063 54.9678C59.1116 54.7729 59.1667 54.5548 59.1667 54.3333V47.6666C59.1667 47.4074 59.0911 47.1538 58.9492 46.9369C58.8074 46.7199 58.6053 46.549 58.3678 46.4451L37.0345 37.1118C36.866 37.038 36.684 37 36.5 37C36.316 37 36.134 37.038 35.9655 37.1118L14.6322 46.4451C14.3947 46.549 14.1927 46.7199 14.0508 46.9369C13.9089 47.1538 13.8333 47.4074 13.8333 47.6666V54.3333C13.8333 54.5548 13.8885 54.7728 13.9939 54.9676C14.0993 55.1624 14.2515 55.3279 14.4369 55.4492C14.6223 55.5704 14.8349 55.6435 15.0557 55.662C15.2764 55.6804 15.4982 55.6436 15.7012 55.5548L17.8333 54.6215V77H8.5V54.3333H11.1667V51.6666H3.16667V22.3333H32.5V19.6666H23.719L18.7762 14.7238C18.6524 14.6 18.5054 14.5018 18.3436 14.4348C18.1818 14.3678 18.0084 14.3333 17.8333 14.3333H7.16667C6.81305 14.3333 6.47391 14.4738 6.22386 14.7238C5.97381 14.9739 5.83333 15.313 5.83333 15.6666V19.6666H1.83333C1.47971 19.6666 1.14057 19.8071 0.890524 20.0571C0.640476 20.3072 0.5 20.6463 0.5 20.9999V53C0.5 53.3536 0.640476 53.6927 0.890524 53.9428C1.14057 54.1928 1.47971 54.3333 1.83333 54.3333H5.83333V77H0.5V79.6666H80.5V77H75.1667ZM33.8333 7.55411L76.5 3.78945V10.3333H33.8333V7.55411ZM16.5 52.2946V48.5386L36.5 39.7886L56.5 48.5386V52.2946L55.1667 51.7113V51.6666H55.0647L37.0345 43.7785C36.866 43.7047 36.684 43.6666 36.5 43.6666C36.316 43.6666 36.134 43.7047 35.9655 43.7785L17.9353 51.6666H17.8333V51.7113L16.5 52.2946ZM8.5 16.9999H17.2812L19.9478 19.6666H8.5V16.9999ZM27.1667 61H32.5V77H27.1667V61ZM53.8333 77C53.099 77 51.1667 76.1918 51.1667 74.3718C51.1667 73.5965 51.4588 73.2695 52.12 72.6036C52.843 71.8753 53.8333 70.878 53.8333 69C53.8333 65.836 55.5777 65 56.5 65C58.6093 65 59.1667 67.6166 59.1667 69C59.1667 70.878 60.1568 71.8753 60.8798 72.6036C61.5408 73.2703 61.8332 73.5965 61.8332 74.3718C61.8333 76.1918 59.9008 77 59.1667 77H53.8333Z" fill="#1563DF" stroke="white" stroke-width="1.4" mask="url(#path-1-inside-1_1476_21029)"/>
<mask id="path-2-inside-2_1476_21029" fill="white">
<path d="M39.1667 61C38.8131 61 38.4739 61.1405 38.2239 61.3905C37.9738 61.6406 37.8333 61.9797 37.8333 62.3333V69C37.8333 69.3536 37.9738 69.6928 38.2239 69.9428C38.4739 70.1929 38.8131 70.3333 39.1667 70.3333H47.1667C47.5203 70.3333 47.8594 70.1929 48.1095 69.9428C48.3595 69.6928 48.5 69.3536 48.5 69V62.3333C48.5 61.9797 48.3595 61.6406 48.1095 61.3905C47.8594 61.1405 47.5203 61 47.1667 61H39.1667ZM45.8333 67.6667H40.5V63.6667H45.8333V67.6667ZM28.5 53H31.1667V55.6667H28.5V53ZM20.5 41V27.6667H32.5V25H7.16668C6.81305 25 6.47392 25.1405 6.22387 25.3905C5.97382 25.6406 5.83334 25.9797 5.83334 26.3333V47.6667C5.83334 48.0203 5.97382 48.3594 6.22387 48.6095C6.47392 48.8595 6.81305 49 7.16668 49H11.1667V46.3333H8.50001V27.6667H17.8333V41H20.5ZM43.1667 27.6667H51.1667C51.5203 27.6667 51.8594 27.5262 52.1095 27.2761C52.3595 27.0261 52.5 26.687 52.5 26.3333V18.3333C52.5 17.9797 52.3595 17.6406 52.1095 17.3905C51.8594 17.1405 51.5203 17 51.1667 17H43.1667C42.8131 17 42.4739 17.1405 42.2239 17.3905C41.9738 17.6406 41.8333 17.9797 41.8333 18.3333V26.3333C41.8333 26.687 41.9738 27.0261 42.2239 27.2761C42.4739 27.5262 42.8131 27.6667 43.1667 27.6667ZM44.5 19.6667H49.8333V25H44.5V19.6667ZM59.1667 27.6667H67.1667C67.5203 27.6667 67.8594 27.5262 68.1095 27.2761C68.3595 27.0261 68.5 26.687 68.5 26.3333V18.3333C68.5 17.9797 68.3595 17.6406 68.1095 17.3905C67.8594 17.1405 67.5203 17 67.1667 17H59.1667C58.8131 17 58.4739 17.1405 58.2239 17.3905C57.9738 17.6406 57.8333 17.9797 57.8333 18.3333V26.3333C57.8333 26.687 57.9738 27.0261 58.2239 27.2761C58.4739 27.5262 58.8131 27.6667 59.1667 27.6667ZM60.5 19.6667H65.8333V25H60.5V19.6667ZM41.8333 37H44.5V34.3333H49.8333V41H52.5V33C52.5 32.6464 52.3595 32.3072 52.1095 32.0572C51.8594 31.8071 51.5203 31.6667 51.1667 31.6667H43.1667C42.8131 31.6667 42.4739 31.8071 42.2239 32.0572C41.9738 32.3072 41.8333 32.6464 41.8333 33V37ZM57.8333 41C57.8333 41.3536 57.9738 41.6928 58.2239 41.9428C58.4739 42.1929 58.8131 42.3333 59.1667 42.3333H67.1667C67.5203 42.3333 67.8594 42.1929 68.1095 41.9428C68.3595 41.6928 68.5 41.3536 68.5 41V33C68.5 32.6464 68.3595 32.3072 68.1095 32.0572C67.8594 31.8071 67.5203 31.6667 67.1667 31.6667H59.1667C58.8131 31.6667 58.4739 31.8071 58.2239 32.0572C57.9738 32.3072 57.8333 32.6464 57.8333 33V41ZM60.5 34.3333H65.8333V39.6667H60.5V34.3333ZM61.8333 54.3333V57H67.1667C67.5203 57 67.8594 56.8595 68.1095 56.6095C68.3595 56.3594 68.5 56.0203 68.5 55.6667V47.6667C68.5 47.313 68.3595 46.9739 68.1095 46.7239C67.8594 46.4738 67.5203 46.3333 67.1667 46.3333H61.8333V49H65.8333V54.3333H61.8333ZM11.1667 58.3333H13.8333V61H11.1667V58.3333Z"/>
</mask>
<path d="M39.1667 61C38.8131 61 38.4739 61.1405 38.2239 61.3905C37.9738 61.6406 37.8333 61.9797 37.8333 62.3333V69C37.8333 69.3536 37.9738 69.6928 38.2239 69.9428C38.4739 70.1929 38.8131 70.3333 39.1667 70.3333H47.1667C47.5203 70.3333 47.8594 70.1929 48.1095 69.9428C48.3595 69.6928 48.5 69.3536 48.5 69V62.3333C48.5 61.9797 48.3595 61.6406 48.1095 61.3905C47.8594 61.1405 47.5203 61 47.1667 61H39.1667ZM45.8333 67.6667H40.5V63.6667H45.8333V67.6667ZM28.5 53H31.1667V55.6667H28.5V53ZM20.5 41V27.6667H32.5V25H7.16668C6.81305 25 6.47392 25.1405 6.22387 25.3905C5.97382 25.6406 5.83334 25.9797 5.83334 26.3333V47.6667C5.83334 48.0203 5.97382 48.3594 6.22387 48.6095C6.47392 48.8595 6.81305 49 7.16668 49H11.1667V46.3333H8.50001V27.6667H17.8333V41H20.5ZM43.1667 27.6667H51.1667C51.5203 27.6667 51.8594 27.5262 52.1095 27.2761C52.3595 27.0261 52.5 26.687 52.5 26.3333V18.3333C52.5 17.9797 52.3595 17.6406 52.1095 17.3905C51.8594 17.1405 51.5203 17 51.1667 17H43.1667C42.8131 17 42.4739 17.1405 42.2239 17.3905C41.9738 17.6406 41.8333 17.9797 41.8333 18.3333V26.3333C41.8333 26.687 41.9738 27.0261 42.2239 27.2761C42.4739 27.5262 42.8131 27.6667 43.1667 27.6667ZM44.5 19.6667H49.8333V25H44.5V19.6667ZM59.1667 27.6667H67.1667C67.5203 27.6667 67.8594 27.5262 68.1095 27.2761C68.3595 27.0261 68.5 26.687 68.5 26.3333V18.3333C68.5 17.9797 68.3595 17.6406 68.1095 17.3905C67.8594 17.1405 67.5203 17 67.1667 17H59.1667C58.8131 17 58.4739 17.1405 58.2239 17.3905C57.9738 17.6406 57.8333 17.9797 57.8333 18.3333V26.3333C57.8333 26.687 57.9738 27.0261 58.2239 27.2761C58.4739 27.5262 58.8131 27.6667 59.1667 27.6667ZM60.5 19.6667H65.8333V25H60.5V19.6667ZM41.8333 37H44.5V34.3333H49.8333V41H52.5V33C52.5 32.6464 52.3595 32.3072 52.1095 32.0572C51.8594 31.8071 51.5203 31.6667 51.1667 31.6667H43.1667C42.8131 31.6667 42.4739 31.8071 42.2239 32.0572C41.9738 32.3072 41.8333 32.6464 41.8333 33V37ZM57.8333 41C57.8333 41.3536 57.9738 41.6928 58.2239 41.9428C58.4739 42.1929 58.8131 42.3333 59.1667 42.3333H67.1667C67.5203 42.3333 67.8594 42.1929 68.1095 41.9428C68.3595 41.6928 68.5 41.3536 68.5 41V33C68.5 32.6464 68.3595 32.3072 68.1095 32.0572C67.8594 31.8071 67.5203 31.6667 67.1667 31.6667H59.1667C58.8131 31.6667 58.4739 31.8071 58.2239 32.0572C57.9738 32.3072 57.8333 32.6464 57.8333 33V41ZM60.5 34.3333H65.8333V39.6667H60.5V34.3333ZM61.8333 54.3333V57H67.1667C67.5203 57 67.8594 56.8595 68.1095 56.6095C68.3595 56.3594 68.5 56.0203 68.5 55.6667V47.6667C68.5 47.313 68.3595 46.9739 68.1095 46.7239C67.8594 46.4738 67.5203 46.3333 67.1667 46.3333H61.8333V49H65.8333V54.3333H61.8333ZM11.1667 58.3333H13.8333V61H11.1667V58.3333Z" fill="#1563DF" stroke="white" stroke-width="1.4" mask="url(#path-2-inside-2_1476_21029)"/>
</g>
<defs>
<clipPath id="clip0_1476_21029">
<rect width="80" height="80" fill="white" transform="translate(0.5)"/>
</clipPath>
</defs>
</svg>
