<svg width="81" height="80" viewBox="0 0 81 80" fill="none" xmlns="http://www.w3.org/2000/svg">
<mask id="path-1-inside-1_1476_21037" fill="white">
<path d="M43.4998 62.62C43.1974 62.62 42.9073 62.7402 42.6934 62.9541C42.4795 63.1679 42.3594 63.458 42.3594 63.7605V66.1174C42.3594 66.4198 42.4795 66.7099 42.6934 66.9238C42.9073 67.1377 43.1974 67.2578 43.4998 67.2578C43.8023 67.2578 44.0924 67.1377 44.3063 66.9238C44.5201 66.7099 44.6403 66.4198 44.6403 66.1174V63.7605C44.6403 63.458 44.5201 63.168 44.3062 62.9541C44.0924 62.7402 43.8023 62.6201 43.4998 62.62ZM28.8624 53.496H21.264C20.382 53.496 19.6645 54.2135 19.6645 55.0955V64.6934C19.6645 65.5755 20.382 66.293 21.2638 66.293H28.8624C29.7444 66.293 30.4619 65.5755 30.4619 64.6934V55.0955C30.4619 54.2135 29.7443 53.496 28.8624 53.496ZM28.1811 64.0122H21.9452V55.7768H28.1811V64.0122ZM59.7357 53.496H52.137C51.2551 53.496 50.5376 54.2135 50.5376 55.0955V64.6934C50.5376 65.5755 51.2551 66.293 52.137 66.293H59.7357C60.6176 66.293 61.3351 65.5755 61.3351 64.6934V55.0955C61.3351 54.2135 60.6176 53.496 59.7357 53.496ZM59.0543 64.0122H52.8186V55.7768H59.0543V64.0122ZM28.8624 31.7947H21.264C20.382 31.7947 19.6645 32.5122 19.6645 33.3942V42.9921C19.6645 43.8742 20.382 44.5917 21.2638 44.5917H28.8624C29.7444 44.5917 30.4619 43.8742 30.4619 42.9921V33.3942C30.4619 32.5122 29.7443 31.7947 28.8624 31.7947ZM28.1811 42.3109H21.9452V34.0754H28.1811V42.3109ZM44.2991 31.7947H36.7005C35.8185 31.7947 35.101 32.5122 35.101 33.3942V42.9921C35.101 43.8742 35.8186 44.5917 36.7005 44.5917H44.2991C45.1811 44.5917 45.8986 43.8742 45.8986 42.9921V33.3942C45.8986 32.5122 45.1811 31.7947 44.2991 31.7947ZM43.6178 42.3109H37.3819V34.0754H43.6178V42.3109ZM59.7357 31.7947H52.137C51.2551 31.7947 50.5376 32.5122 50.5376 33.3942V42.9921C50.5376 43.8742 51.2551 44.5917 52.137 44.5917H59.7357C60.6176 44.5917 61.3351 43.8742 61.3351 42.9921V33.3942C61.3351 32.5122 60.6176 31.7947 59.7357 31.7947ZM59.0543 42.3109H52.8186V34.0754H59.0543V42.3109ZM28.8626 11.8424H21.264C20.382 11.8424 19.6645 12.5599 19.6645 13.4419V23.0399C19.6643 23.9219 20.382 24.6394 21.264 24.6394H28.8626C29.7446 24.6394 30.4621 23.9219 30.4621 23.0399V13.4419C30.4621 12.5599 29.7444 11.8424 28.8626 11.8424ZM28.1811 22.3586H21.9452V14.1232H28.1811V22.3586ZM44.2991 11.8424H36.7005C35.8185 11.8424 35.101 12.5599 35.101 13.4419V23.0399C35.101 23.9219 35.8186 24.6394 36.7005 24.6394H44.2991C45.1811 24.6394 45.8986 23.9219 45.8986 23.0399V13.4419C45.8986 12.5599 45.1811 11.8424 44.2991 11.8424ZM43.6178 22.3586H37.3819V14.1232H43.6178V22.3586ZM59.7359 11.8424H52.1371C51.2553 11.8424 50.5378 12.5599 50.5378 13.4419V23.0399C50.5376 23.9219 51.2551 24.6394 52.1371 24.6394H59.7359C60.6177 24.6394 61.3352 23.9219 61.3352 23.0399V13.4419C61.3352 12.5599 60.6177 11.8424 59.7359 11.8424ZM59.0543 22.3586H52.8186V14.1232H59.0543V22.3586Z"/>
</mask>
<path d="M43.4998 62.62C43.1974 62.62 42.9073 62.7402 42.6934 62.9541C42.4795 63.1679 42.3594 63.458 42.3594 63.7605V66.1174C42.3594 66.4198 42.4795 66.7099 42.6934 66.9238C42.9073 67.1377 43.1974 67.2578 43.4998 67.2578C43.8023 67.2578 44.0924 67.1377 44.3063 66.9238C44.5201 66.7099 44.6403 66.4198 44.6403 66.1174V63.7605C44.6403 63.458 44.5201 63.168 44.3062 62.9541C44.0924 62.7402 43.8023 62.6201 43.4998 62.62ZM28.8624 53.496H21.264C20.382 53.496 19.6645 54.2135 19.6645 55.0955V64.6934C19.6645 65.5755 20.382 66.293 21.2638 66.293H28.8624C29.7444 66.293 30.4619 65.5755 30.4619 64.6934V55.0955C30.4619 54.2135 29.7443 53.496 28.8624 53.496ZM28.1811 64.0122H21.9452V55.7768H28.1811V64.0122ZM59.7357 53.496H52.137C51.2551 53.496 50.5376 54.2135 50.5376 55.0955V64.6934C50.5376 65.5755 51.2551 66.293 52.137 66.293H59.7357C60.6176 66.293 61.3351 65.5755 61.3351 64.6934V55.0955C61.3351 54.2135 60.6176 53.496 59.7357 53.496ZM59.0543 64.0122H52.8186V55.7768H59.0543V64.0122ZM28.8624 31.7947H21.264C20.382 31.7947 19.6645 32.5122 19.6645 33.3942V42.9921C19.6645 43.8742 20.382 44.5917 21.2638 44.5917H28.8624C29.7444 44.5917 30.4619 43.8742 30.4619 42.9921V33.3942C30.4619 32.5122 29.7443 31.7947 28.8624 31.7947ZM28.1811 42.3109H21.9452V34.0754H28.1811V42.3109ZM44.2991 31.7947H36.7005C35.8185 31.7947 35.101 32.5122 35.101 33.3942V42.9921C35.101 43.8742 35.8186 44.5917 36.7005 44.5917H44.2991C45.1811 44.5917 45.8986 43.8742 45.8986 42.9921V33.3942C45.8986 32.5122 45.1811 31.7947 44.2991 31.7947ZM43.6178 42.3109H37.3819V34.0754H43.6178V42.3109ZM59.7357 31.7947H52.137C51.2551 31.7947 50.5376 32.5122 50.5376 33.3942V42.9921C50.5376 43.8742 51.2551 44.5917 52.137 44.5917H59.7357C60.6176 44.5917 61.3351 43.8742 61.3351 42.9921V33.3942C61.3351 32.5122 60.6176 31.7947 59.7357 31.7947ZM59.0543 42.3109H52.8186V34.0754H59.0543V42.3109ZM28.8626 11.8424H21.264C20.382 11.8424 19.6645 12.5599 19.6645 13.4419V23.0399C19.6643 23.9219 20.382 24.6394 21.264 24.6394H28.8626C29.7446 24.6394 30.4621 23.9219 30.4621 23.0399V13.4419C30.4621 12.5599 29.7444 11.8424 28.8626 11.8424ZM28.1811 22.3586H21.9452V14.1232H28.1811V22.3586ZM44.2991 11.8424H36.7005C35.8185 11.8424 35.101 12.5599 35.101 13.4419V23.0399C35.101 23.9219 35.8186 24.6394 36.7005 24.6394H44.2991C45.1811 24.6394 45.8986 23.9219 45.8986 23.0399V13.4419C45.8986 12.5599 45.1811 11.8424 44.2991 11.8424ZM43.6178 22.3586H37.3819V14.1232H43.6178V22.3586ZM59.7359 11.8424H52.1371C51.2553 11.8424 50.5378 12.5599 50.5378 13.4419V23.0399C50.5376 23.9219 51.2551 24.6394 52.1371 24.6394H59.7359C60.6177 24.6394 61.3352 23.9219 61.3352 23.0399V13.4419C61.3352 12.5599 60.6177 11.8424 59.7359 11.8424ZM59.0543 22.3586H52.8186V14.1232H59.0543V22.3586Z" fill="#1563DF" stroke="white" mask="url(#path-1-inside-1_1476_21037)"/>
<mask id="path-2-inside-2_1476_21037" fill="white">
<path d="M73.6696 73.7655H71.8982C71.6749 70.8211 69.6104 68.3846 66.8552 67.6068L66.8169 6.87544H68.2002C69.0176 6.87544 69.6824 6.2106 69.6824 5.39342V1.48203C69.6824 0.664841 69.0176 0 68.2002 0H60.2628C59.6329 0 59.1223 0.510467 59.1223 1.14046C59.1223 1.77046 59.6328 2.28093 60.2628 2.28093H67.4015V4.59467H13.5984V2.28093H63.1303C63.7601 2.28093 64.2707 1.77046 64.2707 1.14046C64.2707 0.510467 63.7601 0 63.1303 0H12.7995C11.9823 0 11.3175 0.664841 11.3175 1.48203V5.39357C11.3175 6.21076 11.9823 6.8756 12.7995 6.8756H14.1387L14.1629 55.2297C14.1631 55.532 14.2833 55.8219 14.4972 56.0356C14.7111 56.2494 15.0011 56.3694 15.3034 56.3694C15.6059 56.3691 15.8966 56.2487 16.1103 56.0347C16.3241 55.8207 16.444 55.5306 16.4439 55.2281L16.4196 6.87544H64.536L64.5741 67.3557C64.5704 67.3558 64.5668 67.3565 64.563 67.3566C64.5234 67.3588 64.484 67.3635 64.4445 67.3665C64.3505 67.3735 64.2566 67.3805 64.1637 67.3911C64.1129 67.3969 64.0629 67.4054 64.0124 67.4122C63.9313 67.4233 63.8501 67.4341 63.7698 67.4482C63.7152 67.4576 63.6613 67.4694 63.6071 67.48C63.532 67.4949 63.4566 67.5096 63.3823 67.5269C63.3262 67.5399 63.271 67.5549 63.2154 67.5693C63.1437 67.5879 63.0721 67.6063 63.0013 67.6271C62.9454 67.6435 62.8901 67.6616 62.8346 67.6794C62.7653 67.7013 62.6964 67.7244 62.6279 67.7485C62.5726 67.7682 62.5179 67.7893 62.4631 67.8104C62.396 67.8363 62.3292 67.8625 62.2631 67.8905C62.2085 67.9135 62.1546 67.9374 62.1009 67.9618C61.9168 68.0447 61.7365 68.136 61.5607 68.2354C61.5095 68.2643 61.4585 68.2935 61.4081 68.3236C61.3463 68.3605 61.2856 68.3986 61.2249 68.4375C61.1757 68.4691 61.1267 68.5007 61.0782 68.5333C61.0181 68.5741 60.959 68.6165 60.9001 68.6591C60.8534 68.693 60.8065 68.7266 60.7606 68.7616C60.7018 68.8064 60.6443 68.8532 60.587 68.9C60.5429 68.936 60.4985 68.9713 60.4554 69.0083C60.3976 69.0579 60.3415 69.1094 60.2853 69.161C60.2446 69.1982 60.2035 69.2344 60.1638 69.2727C60.1059 69.3283 60.0501 69.3864 59.994 69.4443C59.9582 69.4811 59.9215 69.5169 59.8865 69.5547C59.8257 69.6202 59.7674 69.6882 59.709 69.7563C59.6809 69.7891 59.6515 69.8205 59.6239 69.8539C59.5386 69.9568 59.4563 70.0621 59.377 70.1696C59.2467 70.1966 59.1182 70.2291 58.9912 70.265C58.9493 70.2769 58.9085 70.291 58.867 70.3038C58.7823 70.33 58.6981 70.3569 58.6151 70.3871C58.5674 70.4043 58.5207 70.423 58.4737 70.4416C58.3497 70.4901 58.2275 70.5431 58.1074 70.6005C58.0347 70.6354 57.9628 70.6719 57.8917 70.71C57.8473 70.7336 57.8029 70.7569 57.7592 70.7818C57.6835 70.8247 57.6096 70.8704 57.5364 70.9166C57.5001 70.9396 57.4629 70.9613 57.4271 70.985C57.3198 71.0558 57.215 71.1304 57.1129 71.2085C57.1064 71.2135 57.1003 71.2191 57.0939 71.2241C56.9982 71.2982 56.9053 71.3754 56.8148 71.4552C56.7821 71.4841 56.751 71.5147 56.719 71.5443C56.6558 71.6022 56.594 71.6616 56.5336 71.7224C56.4984 71.758 56.4645 71.7947 56.4303 71.8313C56.3404 71.9272 56.2539 72.0262 56.1709 72.1282C56.1198 72.191 56.0706 72.2552 56.0223 72.3202C55.9928 72.3599 55.9631 72.3992 55.9346 72.4397C55.8839 72.5121 55.8357 72.5861 55.7882 72.661C55.7661 72.6961 55.7426 72.7303 55.7211 72.7658C55.6536 72.877 55.5901 72.9906 55.5306 73.1063C55.5264 73.1146 55.5228 73.1233 55.5186 73.1316C55.4639 73.2397 55.4128 73.35 55.365 73.4621C55.3478 73.5025 55.3328 73.5439 55.3165 73.5847C55.2925 73.6449 55.267 73.7042 55.2451 73.7655H47.853V55.4351C47.853 54.3659 46.9831 53.496 45.9139 53.496H35.0858C34.0166 53.496 33.1468 54.3659 33.1468 55.4351V73.7656H25.7549C25.7329 73.7044 25.7074 73.6449 25.6834 73.5846C25.6671 73.5438 25.6521 73.5024 25.6349 73.4622C25.5879 73.3516 25.5372 73.2426 25.483 73.1353C25.4782 73.1258 25.4741 73.1158 25.4693 73.1061C25.41 72.9908 25.3466 72.8775 25.2793 72.7666C25.2574 72.7302 25.2335 72.6953 25.2107 72.6594C25.1641 72.5853 25.1158 72.5124 25.0659 72.4405C25.0371 72.3994 25.007 72.3597 24.9771 72.3194C24.9293 72.255 24.8802 72.1915 24.8298 72.1291C24.7468 72.027 24.6602 71.928 24.5702 71.8321C24.5359 71.7952 24.5016 71.7583 24.4662 71.7224C24.4062 71.6616 24.3443 71.6032 24.2816 71.5452C24.2493 71.5153 24.2179 71.4844 24.1849 71.4553C24.0944 71.3753 24.0013 71.2982 23.9057 71.2243C23.8993 71.2193 23.8934 71.2138 23.8868 71.2088C23.7845 71.1307 23.6796 71.0561 23.5723 70.9852C23.5368 70.9616 23.5001 70.9402 23.4641 70.9174C23.3906 70.8705 23.3159 70.8253 23.2402 70.7819C23.1968 70.7572 23.1527 70.7341 23.1087 70.7107C23.0371 70.6725 22.9651 70.6357 22.8918 70.6005C22.8453 70.5783 22.7984 70.5567 22.7513 70.5357C22.6768 70.5025 22.6013 70.4714 22.5252 70.4414C22.4787 70.4232 22.4323 70.4046 22.3851 70.3875C22.3013 70.3577 22.2169 70.3298 22.1318 70.3038C22.0907 70.2911 22.0503 70.2771 22.0087 70.2654C21.8812 70.2289 21.7525 70.197 21.6228 70.1697C21.5437 70.0625 21.4615 69.9575 21.3765 69.8549C21.3487 69.8213 21.3193 69.7897 21.291 69.7568C21.2336 69.689 21.1748 69.6223 21.1148 69.5568C21.0793 69.5185 21.0421 69.4821 21.0059 69.4447C20.9504 69.3877 20.8953 69.3304 20.8381 69.2754C20.7981 69.2369 20.7568 69.2004 20.716 69.1629C20.6606 69.1113 20.6043 69.0608 20.5471 69.0111C20.5039 68.974 20.4595 68.9383 20.4153 68.9024C20.3582 68.8558 20.3012 68.8096 20.2429 68.7649C20.1968 68.7297 20.1499 68.6958 20.1032 68.6618C20.0448 68.6191 19.9856 68.5774 19.9259 68.5366C19.8776 68.5038 19.8287 68.4722 19.7796 68.4407C19.7193 68.4018 19.6583 68.3639 19.5968 68.3269C19.3732 68.1934 19.1423 68.0726 18.9051 67.9649C18.852 67.9408 18.7987 67.9168 18.745 67.894C18.6782 67.8657 18.6109 67.8393 18.5432 67.8132C18.4893 67.7924 18.4356 67.7713 18.3812 67.7519C18.3118 67.7271 18.2415 67.7044 18.1712 67.6818C18.1171 67.6644 18.0634 67.6463 18.0089 67.6302C17.936 67.6086 17.8623 67.5899 17.7885 67.5707C17.7353 67.5569 17.6825 67.5421 17.6289 67.5296C17.5501 67.5111 17.4703 67.4957 17.3907 67.48C17.3412 67.4702 17.2921 67.4591 17.2425 67.4504C17.1477 67.4343 17.0525 67.4202 16.9571 67.4082C16.9212 67.4035 16.8857 67.3969 16.8496 67.3927C16.7194 67.3775 16.5888 67.3658 16.4579 67.3579L16.4486 52.4576C16.4484 52.1553 16.3282 51.8654 16.1143 51.6516C15.9004 51.4379 15.6104 51.3179 15.3081 51.3179C15.0056 51.3182 14.7149 51.4385 14.5012 51.6526C14.2874 51.8666 14.1675 52.1567 14.1676 52.4592L14.1772 67.5979C11.4056 68.3655 9.32561 70.8099 9.10155 73.766H7.33015C5.61141 73.766 4.21313 75.1642 4.21313 76.883C4.21313 78.6019 5.61141 80 7.33015 80H73.6697C75.3886 80 76.7868 78.6017 76.7868 76.883C76.7868 75.1638 75.3885 73.7655 73.6696 73.7655ZM57.8837 73.6331L57.8895 73.6253C57.9373 73.5635 57.9881 73.5038 58.0399 73.4455C58.0531 73.4306 58.0665 73.4161 58.0799 73.4014C58.1306 73.3463 58.183 73.2929 58.2371 73.2413L58.2454 73.2332C58.3171 73.1663 58.3916 73.1026 58.4689 73.0424C58.5276 72.9961 58.5876 72.9513 58.6493 72.9091C58.6524 72.9069 58.6554 72.9046 58.6585 72.9025C58.7401 72.8477 58.8241 72.7965 58.9103 72.7491C58.9765 72.7122 59.0438 72.6769 59.1129 72.6447L59.1209 72.6407C59.211 72.5992 59.303 72.5618 59.3965 72.5286C59.4699 72.5024 59.544 72.4777 59.6196 72.4564L59.6245 72.455C59.7216 72.4283 59.8199 72.4062 59.919 72.3886C59.9993 72.3737 60.08 72.3617 60.1612 72.3528C60.3334 72.3347 60.4991 72.2776 60.646 72.186C60.7928 72.0943 60.9168 71.9704 61.0087 71.8236C61.8696 70.4474 63.3504 69.6258 64.9698 69.6258C65.0634 69.6258 65.1598 69.6293 65.2577 69.6357L65.2727 69.6368C65.3704 69.6435 65.4696 69.653 65.5702 69.666C65.5746 69.6666 65.579 69.6665 65.5832 69.6669C67.696 69.9455 69.3685 71.6414 69.6096 73.7658H57.7896C57.8206 73.721 57.8509 73.676 57.8837 73.6331ZM45.5722 55.7768V73.7655H35.4275V55.7768H45.5722ZM15.4515 69.6625L15.4565 69.6622C15.5505 69.6507 15.6448 69.6419 15.7393 69.6358L15.7559 69.6346C15.8472 69.6288 15.9386 69.6258 16.0301 69.6257C17.6493 69.6257 19.1303 70.4472 19.9914 71.8235C20.1123 72.016 20.2881 72.168 20.4962 72.2597C20.6051 72.3086 20.721 72.34 20.8396 72.3528C20.9409 72.3639 21.0417 72.3797 21.1415 72.4C21.2202 72.4154 21.2984 72.4337 21.3757 72.4549L21.3807 72.4564C21.4757 72.4832 21.5693 72.5144 21.6613 72.5499C21.7351 72.5778 21.8082 72.6075 21.8793 72.6407C21.8815 72.6416 21.8835 72.6428 21.8857 72.6439C21.9733 72.6851 22.059 72.7301 22.1426 72.7789C22.2102 72.8181 22.277 72.8588 22.3417 72.9025C22.3442 72.9041 22.3463 72.906 22.3488 72.9077C22.4277 72.9618 22.5042 73.0192 22.5782 73.0799C22.6387 73.1291 22.6979 73.1797 22.7546 73.2332L22.7618 73.2402C22.8165 73.2917 22.8688 73.3458 22.9198 73.4011C22.9863 73.4729 23.0498 73.5475 23.1101 73.6246L23.1174 73.6344C23.1499 73.6767 23.1798 73.7213 23.2102 73.7652H11.39C11.6323 71.6296 13.322 69.9269 15.4515 69.6625ZM73.6696 77.7189H7.33015C6.86906 77.7189 6.49391 77.3438 6.49391 76.8827C6.49391 76.4216 6.86906 76.0464 7.33015 76.0464H73.6696C74.1307 76.0464 74.5058 76.4216 74.5058 76.8827C74.5058 77.3438 74.1307 77.7189 73.6696 77.7189Z"/>
</mask>
<path d="M73.6696 73.7655H71.8982C71.6749 70.8211 69.6104 68.3846 66.8552 67.6068L66.8169 6.87544H68.2002C69.0176 6.87544 69.6824 6.2106 69.6824 5.39342V1.48203C69.6824 0.664841 69.0176 0 68.2002 0H60.2628C59.6329 0 59.1223 0.510467 59.1223 1.14046C59.1223 1.77046 59.6328 2.28093 60.2628 2.28093H67.4015V4.59467H13.5984V2.28093H63.1303C63.7601 2.28093 64.2707 1.77046 64.2707 1.14046C64.2707 0.510467 63.7601 0 63.1303 0H12.7995C11.9823 0 11.3175 0.664841 11.3175 1.48203V5.39357C11.3175 6.21076 11.9823 6.8756 12.7995 6.8756H14.1387L14.1629 55.2297C14.1631 55.532 14.2833 55.8219 14.4972 56.0356C14.7111 56.2494 15.0011 56.3694 15.3034 56.3694C15.6059 56.3691 15.8966 56.2487 16.1103 56.0347C16.3241 55.8207 16.444 55.5306 16.4439 55.2281L16.4196 6.87544H64.536L64.5741 67.3557C64.5704 67.3558 64.5668 67.3565 64.563 67.3566C64.5234 67.3588 64.484 67.3635 64.4445 67.3665C64.3505 67.3735 64.2566 67.3805 64.1637 67.3911C64.1129 67.3969 64.0629 67.4054 64.0124 67.4122C63.9313 67.4233 63.8501 67.4341 63.7698 67.4482C63.7152 67.4576 63.6613 67.4694 63.6071 67.48C63.532 67.4949 63.4566 67.5096 63.3823 67.5269C63.3262 67.5399 63.271 67.5549 63.2154 67.5693C63.1437 67.5879 63.0721 67.6063 63.0013 67.6271C62.9454 67.6435 62.8901 67.6616 62.8346 67.6794C62.7653 67.7013 62.6964 67.7244 62.6279 67.7485C62.5726 67.7682 62.5179 67.7893 62.4631 67.8104C62.396 67.8363 62.3292 67.8625 62.2631 67.8905C62.2085 67.9135 62.1546 67.9374 62.1009 67.9618C61.9168 68.0447 61.7365 68.136 61.5607 68.2354C61.5095 68.2643 61.4585 68.2935 61.4081 68.3236C61.3463 68.3605 61.2856 68.3986 61.2249 68.4375C61.1757 68.4691 61.1267 68.5007 61.0782 68.5333C61.0181 68.5741 60.959 68.6165 60.9001 68.6591C60.8534 68.693 60.8065 68.7266 60.7606 68.7616C60.7018 68.8064 60.6443 68.8532 60.587 68.9C60.5429 68.936 60.4985 68.9713 60.4554 69.0083C60.3976 69.0579 60.3415 69.1094 60.2853 69.161C60.2446 69.1982 60.2035 69.2344 60.1638 69.2727C60.1059 69.3283 60.0501 69.3864 59.994 69.4443C59.9582 69.4811 59.9215 69.5169 59.8865 69.5547C59.8257 69.6202 59.7674 69.6882 59.709 69.7563C59.6809 69.7891 59.6515 69.8205 59.6239 69.8539C59.5386 69.9568 59.4563 70.0621 59.377 70.1696C59.2467 70.1966 59.1182 70.2291 58.9912 70.265C58.9493 70.2769 58.9085 70.291 58.867 70.3038C58.7823 70.33 58.6981 70.3569 58.6151 70.3871C58.5674 70.4043 58.5207 70.423 58.4737 70.4416C58.3497 70.4901 58.2275 70.5431 58.1074 70.6005C58.0347 70.6354 57.9628 70.6719 57.8917 70.71C57.8473 70.7336 57.8029 70.7569 57.7592 70.7818C57.6835 70.8247 57.6096 70.8704 57.5364 70.9166C57.5001 70.9396 57.4629 70.9613 57.4271 70.985C57.3198 71.0558 57.215 71.1304 57.1129 71.2085C57.1064 71.2135 57.1003 71.2191 57.0939 71.2241C56.9982 71.2982 56.9053 71.3754 56.8148 71.4552C56.7821 71.4841 56.751 71.5147 56.719 71.5443C56.6558 71.6022 56.594 71.6616 56.5336 71.7224C56.4984 71.758 56.4645 71.7947 56.4303 71.8313C56.3404 71.9272 56.2539 72.0262 56.1709 72.1282C56.1198 72.191 56.0706 72.2552 56.0223 72.3202C55.9928 72.3599 55.9631 72.3992 55.9346 72.4397C55.8839 72.5121 55.8357 72.5861 55.7882 72.661C55.7661 72.6961 55.7426 72.7303 55.7211 72.7658C55.6536 72.877 55.5901 72.9906 55.5306 73.1063C55.5264 73.1146 55.5228 73.1233 55.5186 73.1316C55.4639 73.2397 55.4128 73.35 55.365 73.4621C55.3478 73.5025 55.3328 73.5439 55.3165 73.5847C55.2925 73.6449 55.267 73.7042 55.2451 73.7655H47.853V55.4351C47.853 54.3659 46.9831 53.496 45.9139 53.496H35.0858C34.0166 53.496 33.1468 54.3659 33.1468 55.4351V73.7656H25.7549C25.7329 73.7044 25.7074 73.6449 25.6834 73.5846C25.6671 73.5438 25.6521 73.5024 25.6349 73.4622C25.5879 73.3516 25.5372 73.2426 25.483 73.1353C25.4782 73.1258 25.4741 73.1158 25.4693 73.1061C25.41 72.9908 25.3466 72.8775 25.2793 72.7666C25.2574 72.7302 25.2335 72.6953 25.2107 72.6594C25.1641 72.5853 25.1158 72.5124 25.0659 72.4405C25.0371 72.3994 25.007 72.3597 24.9771 72.3194C24.9293 72.255 24.8802 72.1915 24.8298 72.1291C24.7468 72.027 24.6602 71.928 24.5702 71.8321C24.5359 71.7952 24.5016 71.7583 24.4662 71.7224C24.4062 71.6616 24.3443 71.6032 24.2816 71.5452C24.2493 71.5153 24.2179 71.4844 24.1849 71.4553C24.0944 71.3753 24.0013 71.2982 23.9057 71.2243C23.8993 71.2193 23.8934 71.2138 23.8868 71.2088C23.7845 71.1307 23.6796 71.0561 23.5723 70.9852C23.5368 70.9616 23.5001 70.9402 23.4641 70.9174C23.3906 70.8705 23.3159 70.8253 23.2402 70.7819C23.1968 70.7572 23.1527 70.7341 23.1087 70.7107C23.0371 70.6725 22.9651 70.6357 22.8918 70.6005C22.8453 70.5783 22.7984 70.5567 22.7513 70.5357C22.6768 70.5025 22.6013 70.4714 22.5252 70.4414C22.4787 70.4232 22.4323 70.4046 22.3851 70.3875C22.3013 70.3577 22.2169 70.3298 22.1318 70.3038C22.0907 70.2911 22.0503 70.2771 22.0087 70.2654C21.8812 70.2289 21.7525 70.197 21.6228 70.1697C21.5437 70.0625 21.4615 69.9575 21.3765 69.8549C21.3487 69.8213 21.3193 69.7897 21.291 69.7568C21.2336 69.689 21.1748 69.6223 21.1148 69.5568C21.0793 69.5185 21.0421 69.4821 21.0059 69.4447C20.9504 69.3877 20.8953 69.3304 20.8381 69.2754C20.7981 69.2369 20.7568 69.2004 20.716 69.1629C20.6606 69.1113 20.6043 69.0608 20.5471 69.0111C20.5039 68.974 20.4595 68.9383 20.4153 68.9024C20.3582 68.8558 20.3012 68.8096 20.2429 68.7649C20.1968 68.7297 20.1499 68.6958 20.1032 68.6618C20.0448 68.6191 19.9856 68.5774 19.9259 68.5366C19.8776 68.5038 19.8287 68.4722 19.7796 68.4407C19.7193 68.4018 19.6583 68.3639 19.5968 68.3269C19.3732 68.1934 19.1423 68.0726 18.9051 67.9649C18.852 67.9408 18.7987 67.9168 18.745 67.894C18.6782 67.8657 18.6109 67.8393 18.5432 67.8132C18.4893 67.7924 18.4356 67.7713 18.3812 67.7519C18.3118 67.7271 18.2415 67.7044 18.1712 67.6818C18.1171 67.6644 18.0634 67.6463 18.0089 67.6302C17.936 67.6086 17.8623 67.5899 17.7885 67.5707C17.7353 67.5569 17.6825 67.5421 17.6289 67.5296C17.5501 67.5111 17.4703 67.4957 17.3907 67.48C17.3412 67.4702 17.2921 67.4591 17.2425 67.4504C17.1477 67.4343 17.0525 67.4202 16.9571 67.4082C16.9212 67.4035 16.8857 67.3969 16.8496 67.3927C16.7194 67.3775 16.5888 67.3658 16.4579 67.3579L16.4486 52.4576C16.4484 52.1553 16.3282 51.8654 16.1143 51.6516C15.9004 51.4379 15.6104 51.3179 15.3081 51.3179C15.0056 51.3182 14.7149 51.4385 14.5012 51.6526C14.2874 51.8666 14.1675 52.1567 14.1676 52.4592L14.1772 67.5979C11.4056 68.3655 9.32561 70.8099 9.10155 73.766H7.33015C5.61141 73.766 4.21313 75.1642 4.21313 76.883C4.21313 78.6019 5.61141 80 7.33015 80H73.6697C75.3886 80 76.7868 78.6017 76.7868 76.883C76.7868 75.1638 75.3885 73.7655 73.6696 73.7655ZM57.8837 73.6331L57.8895 73.6253C57.9373 73.5635 57.9881 73.5038 58.0399 73.4455C58.0531 73.4306 58.0665 73.4161 58.0799 73.4014C58.1306 73.3463 58.183 73.2929 58.2371 73.2413L58.2454 73.2332C58.3171 73.1663 58.3916 73.1026 58.4689 73.0424C58.5276 72.9961 58.5876 72.9513 58.6493 72.9091C58.6524 72.9069 58.6554 72.9046 58.6585 72.9025C58.7401 72.8477 58.8241 72.7965 58.9103 72.7491C58.9765 72.7122 59.0438 72.6769 59.1129 72.6447L59.1209 72.6407C59.211 72.5992 59.303 72.5618 59.3965 72.5286C59.4699 72.5024 59.544 72.4777 59.6196 72.4564L59.6245 72.455C59.7216 72.4283 59.8199 72.4062 59.919 72.3886C59.9993 72.3737 60.08 72.3617 60.1612 72.3528C60.3334 72.3347 60.4991 72.2776 60.646 72.186C60.7928 72.0943 60.9168 71.9704 61.0087 71.8236C61.8696 70.4474 63.3504 69.6258 64.9698 69.6258C65.0634 69.6258 65.1598 69.6293 65.2577 69.6357L65.2727 69.6368C65.3704 69.6435 65.4696 69.653 65.5702 69.666C65.5746 69.6666 65.579 69.6665 65.5832 69.6669C67.696 69.9455 69.3685 71.6414 69.6096 73.7658H57.7896C57.8206 73.721 57.8509 73.676 57.8837 73.6331ZM45.5722 55.7768V73.7655H35.4275V55.7768H45.5722ZM15.4515 69.6625L15.4565 69.6622C15.5505 69.6507 15.6448 69.6419 15.7393 69.6358L15.7559 69.6346C15.8472 69.6288 15.9386 69.6258 16.0301 69.6257C17.6493 69.6257 19.1303 70.4472 19.9914 71.8235C20.1123 72.016 20.2881 72.168 20.4962 72.2597C20.6051 72.3086 20.721 72.34 20.8396 72.3528C20.9409 72.3639 21.0417 72.3797 21.1415 72.4C21.2202 72.4154 21.2984 72.4337 21.3757 72.4549L21.3807 72.4564C21.4757 72.4832 21.5693 72.5144 21.6613 72.5499C21.7351 72.5778 21.8082 72.6075 21.8793 72.6407C21.8815 72.6416 21.8835 72.6428 21.8857 72.6439C21.9733 72.6851 22.059 72.7301 22.1426 72.7789C22.2102 72.8181 22.277 72.8588 22.3417 72.9025C22.3442 72.9041 22.3463 72.906 22.3488 72.9077C22.4277 72.9618 22.5042 73.0192 22.5782 73.0799C22.6387 73.1291 22.6979 73.1797 22.7546 73.2332L22.7618 73.2402C22.8165 73.2917 22.8688 73.3458 22.9198 73.4011C22.9863 73.4729 23.0498 73.5475 23.1101 73.6246L23.1174 73.6344C23.1499 73.6767 23.1798 73.7213 23.2102 73.7652H11.39C11.6323 71.6296 13.322 69.9269 15.4515 69.6625ZM73.6696 77.7189H7.33015C6.86906 77.7189 6.49391 77.3438 6.49391 76.8827C6.49391 76.4216 6.86906 76.0464 7.33015 76.0464H73.6696C74.1307 76.0464 74.5058 76.4216 74.5058 76.8827C74.5058 77.3438 74.1307 77.7189 73.6696 77.7189Z" fill="#1563DF" stroke="white" mask="url(#path-2-inside-2_1476_21037)"/>
</svg>
