<svg width="81" height="80" viewBox="0 0 81 80" fill="none" xmlns="http://www.w3.org/2000/svg">
<mask id="path-1-inside-1_1476_20999" fill="white">
<path d="M34.25 18.75H39.25C39.5815 18.75 39.8995 18.6183 40.1339 18.3839C40.3683 18.1495 40.5 17.8315 40.5 17.5V10C40.5 9.66848 40.3683 9.35054 40.1339 9.11612C39.8995 8.8817 39.5815 8.75 39.25 8.75H34.25C33.9185 8.75 33.6005 8.8817 33.3661 9.11612C33.1317 9.35054 33 9.66848 33 10V17.5C33 17.8315 33.1317 18.1495 33.3661 18.3839C33.6005 18.6183 33.9185 18.75 34.25 18.75ZM35.5 11.25H38V16.25H35.5V11.25ZM44.25 18.75H49.25C49.5815 18.75 49.8995 18.6183 50.1339 18.3839C50.3683 18.1495 50.5 17.8315 50.5 17.5V10C50.5 9.66848 50.3683 9.35054 50.1339 9.11612C49.8995 8.8817 49.5815 8.75 49.25 8.75H44.25C43.9185 8.75 43.6005 8.8817 43.3661 9.11612C43.1317 9.35054 43 9.66848 43 10V17.5C43 17.8315 43.1317 18.1495 43.3661 18.3839C43.6005 18.6183 43.9185 18.75 44.25 18.75ZM45.5 11.25H48V16.25H45.5V11.25ZM54.25 18.75H59.25C59.5815 18.75 59.8995 18.6183 60.1339 18.3839C60.3683 18.1495 60.5 17.8315 60.5 17.5V10C60.5 9.66848 60.3683 9.35054 60.1339 9.11612C59.8995 8.8817 59.5815 8.75 59.25 8.75H54.25C53.9185 8.75 53.6005 8.8817 53.3661 9.11612C53.1317 9.35054 53 9.66848 53 10V17.5C53 17.8315 53.1317 18.1495 53.3661 18.3839C53.6005 18.6183 53.9185 18.75 54.25 18.75ZM55.5 11.25H58V16.25H55.5V11.25ZM34.25 31.25H39.25C39.5815 31.25 39.8995 31.1183 40.1339 30.8839C40.3683 30.6495 40.5 30.3315 40.5 30V22.5C40.5 22.1685 40.3683 21.8505 40.1339 21.6161C39.8995 21.3817 39.5815 21.25 39.25 21.25H34.25C33.9185 21.25 33.6005 21.3817 33.3661 21.6161C33.1317 21.8505 33 22.1685 33 22.5V30C33 30.3315 33.1317 30.6495 33.3661 30.8839C33.6005 31.1183 33.9185 31.25 34.25 31.25ZM35.5 23.75H38V28.75H35.5V23.75ZM44.25 31.25H49.25C49.5815 31.25 49.8995 31.1183 50.1339 30.8839C50.3683 30.6495 50.5 30.3315 50.5 30V22.5C50.5 22.1685 50.3683 21.8505 50.1339 21.6161C49.8995 21.3817 49.5815 21.25 49.25 21.25H44.25C43.9185 21.25 43.6005 21.3817 43.3661 21.6161C43.1317 21.8505 43 22.1685 43 22.5V30C43 30.3315 43.1317 30.6495 43.3661 30.8839C43.6005 31.1183 43.9185 31.25 44.25 31.25ZM45.5 23.75H48V28.75H45.5V23.75ZM54.25 31.25H59.25C59.5815 31.25 59.8995 31.1183 60.1339 30.8839C60.3683 30.6495 60.5 30.3315 60.5 30V22.5C60.5 22.1685 60.3683 21.8505 60.1339 21.6161C59.8995 21.3817 59.5815 21.25 59.25 21.25H54.25C53.9185 21.25 53.6005 21.3817 53.3661 21.6161C53.1317 21.8505 53 22.1685 53 22.5V30C53 30.3315 53.1317 30.6495 53.3661 30.8839C53.6005 31.1183 53.9185 31.25 54.25 31.25ZM55.5 23.75H58V28.75H55.5V23.75ZM24.25 18.75H29.25C29.5815 18.75 29.8995 18.6183 30.1339 18.3839C30.3683 18.1495 30.5 17.8315 30.5 17.5V10C30.5 9.66848 30.3683 9.35054 30.1339 9.11612C29.8995 8.8817 29.5815 8.75 29.25 8.75H24.25C23.9185 8.75 23.6005 8.8817 23.3661 9.11612C23.1317 9.35054 23 9.66848 23 10V17.5C23 17.8315 23.1317 18.1495 23.3661 18.3839C23.6005 18.6183 23.9185 18.75 24.25 18.75ZM25.5 11.25H28V16.25H25.5V11.25ZM24.25 31.25H29.25C29.5815 31.25 29.8995 31.1183 30.1339 30.8839C30.3683 30.6495 30.5 30.3315 30.5 30V22.5C30.5 22.1685 30.3683 21.8505 30.1339 21.6161C29.8995 21.3817 29.5815 21.25 29.25 21.25H24.25C23.9185 21.25 23.6005 21.3817 23.3661 21.6161C23.1317 21.8505 23 22.1685 23 22.5V30C23 30.3315 23.1317 30.6495 23.3661 30.8839C23.6005 31.1183 23.9185 31.25 24.25 31.25ZM25.5 23.75H28V28.75H25.5V23.75ZM34.25 43.75H39.25C39.5815 43.75 39.8995 43.6183 40.1339 43.3839C40.3683 43.1495 40.5 42.8315 40.5 42.5V35C40.5 34.6685 40.3683 34.3505 40.1339 34.1161C39.8995 33.8817 39.5815 33.75 39.25 33.75H34.25C33.9185 33.75 33.6005 33.8817 33.3661 34.1161C33.1317 34.3505 33 34.6685 33 35V42.5C33 42.8315 33.1317 43.1495 33.3661 43.3839C33.6005 43.6183 33.9185 43.75 34.25 43.75ZM35.5 36.25H38V41.25H35.5V36.25ZM24.25 43.75H29.25C29.5815 43.75 29.8995 43.6183 30.1339 43.3839C30.3683 43.1495 30.5 42.8315 30.5 42.5V35C30.5 34.6685 30.3683 34.3505 30.1339 34.1161C29.8995 33.8817 29.5815 33.75 29.25 33.75H24.25C23.9185 33.75 23.6005 33.8817 23.3661 34.1161C23.1317 34.3505 23 34.6685 23 35V42.5C23 42.8315 23.1317 43.1495 23.3661 43.3839C23.6005 43.6183 23.9185 43.75 24.25 43.75ZM25.5 36.25H28V41.25H25.5V36.25ZM44.25 43.75H49.25C49.5815 43.75 49.8995 43.6183 50.1339 43.3839C50.3683 43.1495 50.5 42.8315 50.5 42.5V35C50.5 34.6685 50.3683 34.3505 50.1339 34.1161C49.8995 33.8817 49.5815 33.75 49.25 33.75H44.25C43.9185 33.75 43.6005 33.8817 43.3661 34.1161C43.1317 34.3505 43 34.6685 43 35V42.5C43 42.8315 43.1317 43.1495 43.3661 43.3839C43.6005 43.6183 43.9185 43.75 44.25 43.75ZM45.5 36.25H48V41.25H45.5V36.25ZM54.25 43.75H59.25C59.5815 43.75 59.8995 43.6183 60.1339 43.3839C60.3683 43.1495 60.5 42.8315 60.5 42.5V35C60.5 34.6685 60.3683 34.3505 60.1339 34.1161C59.8995 33.8817 59.5815 33.75 59.25 33.75H54.25C53.9185 33.75 53.6005 33.8817 53.3661 34.1161C53.1317 34.3505 53 34.6685 53 35V42.5C53 42.8315 53.1317 43.1495 53.3661 43.3839C53.6005 43.6183 53.9185 43.75 54.25 43.75ZM55.5 36.25H58V41.25H55.5V36.25ZM34.25 56.25H39.25C39.5815 56.25 39.8995 56.1183 40.1339 55.8839C40.3683 55.6495 40.5 55.3315 40.5 55V47.5C40.5 47.1685 40.3683 46.8505 40.1339 46.6161C39.8995 46.3817 39.5815 46.25 39.25 46.25H34.25C33.9185 46.25 33.6005 46.3817 33.3661 46.6161C33.1317 46.8505 33 47.1685 33 47.5V55C33 55.3315 33.1317 55.6495 33.3661 55.8839C33.6005 56.1183 33.9185 56.25 34.25 56.25ZM35.5 48.75H38V53.75H35.5V48.75ZM24.25 56.25H29.25C29.5815 56.25 29.8995 56.1183 30.1339 55.8839C30.3683 55.6495 30.5 55.3315 30.5 55V47.5C30.5 47.1685 30.3683 46.8505 30.1339 46.6161C29.8995 46.3817 29.5815 46.25 29.25 46.25H24.25C23.9185 46.25 23.6005 46.3817 23.3661 46.6161C23.1317 46.8505 23 47.1685 23 47.5V55C23 55.3315 23.1317 55.6495 23.3661 55.8839C23.6005 56.1183 23.9185 56.25 24.25 56.25ZM25.5 48.75H28V53.75H25.5V48.75ZM44.25 56.25H49.25C49.5815 56.25 49.8995 56.1183 50.1339 55.8839C50.3683 55.6495 50.5 55.3315 50.5 55V47.5C50.5 47.1685 50.3683 46.8505 50.1339 46.6161C49.8995 46.3817 49.5815 46.25 49.25 46.25H44.25C43.9185 46.25 43.6005 46.3817 43.3661 46.6161C43.1317 46.8505 43 47.1685 43 47.5V55C43 55.3315 43.1317 55.6495 43.3661 55.8839C43.6005 56.1183 43.9185 56.25 44.25 56.25ZM45.5 48.75H48V53.75H45.5V48.75ZM54.25 56.25H59.25C59.5815 56.25 59.8995 56.1183 60.1339 55.8839C60.3683 55.6495 60.5 55.3315 60.5 55V47.5C60.5 47.1685 60.3683 46.8505 60.1339 46.6161C59.8995 46.3817 59.5815 46.25 59.25 46.25H54.25C53.9185 46.25 53.6005 46.3817 53.3661 46.6161C53.1317 46.8505 53 47.1685 53 47.5V55C53 55.3315 53.1317 55.6495 53.3661 55.8839C53.6005 56.1183 53.9185 56.25 54.25 56.25ZM55.5 48.75H58V53.75H55.5V48.75Z"/>
</mask>
<path d="M34.25 18.75H39.25C39.5815 18.75 39.8995 18.6183 40.1339 18.3839C40.3683 18.1495 40.5 17.8315 40.5 17.5V10C40.5 9.66848 40.3683 9.35054 40.1339 9.11612C39.8995 8.8817 39.5815 8.75 39.25 8.75H34.25C33.9185 8.75 33.6005 8.8817 33.3661 9.11612C33.1317 9.35054 33 9.66848 33 10V17.5C33 17.8315 33.1317 18.1495 33.3661 18.3839C33.6005 18.6183 33.9185 18.75 34.25 18.75ZM35.5 11.25H38V16.25H35.5V11.25ZM44.25 18.75H49.25C49.5815 18.75 49.8995 18.6183 50.1339 18.3839C50.3683 18.1495 50.5 17.8315 50.5 17.5V10C50.5 9.66848 50.3683 9.35054 50.1339 9.11612C49.8995 8.8817 49.5815 8.75 49.25 8.75H44.25C43.9185 8.75 43.6005 8.8817 43.3661 9.11612C43.1317 9.35054 43 9.66848 43 10V17.5C43 17.8315 43.1317 18.1495 43.3661 18.3839C43.6005 18.6183 43.9185 18.75 44.25 18.75ZM45.5 11.25H48V16.25H45.5V11.25ZM54.25 18.75H59.25C59.5815 18.75 59.8995 18.6183 60.1339 18.3839C60.3683 18.1495 60.5 17.8315 60.5 17.5V10C60.5 9.66848 60.3683 9.35054 60.1339 9.11612C59.8995 8.8817 59.5815 8.75 59.25 8.75H54.25C53.9185 8.75 53.6005 8.8817 53.3661 9.11612C53.1317 9.35054 53 9.66848 53 10V17.5C53 17.8315 53.1317 18.1495 53.3661 18.3839C53.6005 18.6183 53.9185 18.75 54.25 18.75ZM55.5 11.25H58V16.25H55.5V11.25ZM34.25 31.25H39.25C39.5815 31.25 39.8995 31.1183 40.1339 30.8839C40.3683 30.6495 40.5 30.3315 40.5 30V22.5C40.5 22.1685 40.3683 21.8505 40.1339 21.6161C39.8995 21.3817 39.5815 21.25 39.25 21.25H34.25C33.9185 21.25 33.6005 21.3817 33.3661 21.6161C33.1317 21.8505 33 22.1685 33 22.5V30C33 30.3315 33.1317 30.6495 33.3661 30.8839C33.6005 31.1183 33.9185 31.25 34.25 31.25ZM35.5 23.75H38V28.75H35.5V23.75ZM44.25 31.25H49.25C49.5815 31.25 49.8995 31.1183 50.1339 30.8839C50.3683 30.6495 50.5 30.3315 50.5 30V22.5C50.5 22.1685 50.3683 21.8505 50.1339 21.6161C49.8995 21.3817 49.5815 21.25 49.25 21.25H44.25C43.9185 21.25 43.6005 21.3817 43.3661 21.6161C43.1317 21.8505 43 22.1685 43 22.5V30C43 30.3315 43.1317 30.6495 43.3661 30.8839C43.6005 31.1183 43.9185 31.25 44.25 31.25ZM45.5 23.75H48V28.75H45.5V23.75ZM54.25 31.25H59.25C59.5815 31.25 59.8995 31.1183 60.1339 30.8839C60.3683 30.6495 60.5 30.3315 60.5 30V22.5C60.5 22.1685 60.3683 21.8505 60.1339 21.6161C59.8995 21.3817 59.5815 21.25 59.25 21.25H54.25C53.9185 21.25 53.6005 21.3817 53.3661 21.6161C53.1317 21.8505 53 22.1685 53 22.5V30C53 30.3315 53.1317 30.6495 53.3661 30.8839C53.6005 31.1183 53.9185 31.25 54.25 31.25ZM55.5 23.75H58V28.75H55.5V23.75ZM24.25 18.75H29.25C29.5815 18.75 29.8995 18.6183 30.1339 18.3839C30.3683 18.1495 30.5 17.8315 30.5 17.5V10C30.5 9.66848 30.3683 9.35054 30.1339 9.11612C29.8995 8.8817 29.5815 8.75 29.25 8.75H24.25C23.9185 8.75 23.6005 8.8817 23.3661 9.11612C23.1317 9.35054 23 9.66848 23 10V17.5C23 17.8315 23.1317 18.1495 23.3661 18.3839C23.6005 18.6183 23.9185 18.75 24.25 18.75ZM25.5 11.25H28V16.25H25.5V11.25ZM24.25 31.25H29.25C29.5815 31.25 29.8995 31.1183 30.1339 30.8839C30.3683 30.6495 30.5 30.3315 30.5 30V22.5C30.5 22.1685 30.3683 21.8505 30.1339 21.6161C29.8995 21.3817 29.5815 21.25 29.25 21.25H24.25C23.9185 21.25 23.6005 21.3817 23.3661 21.6161C23.1317 21.8505 23 22.1685 23 22.5V30C23 30.3315 23.1317 30.6495 23.3661 30.8839C23.6005 31.1183 23.9185 31.25 24.25 31.25ZM25.5 23.75H28V28.75H25.5V23.75ZM34.25 43.75H39.25C39.5815 43.75 39.8995 43.6183 40.1339 43.3839C40.3683 43.1495 40.5 42.8315 40.5 42.5V35C40.5 34.6685 40.3683 34.3505 40.1339 34.1161C39.8995 33.8817 39.5815 33.75 39.25 33.75H34.25C33.9185 33.75 33.6005 33.8817 33.3661 34.1161C33.1317 34.3505 33 34.6685 33 35V42.5C33 42.8315 33.1317 43.1495 33.3661 43.3839C33.6005 43.6183 33.9185 43.75 34.25 43.75ZM35.5 36.25H38V41.25H35.5V36.25ZM24.25 43.75H29.25C29.5815 43.75 29.8995 43.6183 30.1339 43.3839C30.3683 43.1495 30.5 42.8315 30.5 42.5V35C30.5 34.6685 30.3683 34.3505 30.1339 34.1161C29.8995 33.8817 29.5815 33.75 29.25 33.75H24.25C23.9185 33.75 23.6005 33.8817 23.3661 34.1161C23.1317 34.3505 23 34.6685 23 35V42.5C23 42.8315 23.1317 43.1495 23.3661 43.3839C23.6005 43.6183 23.9185 43.75 24.25 43.75ZM25.5 36.25H28V41.25H25.5V36.25ZM44.25 43.75H49.25C49.5815 43.75 49.8995 43.6183 50.1339 43.3839C50.3683 43.1495 50.5 42.8315 50.5 42.5V35C50.5 34.6685 50.3683 34.3505 50.1339 34.1161C49.8995 33.8817 49.5815 33.75 49.25 33.75H44.25C43.9185 33.75 43.6005 33.8817 43.3661 34.1161C43.1317 34.3505 43 34.6685 43 35V42.5C43 42.8315 43.1317 43.1495 43.3661 43.3839C43.6005 43.6183 43.9185 43.75 44.25 43.75ZM45.5 36.25H48V41.25H45.5V36.25ZM54.25 43.75H59.25C59.5815 43.75 59.8995 43.6183 60.1339 43.3839C60.3683 43.1495 60.5 42.8315 60.5 42.5V35C60.5 34.6685 60.3683 34.3505 60.1339 34.1161C59.8995 33.8817 59.5815 33.75 59.25 33.75H54.25C53.9185 33.75 53.6005 33.8817 53.3661 34.1161C53.1317 34.3505 53 34.6685 53 35V42.5C53 42.8315 53.1317 43.1495 53.3661 43.3839C53.6005 43.6183 53.9185 43.75 54.25 43.75ZM55.5 36.25H58V41.25H55.5V36.25ZM34.25 56.25H39.25C39.5815 56.25 39.8995 56.1183 40.1339 55.8839C40.3683 55.6495 40.5 55.3315 40.5 55V47.5C40.5 47.1685 40.3683 46.8505 40.1339 46.6161C39.8995 46.3817 39.5815 46.25 39.25 46.25H34.25C33.9185 46.25 33.6005 46.3817 33.3661 46.6161C33.1317 46.8505 33 47.1685 33 47.5V55C33 55.3315 33.1317 55.6495 33.3661 55.8839C33.6005 56.1183 33.9185 56.25 34.25 56.25ZM35.5 48.75H38V53.75H35.5V48.75ZM24.25 56.25H29.25C29.5815 56.25 29.8995 56.1183 30.1339 55.8839C30.3683 55.6495 30.5 55.3315 30.5 55V47.5C30.5 47.1685 30.3683 46.8505 30.1339 46.6161C29.8995 46.3817 29.5815 46.25 29.25 46.25H24.25C23.9185 46.25 23.6005 46.3817 23.3661 46.6161C23.1317 46.8505 23 47.1685 23 47.5V55C23 55.3315 23.1317 55.6495 23.3661 55.8839C23.6005 56.1183 23.9185 56.25 24.25 56.25ZM25.5 48.75H28V53.75H25.5V48.75ZM44.25 56.25H49.25C49.5815 56.25 49.8995 56.1183 50.1339 55.8839C50.3683 55.6495 50.5 55.3315 50.5 55V47.5C50.5 47.1685 50.3683 46.8505 50.1339 46.6161C49.8995 46.3817 49.5815 46.25 49.25 46.25H44.25C43.9185 46.25 43.6005 46.3817 43.3661 46.6161C43.1317 46.8505 43 47.1685 43 47.5V55C43 55.3315 43.1317 55.6495 43.3661 55.8839C43.6005 56.1183 43.9185 56.25 44.25 56.25ZM45.5 48.75H48V53.75H45.5V48.75ZM54.25 56.25H59.25C59.5815 56.25 59.8995 56.1183 60.1339 55.8839C60.3683 55.6495 60.5 55.3315 60.5 55V47.5C60.5 47.1685 60.3683 46.8505 60.1339 46.6161C59.8995 46.3817 59.5815 46.25 59.25 46.25H54.25C53.9185 46.25 53.6005 46.3817 53.3661 46.6161C53.1317 46.8505 53 47.1685 53 47.5V55C53 55.3315 53.1317 55.6495 53.3661 55.8839C53.6005 56.1183 53.9185 56.25 54.25 56.25ZM55.5 48.75H58V53.75H55.5V48.75Z" fill="#1550DF" stroke="white" mask="url(#path-1-inside-1_1476_20999)"/>
<path d="M13.25 67.6048L13.1752 67.6783C12.3183 68.5205 11.1663 68.9948 9.96483 69H9.96471C8.75784 69.0047 7.59544 68.5448 6.71846 67.7156C5.84148 66.8865 5.31716 65.7517 5.25418 64.5465C5.1912 63.3412 5.59439 62.158 6.38019 61.242C7.16578 60.3262 8.27355 59.7477 9.47398 59.6264M13.25 67.6048L9.49999 59.875M13.25 67.6048V67.5V65C13.25 64.7348 13.3553 64.4804 13.5429 64.2929C13.7304 64.1054 13.9848 64 14.25 64C14.5152 64 14.7696 64.1054 14.9571 64.2929C15.1446 64.4804 15.25 64.7348 15.25 65V67.5V67.6048L15.3248 67.6783C16.1832 68.522 17.3376 68.9963 18.5412 69C19.7486 69.0064 20.9123 68.5478 21.7906 67.7192C22.669 66.8906 23.1946 65.7556 23.2584 64.5498C23.3223 63.344 22.9195 62.1599 22.1336 61.2431C21.3478 60.3266 20.2395 59.7476 19.0384 59.6263C18.8719 59.6084 18.7125 59.5489 18.575 59.4533C18.4373 59.3575 18.3258 59.2287 18.2509 59.0786C18.176 58.9285 18.1401 58.762 18.1464 58.5944C18.1527 58.4272 18.2009 58.2643 18.2864 58.1206C18.7303 57.3963 18.9667 56.5641 18.97 55.7147V55.7137C18.97 54.4636 18.4734 53.2646 17.5894 52.3806C16.7054 51.4966 15.5064 51 14.2562 51C13.0061 51 11.8071 51.4966 10.9231 52.3806C10.0391 53.2646 9.54249 54.4636 9.54249 55.7137L9.54249 55.7147C9.54577 56.5641 9.78223 57.3964 10.2261 58.1206M13.25 67.6048L10.44 57.9913M9.47398 59.6264C9.47429 59.6263 9.47459 59.6263 9.4749 59.6263L9.49999 59.875M9.47398 59.6264C9.47377 59.6264 9.47356 59.6264 9.47335 59.6264L9.49999 59.875M9.47398 59.6264C9.64053 59.6084 9.79991 59.5489 9.93748 59.4533C10.0752 59.3575 10.1867 59.2287 10.2616 59.0786C10.3365 58.9285 10.3724 58.762 10.3661 58.5944C10.3598 58.4272 10.3116 58.2643 10.2261 58.1206M9.49999 59.875C9.70847 59.8527 9.90798 59.7782 10.0802 59.6586C10.2523 59.5389 10.3916 59.3779 10.4853 59.1902C10.5789 59.0026 10.6238 58.7945 10.6159 58.585C10.608 58.3754 10.5475 58.1713 10.44 57.9913M10.2261 58.1206C10.2263 58.1211 10.2266 58.1215 10.2269 58.122L10.44 57.9913M10.2261 58.1206C10.2258 58.1202 10.2256 58.1198 10.2253 58.1194L10.44 57.9913M65.25 48.75V49H65.5H76.75C77.0152 49 77.2696 49.1054 77.4571 49.2929C77.6446 49.4804 77.75 49.7348 77.75 50V55C77.75 55.2652 77.6446 55.5196 77.4571 55.7071C77.2696 55.8946 77.0152 56 76.75 56H75.5H75.25V56.25V75C75.25 75.2652 75.1446 75.5196 74.9571 75.7071C74.7696 75.8946 74.5152 76 74.25 76H19.25C18.9848 76 18.7304 75.8946 18.5429 75.7071L18.3661 75.8839L18.5429 75.7071C18.3554 75.5196 18.25 75.2652 18.25 75V71.2038V70.9723L18.0193 70.9545C17.1816 70.8897 16.364 70.6653 15.6107 70.2933L15.25 70.1152V70.5175V75C15.25 75.2652 15.1446 75.5196 14.9571 75.7071L15.1339 75.8839L14.9571 75.7071C14.7696 75.8946 14.5152 76 14.25 76C13.9848 76 13.7304 75.8946 13.5429 75.7071L13.3661 75.8839L13.5429 75.7071C13.3554 75.5196 13.25 75.2652 13.25 75V70.5175V70.1113L12.8874 70.2943C11.9802 70.7521 10.9793 70.9936 9.96323 71C8.38434 71.0032 6.85506 70.4486 5.64525 69.4341C4.43544 68.4196 3.62286 67.0103 3.35092 65.455C3.07897 63.8998 3.36513 62.2984 4.15891 60.9335C4.95268 59.5687 6.20304 58.5281 7.68934 57.9953L7.91614 57.9141L7.84329 57.6844C7.64105 57.0469 7.5375 56.3821 7.53624 55.7133C7.53425 54.5086 7.85702 53.3255 8.4706 52.2887C9.08418 51.2519 9.96588 50.3996 11.0229 49.8216C12.08 49.2435 13.2733 48.9611 14.4773 49.004C15.6813 49.0469 16.8515 49.4135 17.8647 50.0653L18.25 50.3131V49.855V5C18.25 4.73478 18.3553 4.48043 18.5429 4.29289C18.7304 4.10536 18.9848 4 19.25 4H64.25C64.5152 4 64.7696 4.10536 64.9571 4.29289C65.1446 4.48043 65.25 4.73478 65.25 5V48.75ZM48 74H48.25V73.75V61.25V61H48H35.5H35.25V61.25V73.75V74H35.5H48ZM63 74H63.25V73.75V6.25V6H63H20.5H20.25V6.25V52.6625V52.7208L20.2758 52.7732C20.7273 53.6877 20.9626 54.6937 20.9637 55.7135C20.9625 56.3823 20.8589 57.0469 20.6567 57.6844L20.5838 57.9142L20.8108 57.9954C22.1422 58.4718 23.2885 59.3576 24.0853 60.5258C24.8822 61.694 25.2886 63.0845 25.2463 64.498C25.2041 65.9114 24.7152 67.2751 23.85 68.3936C22.9847 69.5121 21.7875 70.3278 20.43 70.7238L20.25 70.7763V70.9638V73.75V74H20.5H33H33.25V73.75V60C33.25 59.7348 33.3553 59.4804 33.5429 59.2929C33.7304 59.1054 33.9848 59 34.25 59H49.25C49.5152 59 49.7696 59.1054 49.9571 59.2929C50.1446 59.4804 50.25 59.7348 50.25 60V73.75V74H50.5H63ZM73 74H73.25V73.75V56.25V56H73H65.5H65.25V56.25V73.75V74H65.5H73ZM75.5 54H75.75V53.75V51.25V51H75.5H65.5H65.25V51.25V53.75V54H65.5H75.5Z" fill="#1550DF" stroke="white" stroke-width="0.5"/>
</svg>
