<svg width="27" height="21" viewBox="0 0 27 21" fill="none" xmlns="http://www.w3.org/2000/svg">
<g clip-path="url(#clip0_4147_10894)">
<path d="M12.5312 3.28125H23.3594V4.59375H12.5312V3.28125ZM5.64062 3.9375C5.64063 4.45668 5.79458 4.96419 6.08302 5.39587C6.37146 5.82755 6.78142 6.164 7.26108 6.36268C7.74074 6.56136 8.26854 6.61335 8.77774 6.51206C9.28694 6.41078 9.75467 6.16077 10.1218 5.79366C10.4889 5.42654 10.7389 4.95881 10.8402 4.44961C10.9415 3.94041 10.8895 3.41261 10.6908 2.93296C10.4921 2.4533 10.1557 2.04333 9.724 1.75489C9.29232 1.46645 8.7848 1.3125 8.26562 1.3125C7.56966 1.31326 6.90243 1.59007 6.41031 2.08218C5.91819 2.5743 5.64138 3.24154 5.64062 3.9375ZM8.26562 2.625C8.52521 2.625 8.77897 2.70198 8.99481 2.8462C9.21065 2.99042 9.37888 3.1954 9.47822 3.43523C9.57756 3.67506 9.60355 3.93896 9.55291 4.19356C9.50226 4.44816 9.37726 4.68202 9.1937 4.86558C9.01015 5.04913 8.77628 5.17414 8.52168 5.22478C8.26708 5.27542 8.00318 5.24943 7.76335 5.15009C7.52352 5.05075 7.31854 4.88253 7.17432 4.66669C7.0301 4.45085 6.95312 4.19709 6.95312 3.9375C6.95352 3.58952 7.09192 3.25591 7.33798 3.00985C7.58404 2.7638 7.91765 2.62539 8.26562 2.625ZM12.5312 9.84375H23.3594V11.1562H12.5312V9.84375ZM8.26562 13.125C8.7848 13.125 9.29232 12.971 9.724 12.6826C10.1557 12.3942 10.4921 11.9842 10.6908 11.5045C10.8895 11.0249 10.9415 10.4971 10.8402 9.98789C10.7389 9.47869 10.4889 9.01096 10.1218 8.64384C9.75467 8.27673 9.28694 8.02672 8.77774 7.92544C8.26854 7.82415 7.74074 7.87614 7.26108 8.07482C6.78142 8.2735 6.37146 8.60995 6.08302 9.04163C5.79458 9.47331 5.64063 9.98082 5.64062 10.5C5.64138 11.196 5.91819 11.8632 6.41031 12.3553C6.90243 12.8474 7.56966 13.1242 8.26562 13.125ZM8.26562 9.1875C8.52521 9.1875 8.77897 9.26448 8.99481 9.4087C9.21065 9.55292 9.37888 9.7579 9.47822 9.99773C9.57756 10.2376 9.60355 10.5015 9.55291 10.7561C9.50226 11.0107 9.37726 11.2445 9.1937 11.4281C9.01015 11.6116 8.77628 11.7366 8.52168 11.7873C8.26708 11.8379 8.00318 11.8119 7.76335 11.7126C7.52352 11.6133 7.31854 11.445 7.17432 11.2292C7.0301 11.0133 6.95312 10.7596 6.95312 10.5C6.95352 10.152 7.09192 9.81841 7.33798 9.57235C7.58404 9.3263 7.91765 9.18789 8.26562 9.1875ZM12.5312 16.4062H23.3594V17.7188H12.5312V16.4062ZM8.26562 19.6875C8.7848 19.6875 9.29232 19.5335 9.724 19.2451C10.1557 18.9567 10.4921 18.5467 10.6908 18.067C10.8895 17.5874 10.9415 17.0596 10.8402 16.5504C10.7389 16.0412 10.4889 15.5735 10.1218 15.2063C9.75467 14.8392 9.28694 14.5892 8.77774 14.4879C8.26854 14.3867 7.74074 14.4386 7.26108 14.6373C6.78142 14.836 6.37146 15.1724 6.08302 15.6041C5.79458 16.0358 5.64063 16.5433 5.64062 17.0625C5.64138 17.7585 5.91819 18.4257 6.41031 18.9178C6.90243 19.4099 7.56966 19.6867 8.26562 19.6875ZM8.26562 15.75C8.52521 15.75 8.77897 15.827 8.99481 15.9712C9.21065 16.1154 9.37888 16.3204 9.47822 16.5602C9.57756 16.8001 9.60355 17.064 9.55291 17.3186C9.50226 17.5732 9.37726 17.807 9.1937 17.9906C9.01015 18.1741 8.77628 18.2991 8.52168 18.3498C8.26708 18.4004 8.00318 18.3744 7.76335 18.2751C7.52352 18.1758 7.31854 18.0075 7.17432 17.7917C7.0301 17.5758 6.95312 17.3221 6.95312 17.0625C6.95352 16.7145 7.09192 16.3809 7.33798 16.1349C7.58404 15.8888 7.91765 15.7504 8.26562 15.75Z" fill="#1D4265"/>
</g>
<defs>
<clipPath id="clip0_4147_10894">
<rect width="27" height="20" fill="white" transform="translate(0 0.5)"/>
</clipPath>
</defs>
</svg>
